<svg width="40" height="40" viewBox="0 0 40 40" fill="none" xmlns="http://www.w3.org/2000/svg">
<circle cx="20" cy="20" r="20" fill="#F3E4FA"/>
<g clip-path="url(#clip0_260_1902)">
<path d="M21.7088 12.2925L25.8213 14.6675C26.5013 13.9517 27.6321 13.9233 28.348 14.6033C28.4713 14.72 28.5763 14.8542 28.6621 15.0008C29.153 15.8575 28.8555 16.95 27.9988 17.4408C27.8538 17.5242 27.698 17.5867 27.5338 17.6267V22.3758C28.4888 22.6033 29.0788 23.5617 28.8505 24.5167C28.8105 24.6867 28.7446 24.85 28.6571 25.0008C28.1638 25.8533 27.073 26.1458 26.218 25.6525C26.0546 25.5583 25.9055 25.4367 25.7796 25.295L21.6921 27.655C22.0021 28.5917 21.4938 29.6008 20.558 29.91C20.3771 29.9692 20.1896 30 19.9996 30C19.0155 30.0008 18.2171 29.2042 18.2163 28.22C18.2163 28.0492 18.2405 27.8783 18.2896 27.7125L14.1763 25.34C13.4963 26.0517 12.3671 26.0792 11.6546 25.3983C10.943 24.7183 10.9163 23.5892 11.5963 22.8767C11.8321 22.6292 12.1346 22.455 12.4663 22.3742L12.4671 17.625C11.5088 17.395 10.9188 16.4308 11.1496 15.4717C11.1888 15.3067 11.2521 15.1475 11.3363 15C11.8296 14.1467 12.9213 13.855 13.7755 14.3483C13.923 14.4325 14.058 14.5383 14.1755 14.6625L18.2905 12.2875C18.0105 11.3433 18.5496 10.3525 19.4913 10.0733C19.6555 10.0242 19.828 10 19.9996 10C20.9838 9.99917 21.7821 10.795 21.783 11.7783C21.7838 11.9525 21.758 12.1267 21.7088 12.2925ZM21.2796 13.0233C21.2638 13.0408 21.2488 13.0558 21.2313 13.0717L26.6155 22.3967C26.6371 22.3892 26.6621 22.3833 26.6838 22.3775V17.6217C25.7296 17.3858 25.1488 16.42 25.3855 15.465C25.3905 15.445 25.3955 15.4242 25.4013 15.405L21.2796 13.0233ZM18.7671 13.0725L18.7171 13.0225L14.5955 15.3992C14.868 16.345 14.323 17.3308 13.378 17.6033C13.3563 17.61 13.3355 17.615 13.3146 17.6208V22.3775L13.3846 22.3967L18.7688 13.0717L18.7671 13.0725ZM20.4971 13.495C20.1721 13.5883 19.828 13.5883 19.5038 13.495L14.1205 22.8192C14.3655 23.055 14.5388 23.3567 14.6205 23.6867H25.3796C25.4605 23.355 25.6355 23.0525 25.8821 22.8167L20.4971 13.495ZM21.3188 27.0175L25.413 24.6525C25.4005 24.6133 25.3905 24.5742 25.3813 24.5342H14.618L14.6005 24.6033L18.7163 26.98C19.0396 26.6433 19.4946 26.4358 19.9996 26.4358C20.5221 26.4358 20.9913 26.66 21.3188 27.0175Z" fill="#E83D9B"/>
</g>
<defs>
<clipPath id="clip0_260_1902">
<rect width="20" height="20" fill="white" transform="translate(10 10)"/>
</clipPath>
</defs>
</svg>
