<svg width="18" height="17" viewBox="0 0 18 17" fill="none" xmlns="http://www.w3.org/2000/svg">
<path d="M1.00492 5.75965H4.52098V16.3406H1.00492V5.75965ZM2.78648 0.65918C1.58309 0.65918 0.796875 1.44922 0.796875 2.48617C0.796875 3.5018 1.56008 4.3148 2.74047 4.3148H2.76289C3.9893 4.3148 4.75305 3.50176 4.75305 2.48617C4.73004 1.44922 3.98934 0.65918 2.78648 0.65918ZM13.1539 5.51109C11.2875 5.51109 10.4514 6.53766 9.98492 7.25758V5.75965H6.46781C6.51437 6.75227 6.46781 16.3406 6.46781 16.3406H9.98492V10.4314C9.98492 10.115 10.0079 9.79965 10.1005 9.57293C10.3551 8.94113 10.9338 8.28687 11.9045 8.28687C13.178 8.28687 13.6866 9.25762 13.6866 10.6794V16.3405H17.2031V10.2732C17.2031 7.02328 15.4687 5.51109 13.1539 5.51109Z" fill="white"/>
</svg>
