<svg width="40" height="40" viewBox="0 0 40 40" fill="none" xmlns="http://www.w3.org/2000/svg">
<circle cx="20" cy="20" r="20" fill="#E4FAE8"/>
<g clip-path="url(#clip0_265_2536)">
<path d="M20 30C25.5228 30 30 25.5228 30 20C30 14.4772 25.5228 10 20 10C14.4772 10 10 14.4772 10 20C10 25.5228 14.4772 30 20 30Z" fill="#13AA52"/>
<path d="M22.6729 18.7781C22.0412 15.9904 20.5485 15.0738 20.3877 14.7236C20.2119 14.4766 20.0338 14.0371 20.0338 14.0371C20.0309 14.0297 20.0262 14.0166 20.0207 14.0039C20.0026 14.251 19.9932 14.3463 19.7596 14.5955C19.3979 14.8783 17.542 16.4355 17.391 19.6027C17.2502 22.5566 19.5248 24.3168 19.8324 24.5412L19.8674 24.566V24.5639C19.8694 24.5787 19.9651 25.267 20.0322 25.9963H20.2733C20.3298 25.4808 20.4146 24.9687 20.5272 24.4625L20.5467 24.4498C20.6843 24.3511 20.8155 24.2438 20.9395 24.1285L20.9535 24.1158C21.6074 23.5117 22.783 22.1145 22.7715 19.8867C22.7691 19.5151 22.7361 19.1443 22.6729 18.7781ZM20.0067 22.8734C20.0067 22.8734 20.0067 18.7305 20.1434 18.7313C20.25 18.7313 20.3881 24.0752 20.3881 24.0752C20.1983 24.0523 20.0067 23.1957 20.0067 22.8734Z" fill="white"/>
</g>
<defs>
<clipPath id="clip0_265_2536">
<rect width="20" height="20" fill="white" transform="translate(10 10)"/>
</clipPath>
</defs>
</svg>
