<svg width="40" height="40" viewBox="0 0 40 40" fill="none" xmlns="http://www.w3.org/2000/svg">
<circle cx="20" cy="20" r="20" fill="#DAFFE9"/>
<g clip-path="url(#clip0_260_2086)">
<path d="M19.8581 29.9629C19.583 29.9629 19.3263 29.8895 19.0879 29.7612L16.6487 28.3123C16.2819 28.1106 16.4653 28.0372 16.5753 28.0005C17.0705 27.8355 17.1622 27.7988 17.6757 27.5054C17.7307 27.4687 17.8041 27.487 17.8591 27.5237L19.7298 28.6424C19.8031 28.6791 19.8948 28.6791 19.9498 28.6424L27.2674 24.4059C27.3408 24.3692 27.3775 24.2959 27.3775 24.2042V15.7495C27.3775 15.6578 27.3408 15.5845 27.2674 15.5478L19.9498 11.3296C19.8765 11.293 19.7848 11.293 19.7298 11.3296L12.4122 15.5478C12.3388 15.5845 12.3021 15.6762 12.3021 15.7495V24.2042C12.3021 24.2775 12.3388 24.3692 12.4122 24.4059L14.4112 25.5613C15.4933 26.1115 16.1718 25.4696 16.1718 24.8277V16.4831C16.1718 16.3731 16.2635 16.263 16.3919 16.263H17.3272C17.4373 16.263 17.5473 16.3547 17.5473 16.4831V24.8277C17.5473 26.2766 16.7587 27.1202 15.3832 27.1202C14.9614 27.1202 14.6313 27.1202 13.696 26.6617L11.7703 25.5613C11.2934 25.2862 11 24.7727 11 24.2225V15.7679C11 15.2177 11.2934 14.7042 11.7703 14.4291L19.0879 10.1926C19.5464 9.93581 20.1699 9.93581 20.6284 10.1926L27.946 14.4291C28.4228 14.7042 28.7163 15.2177 28.7163 15.7679V24.2225C28.7163 24.7727 28.4228 25.2862 27.946 25.5613L20.6284 29.7978C20.39 29.9079 20.1149 29.9629 19.8581 29.9629ZM22.1139 24.1492C18.9045 24.1492 18.2442 22.682 18.2442 21.4349C18.2442 21.3248 18.3359 21.2148 18.4643 21.2148H19.418C19.528 21.2148 19.6197 21.2882 19.6197 21.3982C19.7664 22.3702 20.1882 22.847 22.1323 22.847C23.6728 22.847 24.333 22.4986 24.333 21.6733C24.333 21.1965 24.1496 20.848 21.7471 20.6096C19.7481 20.4078 18.501 19.9677 18.501 18.3721C18.501 16.8866 19.7481 16.0063 21.8388 16.0063C24.1863 16.0063 25.3417 16.8132 25.4885 18.5739C25.4885 18.6289 25.4701 18.6839 25.4334 18.7389C25.3968 18.7756 25.3417 18.8123 25.2867 18.8123H24.333C24.2413 18.8123 24.1496 18.7389 24.1313 18.6472C23.9112 17.6385 23.3427 17.3084 21.8388 17.3084C20.1516 17.3084 19.9498 17.8953 19.9498 18.3354C19.9498 18.8673 20.1882 19.0324 22.4624 19.3258C24.7182 19.6192 25.7819 20.041 25.7819 21.6183C25.7636 23.2322 24.4431 24.1492 22.1139 24.1492Z" fill="#539E43"/>
</g>
<defs>
<clipPath id="clip0_260_2086">
<rect width="17.7163" height="20" fill="white" transform="translate(11 10)"/>
</clipPath>
</defs>
</svg>
