<svg width="18" height="20" viewBox="0 0 18 20" fill="none" xmlns="http://www.w3.org/2000/svg">
<g clip-path="url(#clip0_36_512)">
<path d="M8.85813 19.9629C8.58303 19.9629 8.32628 19.8895 8.08786 19.7612L5.64866 18.3123C5.28187 18.1106 5.46527 18.0372 5.5753 18.0005C6.07048 17.8355 6.16218 17.7988 6.67569 17.5054C6.73071 17.4687 6.80407 17.487 6.85909 17.5237L8.72975 18.6424C8.80311 18.6791 8.89481 18.6791 8.94983 18.6424L16.2674 14.4059C16.3408 14.3692 16.3775 14.2959 16.3775 14.2042V5.74953C16.3775 5.65783 16.3408 5.58447 16.2674 5.54779L8.94983 1.32964C8.87647 1.29296 8.78477 1.29296 8.72975 1.32964L1.41217 5.54779C1.33881 5.58447 1.30213 5.67617 1.30213 5.74953V14.2042C1.30213 14.2775 1.33881 14.3692 1.41217 14.4059L3.41121 15.5613C4.49326 16.1115 5.17183 15.4696 5.17183 14.8277V6.48313C5.17183 6.37309 5.26353 6.26305 5.39191 6.26305H6.32724C6.43728 6.26305 6.54731 6.35475 6.54731 6.48313V14.8277C6.54731 16.2766 5.7587 17.1202 4.38322 17.1202C3.9614 17.1202 3.63128 17.1202 2.69595 16.6617L0.770272 15.5613C0.293437 15.2862 0 14.7727 0 14.2225V5.76787C0 5.21768 0.293437 4.70416 0.770272 4.42907L8.08786 0.192568C8.54635 -0.0641893 9.16991 -0.0641893 9.6284 0.192568L16.946 4.42907C17.4228 4.70416 17.7163 5.21768 17.7163 5.76787V14.2225C17.7163 14.7727 17.4228 15.2862 16.946 15.5613L9.6284 19.7978C9.38999 19.9079 9.11489 19.9629 8.85813 19.9629ZM11.1139 14.1492C7.90446 14.1492 7.24423 12.682 7.24423 11.4349C7.24423 11.3248 7.33593 11.2148 7.46431 11.2148H8.41798C8.52802 11.2148 8.61971 11.2882 8.61971 11.3982C8.76643 12.3702 9.18825 12.847 11.1323 12.847C12.6728 12.847 13.333 12.4986 13.333 11.6733C13.333 11.1965 13.1496 10.848 10.7471 10.6096C8.74809 10.4078 7.50099 9.96769 7.50099 8.37213C7.50099 6.8866 8.74809 6.00629 10.8388 6.00629C13.1863 6.00629 14.3417 6.81324 14.4885 8.57386C14.4885 8.62888 14.4701 8.6839 14.4334 8.73892C14.3968 8.7756 14.3417 8.81228 14.2867 8.81228H13.333C13.2413 8.81228 13.1496 8.73892 13.1313 8.64722C12.9112 7.63853 12.3427 7.30842 10.8388 7.30842C9.15157 7.30842 8.94983 7.89529 8.94983 8.33545C8.94983 8.8673 9.18825 9.03236 11.4624 9.3258C13.7182 9.61923 14.7819 10.041 14.7819 11.6183C14.7636 13.2322 13.4431 14.1492 11.1139 14.1492Z" fill="#539E43"/>
</g>
<defs>
<clipPath id="clip0_36_512">
<rect width="17.7163" height="20" fill="white"/>
</clipPath>
</defs>
</svg>
