<svg width="65" height="65" viewBox="0 0 65 65" fill="none" xmlns="http://www.w3.org/2000/svg">
<rect width="65" height="65" rx="6" fill="#F3E4FA"/>
<g clip-path="url(#clip0_15_931)">
<path d="M26.0642 37.5487C25.7033 37.1732 25.0715 37.1265 24.6591 37.4397L24.6483 37.4327L23.715 38.366C23.5104 38.57 23.3982 38.8422 23.3982 39.1316C23.3859 39.7145 23.899 40.2265 24.4813 40.2147C24.8202 40.2202 25.1221 40.0507 25.3432 39.8016L26.0642 39.0806C26.2153 38.9295 26.3166 38.7415 26.3587 38.5368C26.4342 38.1829 26.3225 37.8033 26.0642 37.5487Z" fill="#E83D9B"/>
<path d="M23.4685 34.3758C23.0461 33.9533 22.3596 33.9537 21.9366 34.3758C21.8383 34.4746 21.2322 35.0804 21.12 35.1931C20.1457 36.2504 21.5933 37.6986 22.6513 36.725C22.6513 36.725 23.36 36.0162 23.4685 35.9077C23.8913 35.4857 23.8913 34.7985 23.4685 34.3758Z" fill="#E83D9B"/>
<path d="M28.2788 40.0189C27.9894 40.0189 27.7172 40.1318 27.5126 40.3364L26.6953 41.1537C26.6915 41.1575 26.6876 41.1613 26.6838 41.1658C26.2743 41.5704 26.2804 42.2869 26.6953 42.6856C27.118 43.1076 27.8052 43.1076 28.2272 42.6856L29.0451 41.8677C29.7225 41.192 29.2356 40.0153 28.2788 40.0189Z" fill="#E83D9B"/>
<path d="M35.5476 27.9965C33.8755 29.0509 31.6334 28.8507 30.178 27.3953L28.2834 25.5013L30.6478 23.1368C28.1082 20.2869 23.6426 20.1061 20.9393 22.8277C18.2215 25.5271 18.3957 29.9875 21.2396 32.5278C23.3107 31.3703 25.8576 32.9871 25.69 35.3456C27.0613 35.4938 28.2224 36.7368 28.2852 38.1085C29.5748 38.0809 30.8558 39.0467 31.1699 40.3206C32.2435 40.0328 33.4468 40.3893 34.182 41.2399L34.2037 41.2144C35.2697 41.8543 36.3974 40.5398 35.5935 39.5824L35.5954 39.5798C35.5788 39.5639 31.2904 35.2754 31.2904 35.2754C31.6273 34.9385 32.3056 34.2602 32.6425 33.9233L36.8984 38.1792C37.9557 39.1533 39.4042 37.7048 38.4297 36.6473L34.1744 32.3914C34.5114 32.0544 35.1896 31.3762 35.5265 31.0393C36.483 31.9957 38.8035 34.3163 39.7824 35.2952C40.1855 35.7151 40.9113 35.7149 41.3143 35.2952C41.7364 34.8726 41.7364 34.1853 41.3143 33.7633L35.5476 27.9965Z" fill="#E83D9B"/>
<path d="M43.0605 22.8276C40.4691 20.2368 36.2527 20.2368 33.6613 22.8276C33.1574 23.3318 31.4642 25.0254 30.9883 25.5013L31.5302 26.0431C32.4724 26.9854 34.0049 26.9854 34.9465 26.0431L35.6229 25.3668C35.9825 25.7303 42.5837 32.3202 42.7692 32.5188C45.6063 29.9775 45.7744 25.5235 43.0605 22.8276Z" fill="#E83D9B"/>
<path d="M32.6982 42.4516C32.2755 42.0296 31.5888 42.029 31.1663 42.4516L30.349 43.2689C29.9285 43.6721 29.9287 44.3976 30.349 44.8008C30.7528 45.2204 31.4775 45.2202 31.8809 44.8008L32.6982 43.9835C33.1179 43.5809 33.1179 42.8533 32.6982 42.4516Z" fill="#E83D9B"/>
</g>
<defs>
<clipPath id="clip0_15_931">
<rect width="26" height="26" fill="white" transform="translate(19 20)"/>
</clipPath>
</defs>
</svg>
