<svg width="65" height="65" viewBox="0 0 65 65" fill="none" xmlns="http://www.w3.org/2000/svg">
<rect width="65" height="65" rx="6" fill="#D6DEFB"/>
<path d="M42.8333 28.9591V24.5825C42.8333 22.86 42.14 22.1666 40.4175 22.1666H36.0408C34.3183 22.1666 33.625 22.86 33.625 24.5825V28.9591C33.625 30.6816 34.3183 31.375 36.0408 31.375H40.4175C42.14 31.375 42.8333 30.6816 42.8333 28.9591Z" fill="#545BA8" stroke="#545BA8" stroke-width="1.5" stroke-linecap="round" stroke-linejoin="round"/>
<path d="M30.3748 29.23V24.3116C30.3748 22.7841 29.6815 22.1666 27.959 22.1666H23.5823C21.8598 22.1666 21.1665 22.7841 21.1665 24.3116V29.2191C21.1665 30.7575 21.8598 31.3641 23.5823 31.3641H27.959C29.6815 31.375 30.3748 30.7575 30.3748 29.23Z" fill="#545BA8" stroke="#545BA8" stroke-width="1.5" stroke-linecap="round" stroke-linejoin="round"/>
<path d="M30.3748 41.4175V37.0408C30.3748 35.3183 29.6815 34.625 27.959 34.625H23.5823C21.8598 34.625 21.1665 35.3183 21.1665 37.0408V41.4175C21.1665 43.14 21.8598 43.8333 23.5823 43.8333H27.959C29.6815 43.8333 30.3748 43.14 30.3748 41.4175Z" fill="#545BA8" stroke="#545BA8" stroke-width="1.5" stroke-linecap="round" stroke-linejoin="round"/>
<path d="M34.7085 38.9584H41.2085" stroke="#545BA8" stroke-width="1.5" stroke-linecap="round"/>
<path d="M37.9585 42.2084V35.7084" stroke="#545BA8" stroke-width="1.5" stroke-linecap="round"/>
</svg>
