<svg width="65" height="65" viewBox="0 0 65 65" fill="none" xmlns="http://www.w3.org/2000/svg">
<rect width="65" height="65" rx="6" fill="#F3E4FA"/>
<path d="M43.936 24.9917L39.5374 20.9684C39.3298 20.7765 39.0574 20.67 38.7747 20.67C38.492 20.67 38.2196 20.7765 38.012 20.9684L33.6135 24.9917C33.4725 25.1206 33.3737 25.2892 33.3301 25.4753C33.2866 25.6613 33.3003 25.8562 33.3694 26.0344C33.4386 26.2125 33.5599 26.3656 33.7176 26.4736C33.8753 26.5816 34.0619 26.6394 34.253 26.6395H35.999C36.0513 26.6395 36.1014 26.6603 36.1384 26.6973C36.1753 26.7343 36.1961 26.7844 36.1962 26.8366V38.5836C36.1964 38.8298 36.2944 39.0659 36.4685 39.24C36.6426 39.4141 36.8787 39.512 37.1249 39.5122H40.3273C40.5735 39.512 40.8096 39.4141 40.9837 39.24C41.1578 39.0659 41.2558 38.8299 41.2561 38.5837V26.8366C41.2561 26.7844 41.2769 26.7342 41.3139 26.6973C41.3509 26.6603 41.401 26.6395 41.4533 26.6395H43.2964C43.4876 26.6394 43.6742 26.5816 43.8319 26.4736C43.9895 26.3656 44.1109 26.2125 44.18 26.0344C44.2492 25.8562 44.2629 25.6613 44.2193 25.4753C44.1758 25.2892 44.077 25.1206 43.936 24.9917Z" fill="#E83D9B"/>
<path d="M40.8498 43.182H36.6025C36.414 43.182 36.2332 43.2569 36.0998 43.3902C35.9665 43.5236 35.8916 43.7044 35.8916 43.8929C35.8916 44.0815 35.9665 44.2623 36.0998 44.3957C36.2332 44.529 36.414 44.6039 36.6025 44.6039H40.8498C41.0384 44.6039 41.2192 44.529 41.3525 44.3957C41.4859 44.2623 41.5608 44.0815 41.5608 43.8929C41.5608 43.7044 41.4859 43.5236 41.3525 43.3902C41.2192 43.2569 41.0384 43.182 40.8498 43.182Z" fill="#E83D9B"/>
<path d="M40.8498 40.9363H36.6025C36.414 40.9363 36.2332 41.0112 36.0998 41.1446C35.9665 41.2779 35.8916 41.4587 35.8916 41.6473C35.8916 41.8358 35.9665 42.0167 36.0998 42.15C36.2332 42.2833 36.414 42.3582 36.6025 42.3582H40.8498C41.0384 42.3582 41.2192 42.2833 41.3525 42.15C41.4859 42.0167 41.5608 41.8358 41.5608 41.6473C41.5608 41.4587 41.4859 41.2779 41.3525 41.1446C41.2192 41.0112 41.0384 40.9363 40.8498 40.9363Z" fill="#E83D9B"/>
<path d="M24.8896 35.0848H21.8324C21.2794 35.0848 20.8311 35.5331 20.8311 36.0862V43.7042C20.8311 44.2572 21.2794 44.7055 21.8324 44.7055H24.8896C25.4426 44.7055 25.8909 44.2572 25.8909 43.7042V36.0862C25.8909 35.5331 25.4426 35.0848 24.8896 35.0848Z" fill="#E83D9B"/>
<path d="M29.1439 30.5798H32.2013C32.4669 30.5798 32.7216 30.6853 32.9093 30.8731C33.0971 31.0608 33.2026 31.3155 33.2026 31.5811V43.7042C33.2026 43.9697 33.0971 44.2244 32.9093 44.4122C32.7216 44.6 32.4669 44.7055 32.2013 44.7055H29.1439C28.8783 44.7055 28.6236 44.6 28.4359 44.4122C28.2481 44.2244 28.1426 43.9697 28.1426 43.7042V31.5809C28.1426 31.4494 28.1685 31.3192 28.2188 31.1978C28.2691 31.0763 28.3429 30.9659 28.4359 30.8729C28.5289 30.78 28.6392 30.7062 28.7607 30.6559C28.8822 30.6056 29.0124 30.5798 29.1439 30.5798Z" fill="#E83D9B"/>
</svg>
