<svg width="65" height="65" viewBox="0 0 65 65" fill="none" xmlns="http://www.w3.org/2000/svg">
<rect width="65" height="65" rx="6" fill="#DAF6FF"/>
<g clip-path="url(#clip0_15_945)">
<path d="M36.6211 29.2422C32.001 29.2422 28.2422 33.001 28.2422 37.6211C28.2422 42.2412 32.001 46 36.6211 46C41.2412 46 45 42.2412 45 37.6211C45 33.001 41.2412 29.2422 36.6211 29.2422ZM36.6211 36.8594C37.8812 36.8594 38.9062 37.8844 38.9062 39.1445C38.9062 40.1363 38.2675 40.9739 37.3828 41.2894V42.9531H35.8594V41.2894C34.9747 40.9739 34.3359 40.1363 34.3359 39.1445H35.8594C35.8594 39.5648 36.2008 39.9062 36.6211 39.9062C37.0414 39.9062 37.3828 39.5648 37.3828 39.1445C37.3828 38.7243 37.0414 38.3828 36.6211 38.3828C35.361 38.3828 34.3359 37.3577 34.3359 36.0977C34.3359 35.1059 34.9747 34.2683 35.8594 33.9528V32.2891H37.3828V33.9528C38.2675 34.2683 38.9062 35.1059 38.9062 36.0977H37.3828C37.3828 35.6774 37.0414 35.3359 36.6211 35.3359C36.2008 35.3359 35.8594 35.6774 35.8594 36.0977C35.8594 36.5179 36.2008 36.8594 36.6211 36.8594Z" fill="#05D3FF"/>
<path d="M27.4805 29.2422C32.1788 29.2422 35.8594 27.2345 35.8594 24.6719C35.8594 22.1093 32.1788 20 27.4805 20C22.7822 20 19 22.1093 19 24.6719C19 27.2345 22.7822 29.2422 27.4805 29.2422Z" fill="#05D3FF"/>
<path d="M19 37.1417V38.3829C19 40.9455 22.7822 42.9532 27.4805 42.9532C27.747 42.9532 28.0052 42.9287 28.2676 42.9158C27.6833 41.9971 27.2475 40.9777 26.9909 39.888C23.5934 39.7942 20.6434 38.7502 19 37.1417Z" fill="#05D3FF"/>
<path d="M26.7554 38.3441C26.7379 38.1045 26.7188 37.8652 26.7188 37.6211C26.7188 36.8271 26.8228 36.0586 27.0002 35.3181C23.5985 35.2259 20.6449 34.1813 19 32.5714V33.8126C19 36.2392 22.4156 38.1463 26.7554 38.3441Z" fill="#05D3FF"/>
<path d="M27.4805 33.8126C27.4813 33.8126 27.4819 33.8125 27.4828 33.8125C27.9852 32.6118 28.7155 31.5294 29.6224 30.6226C28.9344 30.7095 28.2235 30.7657 27.4805 30.7657C23.864 30.7657 20.7228 29.6872 19 28.0011V29.2422C19 31.8049 22.7822 33.8126 27.4805 33.8126Z" fill="#05D3FF"/>
</g>
<defs>
<clipPath id="clip0_15_945">
<rect width="26" height="26" fill="white" transform="translate(19 20)"/>
</clipPath>
</defs>
</svg>
