<svg width="65" height="65" viewBox="0 0 65 65" fill="none" xmlns="http://www.w3.org/2000/svg">
<rect width="65" height="65" rx="6" fill="#DAF6FF"/>
<path d="M24.0225 35.684C24.0225 35.684 22.2624 37.0782 22.1506 40.9091C22.148 41.013 22.1664 41.1163 22.2046 41.2129C22.2428 41.3095 22.3001 41.3974 22.3731 41.4714C22.446 41.5454 22.5331 41.6039 22.6292 41.6435C22.7253 41.683 22.8283 41.7028 22.9322 41.7016C26.6386 41.6326 28.1573 39.8189 28.1573 39.8189C28.687 39.2609 28.9823 38.5208 28.9823 37.7515C28.9823 36.9821 28.687 36.242 28.1573 35.684C27.0156 34.5421 25.3231 34.5976 24.0225 35.684Z" fill="#05D3FF"/>
<path d="M32.2051 37.0482C32.729 37.7385 33.0492 38.5618 33.1293 39.4247C33.2079 40.7744 33.0887 42.1282 32.7755 43.4434C32.7506 43.5523 32.7575 43.6661 32.7955 43.7712C32.8334 43.8763 32.9008 43.9683 32.9895 44.0363C33.0783 44.1042 33.1847 44.1452 33.296 44.1544C33.4074 44.1635 33.5191 44.1405 33.6177 44.0881C36.7433 42.4412 39.3242 39.2585 37.6775 35.1068C36.0222 36.1564 34.1518 36.8199 32.2051 37.0482Z" fill="#05D3FF"/>
<path d="M24.4152 30.71C25.2791 30.7904 26.1032 31.1114 26.7939 31.6366C27.019 29.6886 27.6826 27.8169 28.7349 26.1622C24.5822 24.5138 21.3994 27.0962 19.7508 30.222C19.6987 30.3199 19.6759 30.4307 19.6851 30.5411C19.6943 30.6516 19.7352 30.7571 19.8027 30.8449C19.8701 30.9346 19.9618 31.003 20.067 31.0418C20.1722 31.0806 20.2864 31.0883 20.3959 31.0639C21.7113 30.7509 23.0653 30.6317 24.4152 30.71Z" fill="#05D3FF"/>
<path d="M43.5449 21.173C43.5109 20.9531 43.4077 20.7498 43.2504 20.5925C43.0931 20.4352 42.8898 20.3321 42.6699 20.2981C41.3912 20.1056 40.0913 20.1003 38.811 20.2822C38.9628 21.4888 39.5121 22.6104 40.3723 23.47C41.2325 24.3296 42.3545 24.8782 43.5612 25.0292C43.7427 23.7498 43.7372 22.4508 43.5449 21.173Z" fill="#05D3FF"/>
<path d="M37.7334 20.4821C35.8115 20.924 34.0394 21.8629 32.5944 23.2049C27.8516 27.5963 27.8687 32.0485 27.8687 32.0485L31.7942 35.974C31.7942 35.974 36.2467 35.9911 40.6378 31.2486C41.9803 29.8029 42.9195 28.0299 43.3611 26.107C41.9369 25.9143 40.6151 25.2597 39.5986 24.2437C38.582 23.2277 37.9268 21.9062 37.7334 20.4821ZM35.925 30.2056C35.4719 30.2056 35.0289 30.0712 34.6521 29.8195C34.2753 29.5677 33.9816 29.2099 33.8082 28.7912C33.6348 28.3725 33.5894 27.9118 33.6778 27.4674C33.7662 27.0229 33.9844 26.6146 34.3049 26.2942C34.6253 25.9738 35.0336 25.7555 35.478 25.6671C35.9225 25.5787 36.3832 25.6241 36.8019 25.7975C37.2205 25.9709 37.5784 26.2646 37.8301 26.6414C38.0819 27.0182 38.2163 27.4612 38.2163 27.9144C38.2163 28.2153 38.157 28.5132 38.0419 28.7912C37.9267 29.0692 37.758 29.3218 37.5452 29.5345C37.3324 29.7473 37.0798 29.9161 36.8019 30.0312C36.5239 30.1463 36.2259 30.2056 35.925 30.2056Z" fill="#05D3FF"/>
</svg>
