<svg width="65" height="65" viewBox="0 0 65 65" fill="none" xmlns="http://www.w3.org/2000/svg">
<rect width="65" height="65" rx="6" fill="#D6DEFB"/>
<path d="M28.0527 24.4287L29.2527 25.3006C29.3903 25.4006 29.4927 25.5416 29.5452 25.7034C29.5978 25.8651 29.5978 26.0394 29.5452 26.2012L29.0871 27.6119C29.0346 27.7737 29.0346 27.9479 29.0872 28.1097C29.1398 28.2714 29.2422 28.4124 29.3798 28.5124C29.5174 28.6123 29.6831 28.6662 29.8532 28.6662C30.0233 28.6662 30.189 28.6124 30.3266 28.5124L31.5267 27.6406C31.6643 27.5406 31.83 27.4867 32.0001 27.4867C32.1702 27.4867 32.3359 27.5406 32.4735 27.6406L33.6736 28.5124C33.8112 28.6124 33.977 28.6662 34.147 28.6662C34.3171 28.6662 34.4828 28.6123 34.6204 28.5124C34.7581 28.4124 34.8605 28.2714 34.913 28.1097C34.9656 27.9479 34.9656 27.7737 34.9131 27.6119L34.4545 26.2012C34.4019 26.0394 34.4019 25.8651 34.4545 25.7034C34.507 25.5416 34.6094 25.4006 34.747 25.3006L35.947 24.4287C36.0847 24.3288 36.1871 24.1878 36.2396 24.026C36.2922 23.8642 36.2922 23.69 36.2396 23.5282C36.187 23.3664 36.0846 23.2254 35.947 23.1255C35.8094 23.0255 35.6437 22.9716 35.4736 22.9716H33.9906C33.8205 22.9716 33.6548 22.9178 33.5171 22.8178C33.3795 22.7178 33.2771 22.5768 33.2245 22.4151L32.766 21.0043C32.7135 20.8426 32.611 20.7016 32.4734 20.6016C32.3358 20.5016 32.1701 20.4478 32 20.4478C31.8299 20.4478 31.6642 20.5016 31.5266 20.6016C31.3889 20.7016 31.2865 20.8426 31.234 21.0043L30.7756 22.4151C30.723 22.5769 30.6205 22.7179 30.4829 22.8179C30.3452 22.9178 30.1795 22.9717 30.0093 22.9716H28.5262C28.3561 22.9716 28.1904 23.0255 28.0527 23.1255C27.9151 23.2254 27.8127 23.3664 27.7601 23.5282C27.7076 23.69 27.7076 23.8642 27.7601 24.026C27.8127 24.1878 27.9151 24.3288 28.0527 24.4287Z" fill="#545BA8"/>
<path d="M34.2099 36.9313C34.1242 36.8944 34.0513 36.8333 34 36.7554C33.9487 36.6775 33.9214 36.5863 33.9214 36.4931C33.9208 36.4265 33.9339 36.3604 33.9599 36.2991C33.9859 36.2377 34.0242 36.1824 34.0725 36.1365C34.1019 36.1084 34.1301 36.0807 34.1513 36.0585C34.3006 35.9012 34.4324 35.7281 34.5443 35.5422C34.8385 35.0512 34.9844 34.4855 34.9643 33.9134C34.9442 33.3414 34.7589 32.7873 34.4309 32.3182C34.1029 31.849 33.6462 31.4848 33.1158 31.2695C32.5854 31.0542 32.004 30.997 31.4418 31.1047C30.8689 31.205 30.3394 31.4754 29.9222 31.8807C29.505 32.286 29.2195 32.8074 29.1026 33.3772C28.9946 33.8678 29.013 34.3778 29.156 34.8593C29.2991 35.3409 29.5621 35.7782 29.9204 36.1302C29.969 36.1763 30.0079 36.2317 30.0349 36.293C30.0618 36.3544 30.0763 36.4205 30.0773 36.4875V36.4899C30.0782 36.5839 30.0513 36.6761 29.9999 36.7549C29.9486 36.8337 29.8752 36.8955 29.7889 36.9327C28.6071 37.4223 27.6648 38.3561 27.1645 39.5333C26.8128 40.3395 26.6364 41.2113 26.6469 42.0908V42.7245C26.6469 42.8604 26.6737 42.995 26.7257 43.1206C26.7777 43.2461 26.854 43.3602 26.9501 43.4563C27.0462 43.5524 27.1603 43.6286 27.2859 43.6806C27.4115 43.7326 27.5461 43.7593 27.682 43.7593H36.3193C36.5936 43.7592 36.8568 43.6502 37.0508 43.4562C37.2448 43.2622 37.3538 42.999 37.3538 42.7246V42.0845C37.3643 41.2053 37.1876 40.334 36.8354 39.5284C36.3342 38.3522 35.3915 37.4196 34.2099 36.9313Z" fill="#545BA8"/>
<path d="M43.7335 38.0992C43.2324 36.9231 42.2897 35.9906 41.1082 35.5022C41.0226 35.4653 40.9496 35.4042 40.8984 35.3263C40.8471 35.2484 40.8198 35.1572 40.8198 35.064C40.8192 34.9974 40.8323 34.9313 40.8583 34.87C40.8843 34.8086 40.9226 34.7533 40.9709 34.7073C41.0003 34.6792 41.0286 34.6516 41.0496 34.6293C41.199 34.4721 41.3308 34.2991 41.4427 34.1133C41.737 33.6223 41.8829 33.0566 41.8628 32.4845C41.8427 31.9124 41.6575 31.3584 41.3294 30.8892C41.0014 30.4201 40.5447 30.0559 40.0143 29.8405C39.4838 29.6252 38.9025 29.568 38.3402 29.6758C37.7673 29.7761 37.2378 30.0464 36.8206 30.4517C36.4035 30.857 36.1179 31.3785 36.0011 31.9482C35.893 32.4388 35.9114 32.9488 36.0544 33.4304C36.1975 33.9119 36.4605 34.3492 36.8188 34.7013C36.8674 34.7474 36.9064 34.8027 36.9333 34.8641C36.9602 34.9254 36.9747 34.9915 36.9757 35.0585V35.061C36.9766 35.1551 36.9497 35.2472 36.8984 35.326C36.8471 35.4048 36.7736 35.4667 36.6873 35.5039C36.2153 35.6972 35.7771 35.9644 35.3892 36.2955C36.4776 36.9409 37.3336 37.9145 37.8343 39.0767C38.2521 40.0239 38.4621 41.0497 38.4502 42.0849V42.3304H43.2173C43.4917 42.3304 43.7549 42.2214 43.9489 42.0274C44.1429 41.8334 44.2519 41.5703 44.252 41.2959V40.6554C44.2625 39.7762 44.0857 38.9048 43.7335 38.0992Z" fill="#545BA8"/>
<path d="M28.6121 36.2952C28.2233 35.9633 27.7841 35.6956 27.311 35.5022C27.2254 35.4653 27.1524 35.4042 27.1011 35.3263C27.0499 35.2484 27.0226 35.1572 27.0226 35.064C27.022 34.9974 27.0351 34.9313 27.0611 34.87C27.0871 34.8086 27.1254 34.7532 27.1737 34.7073C27.2031 34.6792 27.2313 34.6516 27.2525 34.6293C27.4018 34.4721 27.5336 34.2991 27.6454 34.1133C27.9397 33.6223 28.0856 33.0566 28.0655 32.4845C28.0455 31.9124 27.8602 31.3584 27.5322 30.8892C27.2042 30.4201 26.7475 30.0558 26.217 29.8405C25.6866 29.6252 25.1052 29.568 24.543 29.6758C23.9701 29.7761 23.4406 30.0465 23.0234 30.4518C22.6062 30.857 22.3206 31.3785 22.2038 31.9482C22.0958 32.4388 22.1142 32.9488 22.2572 33.4304C22.4003 33.9119 22.6633 34.3492 23.0216 34.7013C23.0702 34.7474 23.1091 34.8027 23.1361 34.8641C23.163 34.9254 23.1774 34.9915 23.1785 35.0585V35.061C23.1793 35.1551 23.1524 35.2472 23.1011 35.326C23.0498 35.4048 22.9764 35.4667 22.89 35.5039C21.7083 35.9934 20.7659 36.9272 20.2656 38.1044C19.9139 38.9106 19.7375 39.7823 19.748 40.6619V41.2959C19.748 41.4318 19.7748 41.5663 19.8267 41.6918C19.8787 41.8173 19.9549 41.9314 20.051 42.0274C20.1471 42.1235 20.2611 42.1997 20.3866 42.2517C20.5122 42.3037 20.6467 42.3305 20.7826 42.3304H25.5501V42.091C25.5382 41.0558 25.7477 40.0301 26.1646 39.0824C26.6649 37.9177 27.5218 36.9418 28.6121 36.2952Z" fill="#545BA8"/>
</svg>
