<svg width="65" height="65" viewBox="0 0 65 65" fill="none" xmlns="http://www.w3.org/2000/svg">
<rect width="65" height="65" rx="6" fill="#D6DEFB"/>
<path d="M41.4146 23.028C41.3815 22.8341 41.3107 22.6486 41.206 22.482L39.4051 19.6549C39.2772 19.4542 39.1008 19.289 38.8922 19.1745C38.6835 19.06 38.4494 19 38.2114 19H34.5889L37.0422 23.028H41.4146Z" fill="#545BA8"/>
<path d="M29.313 19H26.3498C26.1118 19 25.8777 19.06 25.669 19.1745C25.4604 19.2889 25.284 19.4542 25.1561 19.6549L23.3552 22.482C23.2505 22.6486 23.1796 22.8341 23.1465 23.028H27.4425L29.313 19Z" fill="#545BA8"/>
<path d="M32.7528 23.028C32.8956 23.028 33.0325 23.0848 33.1334 23.1857C33.2344 23.2866 33.2911 23.4236 33.2911 23.5663C33.2911 23.7091 33.2344 23.846 33.1334 23.947C33.0325 24.0479 32.8956 24.1046 32.7528 24.1046H28.5537L31.6444 33.0655C31.6888 33.1942 31.7723 33.306 31.8832 33.3851C31.9941 33.4642 32.1269 33.5067 32.2632 33.5068C32.3994 33.5068 32.5323 33.4644 32.6433 33.3853C32.7542 33.3063 32.8378 33.1946 32.8823 33.0659L36.1457 23.6258L33.3283 19H30.4999L28.6293 23.028H32.7528Z" fill="#545BA8"/>
<path d="M41.108 24.2428C41.1421 24.1985 41.1736 24.1524 41.2024 24.1046H37.117L34.1313 32.3351L41.108 24.2428Z" fill="#545BA8"/>
<path d="M23.3589 24.1046C23.3878 24.1524 23.4193 24.1985 23.4533 24.2428L30.3898 32.3226L27.4088 24.1046H23.3589Z" fill="#545BA8"/>
<path d="M25.4564 35.1744H22.9395C22.8333 35.1744 22.7315 35.2166 22.6564 35.2917C22.5813 35.3668 22.5391 35.4687 22.5391 35.5749V44.1643C22.5391 44.2705 22.5813 44.3724 22.6564 44.4475C22.7315 44.5226 22.8333 44.5648 22.9395 44.5648H25.4564C25.571 44.5648 25.6845 44.5422 25.7904 44.4983C25.8963 44.4545 25.9925 44.3902 26.0736 44.3091C26.1546 44.2281 26.2189 44.1319 26.2628 44.026C26.3066 43.9201 26.3292 43.8066 26.3292 43.6919V36.0473C26.3292 35.8158 26.2372 35.5938 26.0735 35.4301C25.9099 35.2664 25.6879 35.1744 25.4564 35.1744Z" fill="#545BA8"/>
<path d="M41.3623 36.1576C41.225 35.9483 41.0378 35.7766 40.8175 35.6578C40.5972 35.5391 40.3508 35.4772 40.1005 35.4776H39.1144C38.6819 35.4768 38.259 35.6048 37.8996 35.8453C37.5401 36.0858 37.2605 36.4279 37.0962 36.828C37.0054 37.0452 36.8796 37.2462 36.7239 37.4228C36.44 37.882 36.0479 38.2647 35.5821 38.5375C35.1162 38.8104 34.5907 38.9651 34.0513 38.9883H31.1287C30.977 38.9846 30.8327 38.9217 30.7268 38.8131C30.6208 38.7046 30.5615 38.5588 30.5615 38.4071C30.5615 38.2554 30.6208 38.1096 30.7268 38.0011C30.8327 37.8925 30.977 37.8296 31.1287 37.8259H34.0363C34.4808 37.8129 34.9072 37.6472 35.2439 37.3566C35.2056 36.8443 34.9745 36.3656 34.5973 36.0169C34.2201 35.6682 33.7247 35.4754 33.211 35.4774H31.067C30.6691 35.4763 30.2748 35.554 29.907 35.706C29.5391 35.858 29.2051 36.0813 28.924 36.3631L28.8697 36.4169C28.4927 36.7942 28.0135 37.053 27.4912 37.1614V42.9921H35.2297C36.398 42.9929 37.5409 42.6508 38.5166 42.0081C39.4923 41.3654 40.2579 40.4505 40.7185 39.3768L41.4885 37.5844C41.5876 37.3548 41.628 37.1042 41.6059 36.8551C41.5839 36.6059 41.5001 36.3663 41.3623 36.1576Z" fill="#545BA8"/>
</svg>
