<svg width="23" height="20" viewBox="0 0 23 20" fill="none" xmlns="http://www.w3.org/2000/svg">
<g clip-path="url(#clip0_36_505)">
<path d="M18.4824 6.48238C18.2431 6.40029 18.0019 6.32428 17.7587 6.25437C17.7991 6.09056 17.8363 5.92604 17.8706 5.7608C18.4183 3.10178 18.0602 0.959696 16.8371 0.254547C15.6645 -0.42178 13.7466 0.283398 11.8097 1.96896C11.6188 2.13543 11.4323 2.30664 11.25 2.48259C11.128 2.36563 11.0038 2.25096 10.8775 2.13857C8.84754 0.336146 6.81278 -0.423314 5.59101 0.283916C4.41949 0.9621 4.07248 2.97596 4.56564 5.49589C4.6147 5.74544 4.67008 5.99362 4.73179 6.24043C4.44388 6.3222 4.16582 6.40936 3.8998 6.50208C1.51992 7.33178 0 8.63224 0 9.98104C0 11.3742 1.63154 12.7716 4.11049 13.6187C4.3115 13.6871 4.51412 13.7505 4.71834 13.8088C4.65201 14.0746 4.59315 14.3421 4.54175 14.6113C4.07159 17.0875 4.43879 19.0536 5.60723 19.7276C6.81407 20.4235 8.83957 19.7082 10.8119 17.9841C10.9678 17.8478 11.1242 17.7037 11.281 17.5518C11.4784 17.7422 11.6809 17.927 11.8887 18.1062C13.7992 19.7501 15.686 20.414 16.8534 19.7382C18.0592 19.0402 18.4509 16.9281 17.9422 14.3583C17.9034 14.162 17.8585 13.9617 17.8074 13.7574C17.9497 13.7154 18.089 13.6719 18.2254 13.6269C20.8025 12.7732 22.4791 11.3928 22.4791 9.98105C22.4791 8.62737 20.9102 7.31815 18.4824 6.48238ZM12.4401 2.69343C14.0997 1.24909 15.6508 0.678873 16.3575 1.08646C17.1102 1.52061 17.403 3.27123 16.93 5.56704C16.899 5.71659 16.8653 5.86555 16.829 6.01392C15.8387 5.78948 14.8346 5.63085 13.8233 5.53908C13.244 4.70677 12.6092 3.91447 11.9232 3.16757C12.0915 3.00526 12.2639 2.84722 12.4401 2.69343ZM6.6373 11.1333C6.84059 11.5259 7.05302 11.9137 7.2746 12.2964C7.50064 12.6868 7.73589 13.0716 7.98034 13.4509C7.28454 13.3754 6.59308 13.2642 5.90868 13.1178C6.10714 12.4769 6.35168 11.8108 6.6373 11.1333ZM6.63621 8.87478C6.35656 8.21152 6.11731 7.5594 5.92192 6.92967C6.56329 6.78611 7.2472 6.66882 7.95985 6.57978C7.7213 6.95182 7.49159 7.32933 7.27072 7.7123C7.0502 8.09478 6.83869 8.48227 6.63621 8.87478ZM7.14666 10.0041C7.44255 9.38829 7.76126 8.78422 8.10281 8.19193V8.19212C8.44403 7.60013 8.80734 7.02172 9.19276 6.45691C9.86127 6.40637 10.5467 6.37991 11.2396 6.37991C11.9356 6.37991 12.622 6.40657 13.2903 6.45751C13.6716 7.02103 14.0326 7.59747 14.3734 8.18684C14.7159 8.77739 15.0389 9.37861 15.3425 9.9905C15.0422 10.6083 14.7202 11.2148 14.3766 11.8101H14.3765C14.036 12.4016 13.6765 12.9816 13.2981 13.55C12.6311 13.5977 11.9419 13.6223 11.2395 13.6223C10.5401 13.6223 9.85958 13.6005 9.20429 13.558C8.81625 12.9912 8.45005 12.4103 8.10569 11.8153C7.7632 11.224 7.44352 10.6202 7.14665 10.0041H7.14666ZM15.2084 12.2898C15.4345 11.8977 15.6518 11.5006 15.8603 11.0988C16.146 11.7444 16.3979 12.4044 16.6152 13.0762C15.9229 13.2318 15.2229 13.3511 14.5182 13.4336C14.7558 13.057 14.9859 12.6757 15.2084 12.2898H15.2084ZM15.8511 8.87547C15.6434 8.48128 15.4279 8.09137 15.2045 7.70574C14.9847 7.32615 14.7569 6.95143 14.5209 6.58157C15.2382 6.67211 15.9254 6.79248 16.5706 6.93981C16.3635 7.59672 16.1234 8.24276 15.8511 8.87547H15.8511ZM11.2503 3.85431C11.7178 4.364 12.1594 4.89698 12.5731 5.45123C11.688 5.4094 10.8024 5.40921 9.9163 5.45063C10.3531 4.87472 10.8004 4.33969 11.2503 3.85431ZM6.07212 1.11501C6.82423 0.679665 8.48711 1.30044 10.2398 2.85665C10.3518 2.95613 10.4644 3.06029 10.5771 3.16803C9.88714 3.91478 9.24744 4.70643 8.6622 5.53778C7.65331 5.62827 6.65133 5.784 5.66256 6.00398C5.60522 5.77445 5.55372 5.54358 5.50806 5.31137V5.31147C5.08554 3.15234 5.36609 1.52372 6.07212 1.11501ZM4.97601 12.8838C4.78966 12.8305 4.60468 12.7725 4.42109 12.7101C3.46913 12.4106 2.58041 11.9385 1.7993 11.3173C1.57552 11.1638 1.3856 10.966 1.24128 10.7361C1.09697 10.5063 1.00132 10.2493 0.960257 9.98104C0.960257 9.16259 2.18063 8.1185 4.21598 7.40887C4.47145 7.32019 4.72934 7.23905 4.98967 7.16543C5.29189 8.13488 5.65789 9.08328 6.08528 10.0044C5.65252 10.9387 5.28196 11.9006 4.97601 12.8838ZM10.18 17.261C9.445 17.9361 8.592 18.4701 7.66367 18.8364H7.66357C7.41881 18.9535 7.15262 19.0192 6.88146 19.0294C6.6103 19.0396 6.33992 18.9941 6.08705 18.8957C5.37792 18.4868 5.08325 16.908 5.48526 14.7904C5.53307 14.5402 5.5878 14.2914 5.64946 14.0441C6.64814 14.2586 7.66024 14.4051 8.67876 14.4826C9.26905 15.3187 9.91364 16.1151 10.6084 16.8667C10.4688 17.0016 10.326 17.1331 10.18 17.261ZM11.2768 16.1757C10.8217 15.6845 10.3678 15.1413 9.92435 14.557C10.3547 14.574 10.7931 14.5825 11.2395 14.5825C11.6978 14.5825 12.1501 14.5725 12.5965 14.5524C12.1846 15.1156 11.7442 15.6574 11.2768 16.1756V16.1757ZM17.1082 17.5117C17.0875 17.7822 17.0115 18.0457 16.8849 18.2857C16.7583 18.5257 16.5838 18.7372 16.3723 18.9072C15.6638 19.3172 14.1488 18.7842 12.5151 17.3783C12.3277 17.2171 12.1393 17.0453 11.9498 16.8629C12.631 16.1088 13.2605 15.3094 13.834 14.4704C14.8584 14.384 15.8757 14.2272 16.8785 14.0011C16.9243 14.1862 16.9649 14.3674 17.0002 14.5449C17.218 15.5188 17.2546 16.5245 17.1082 17.5117V17.5117ZM17.9235 12.7154H17.9234C17.8005 12.7561 17.6744 12.7954 17.5459 12.8335C17.2315 11.8595 16.8512 10.9081 16.4076 9.98579C16.8344 9.07583 17.1999 8.13832 17.5016 7.17955C17.7315 7.2462 17.9547 7.31638 18.1698 7.39045C20.25 8.10644 21.5189 9.16525 21.5189 9.98102C21.5189 10.85 20.1485 11.9782 17.9235 12.7155V12.7154Z" fill="#61DAFB"/>
<path d="M11.2397 7.97372C11.6367 7.97371 12.0248 8.09144 12.355 8.312C12.6851 8.53257 12.9424 8.84607 13.0943 9.21287C13.2462 9.57966 13.286 9.98328 13.2085 10.3727C13.1311 10.7621 12.9399 11.1197 12.6592 11.4005C12.3784 11.6812 12.0208 11.8724 11.6314 11.9498C11.242 12.0273 10.8384 11.9875 10.4716 11.8356C10.1048 11.6837 9.79127 11.4264 9.5707 11.0963C9.35013 10.7661 9.23241 10.378 9.23242 9.98102C9.23242 9.44865 9.4439 8.93809 9.82034 8.56165C10.1968 8.18521 10.7073 7.97372 11.2397 7.97372Z" fill="#61DAFB"/>
</g>
<defs>
<clipPath id="clip0_36_505">
<rect width="22.4791" height="20" fill="white"/>
</clipPath>
</defs>
</svg>
