<svg width="40" height="40" viewBox="0 0 40 40" fill="none" xmlns="http://www.w3.org/2000/svg">
<circle cx="20" cy="20" r="20" fill="#DAF6FF"/>
<g clip-path="url(#clip0_260_2079)">
<path d="M27.4824 16.4824C27.2431 16.4003 27.0019 16.3243 26.7587 16.2544C26.7991 16.0906 26.8363 15.926 26.8706 15.7608C27.4183 13.1018 27.0602 10.9597 25.8371 10.2545C24.6645 9.57822 22.7466 10.2834 20.8097 11.969C20.6188 12.1354 20.4323 12.3066 20.25 12.4826C20.128 12.3656 20.0038 12.251 19.8775 12.1386C17.8475 10.3361 15.8128 9.57669 14.591 10.2839C13.4195 10.9621 13.0725 12.976 13.5656 15.4959C13.6147 15.7454 13.6701 15.9936 13.7318 16.2404C13.4439 16.3222 13.1658 16.4094 12.8998 16.5021C10.5199 17.3318 9 18.6322 9 19.981C9 21.3742 10.6315 22.7716 13.1105 23.6187C13.3115 23.6871 13.5141 23.7505 13.7183 23.8088C13.652 24.0746 13.5932 24.3421 13.5417 24.6113C13.0716 27.0875 13.4388 29.0536 14.6072 29.7276C15.8141 30.4235 17.8396 29.7082 19.8119 27.9841C19.9678 27.8478 20.1242 27.7037 20.281 27.5518C20.4784 27.7422 20.6809 27.927 20.8887 28.1062C22.7992 29.7501 24.686 30.414 25.8534 29.7382C27.0592 29.0402 27.4509 26.9281 26.9422 24.3583C26.9034 24.162 26.8585 23.9617 26.8074 23.7574C26.9497 23.7154 27.089 23.6719 27.2254 23.6269C29.8025 22.7732 31.4791 21.3928 31.4791 19.9811C31.4791 18.6274 29.9102 17.3182 27.4824 16.4824ZM21.4401 12.6934C23.0997 11.2491 24.6508 10.6789 25.3575 11.0865C26.1102 11.5206 26.403 13.2712 25.93 15.567C25.899 15.7166 25.8653 15.8656 25.829 16.0139C24.8387 15.7895 23.8346 15.6309 22.8233 15.5391C22.244 14.7068 21.6092 13.9145 20.9232 13.1676C21.0915 13.0053 21.2639 12.8472 21.4401 12.6934ZM15.6373 21.1333C15.8406 21.5259 16.053 21.9137 16.2746 22.2964C16.5006 22.6868 16.7359 23.0716 16.9803 23.4509C16.2845 23.3754 15.5931 23.2642 14.9087 23.1178C15.1071 22.4769 15.3517 21.8108 15.6373 21.1333ZM15.6362 18.8748C15.3566 18.2115 15.1173 17.5594 14.9219 16.9297C15.5633 16.7861 16.2472 16.6688 16.9598 16.5798C16.7213 16.9518 16.4916 17.3293 16.2707 17.7123C16.0502 18.0948 15.8387 18.4823 15.6362 18.8748ZM16.1467 20.0041C16.4425 19.3883 16.7613 18.7842 17.1028 18.1919V18.1921C17.444 17.6001 17.8073 17.0217 18.1928 16.4569C18.8613 16.4064 19.5467 16.3799 20.2396 16.3799C20.9356 16.3799 21.622 16.4066 22.2903 16.4575C22.6716 17.021 23.0326 17.5975 23.3734 18.1868C23.7159 18.7774 24.0389 19.3786 24.3425 19.9905C24.0422 20.6083 23.7202 21.2148 23.3766 21.8101H23.3765C23.036 22.4016 22.6765 22.9816 22.2981 23.55C21.6311 23.5977 20.9419 23.6223 20.2395 23.6223C19.5401 23.6223 18.8596 23.6005 18.2043 23.558C17.8162 22.9912 17.45 22.4103 17.1057 21.8153C16.7632 21.224 16.4435 20.6202 16.1467 20.0041H16.1467ZM24.2084 22.2898C24.4345 21.8977 24.6518 21.5006 24.8603 21.0988C25.146 21.7444 25.3979 22.4044 25.6152 23.0762C24.9229 23.2318 24.2229 23.3511 23.5182 23.4336C23.7558 23.057 23.9859 22.6757 24.2084 22.2898H24.2084ZM24.8511 18.8755C24.6434 18.4813 24.4279 18.0914 24.2045 17.7057C23.9847 17.3262 23.7569 16.9514 23.5209 16.5816C24.2382 16.6721 24.9254 16.7925 25.5706 16.9398C25.3635 17.5967 25.1234 18.2428 24.8511 18.8755H24.8511ZM20.2503 13.8543C20.7178 14.364 21.1594 14.897 21.5731 15.4512C20.688 15.4094 19.8024 15.4092 18.9163 15.4506C19.3531 14.8747 19.8004 14.3397 20.2503 13.8543ZM15.0721 11.115C15.8242 10.6797 17.4871 11.3004 19.2398 12.8566C19.3518 12.9561 19.4644 13.0603 19.5771 13.168C18.8871 13.9148 18.2474 14.7064 17.6622 15.5378C16.6533 15.6283 15.6513 15.784 14.6626 16.004C14.6052 15.7744 14.5537 15.5436 14.5081 15.3114V15.3115C14.0855 13.1523 14.3661 11.5237 15.0721 11.115ZM13.976 22.8838C13.7897 22.8305 13.6047 22.7725 13.4211 22.7101C12.4691 22.4106 11.5804 21.9385 10.7993 21.3173C10.5755 21.1638 10.3856 20.966 10.2413 20.7361C10.097 20.5063 10.0013 20.2493 9.96026 19.981C9.96026 19.1626 11.1806 18.1185 13.216 17.4089C13.4714 17.3202 13.7293 17.239 13.9897 17.1654C14.2919 18.1349 14.6579 19.0833 15.0853 20.0044C14.6525 20.9387 14.282 21.9006 13.976 22.8838ZM19.18 27.261C18.445 27.9361 17.592 28.4701 16.6637 28.8364H16.6636C16.4188 28.9535 16.1526 29.0192 15.8815 29.0294C15.6103 29.0396 15.3399 28.9941 15.087 28.8957C14.3779 28.4868 14.0833 26.908 14.4853 24.7904C14.5331 24.5402 14.5878 24.2914 14.6495 24.0441C15.6481 24.2586 16.6602 24.4051 17.6788 24.4826C18.2691 25.3187 18.9136 26.1151 19.6084 26.8667C19.4688 27.0016 19.326 27.1331 19.18 27.261ZM20.2768 26.1757C19.8217 25.6845 19.3678 25.1413 18.9244 24.557C19.3547 24.574 19.7931 24.5825 20.2395 24.5825C20.6978 24.5825 21.1501 24.5725 21.5965 24.5524C21.1846 25.1156 20.7442 25.6574 20.2768 26.1756V26.1757ZM26.1082 27.5117C26.0875 27.7822 26.0115 28.0457 25.8849 28.2857C25.7583 28.5257 25.5838 28.7372 25.3723 28.9072C24.6638 29.3172 23.1488 28.7842 21.5151 27.3783C21.3277 27.2171 21.1393 27.0453 20.9498 26.8629C21.631 26.1088 22.2605 25.3094 22.834 24.4704C23.8584 24.384 24.8757 24.2272 25.8785 24.0011C25.9243 24.1862 25.9649 24.3674 26.0002 24.5449C26.218 25.5188 26.2546 26.5245 26.1082 27.5117V27.5117ZM26.9235 22.7154H26.9234C26.8005 22.7561 26.6744 22.7954 26.5459 22.8335C26.2315 21.8595 25.8512 20.9081 25.4076 19.9858C25.8344 19.0758 26.1999 18.1383 26.5016 17.1795C26.7315 17.2462 26.9547 17.3164 27.1698 17.3904C29.25 18.1064 30.5189 19.1652 30.5189 19.981C30.5189 20.85 29.1485 21.9782 26.9235 22.7155V22.7154Z" fill="#61DAFB"/>
<path d="M20.2397 17.9736C20.6367 17.9736 21.0248 18.0913 21.355 18.3119C21.6851 18.5325 21.9424 18.846 22.0943 19.2128C22.2462 19.5796 22.286 19.9832 22.2085 20.3726C22.1311 20.762 21.9399 21.1196 21.6592 21.4004C21.3784 21.6811 21.0208 21.8723 20.6314 21.9497C20.242 22.0272 19.8384 21.9874 19.4716 21.8355C19.1048 21.6836 18.7913 21.4263 18.5707 21.0962C18.3501 20.7661 18.2324 20.3779 18.2324 19.9809C18.2324 19.4486 18.4439 18.938 18.8203 18.5616C19.1968 18.1851 19.7073 17.9736 20.2397 17.9736Z" fill="#61DAFB"/>
</g>
<defs>
<clipPath id="clip0_260_2079">
<rect width="22.4791" height="20" fill="white" transform="translate(9 10)"/>
</clipPath>
</defs>
</svg>
