<svg width="40" height="40" viewBox="0 0 40 40" fill="none" xmlns="http://www.w3.org/2000/svg">
<circle cx="20" cy="20" r="20" fill="#FAEDE4"/>
<g clip-path="url(#clip0_265_2548)">
<path d="M18.974 23.8904H20.3604V20.1091H23.8476V18.7647H20.3604V14.9834H18.974V18.7647H15.5288V20.1091H18.974V23.8904Z" fill="#E8762D"/>
<path d="M12.546 29.3522H13.7224V25.9911H16.8315V24.9407H13.7224V21.5376H12.546V24.9407H9.43701V25.9911H12.546V29.3522Z" fill="#C72037"/>
<path d="M25.612 17.2103H26.7884V13.8492H29.9394V12.8409H26.7884V9.43774H25.612V12.8409H22.5029V13.8492H25.612V17.2103Z" fill="#5B879B"/>
<path d="M19.1842 31.999H20.1925V29.6042H22.3352V28.7219H20.1925V26.3271H19.1842V28.7219H17.0835V29.6042H19.1842V31.999Z" fill="#5C6692"/>
<path d="M12.5881 17.2103H13.6804V13.8072H16.8315V12.8409H13.6804V9.43774H12.5881V12.8409H9.43701V13.8072H12.5881V17.2103Z" fill="#EB9129"/>
<path d="M29.1832 22.2519H30.1916V19.8992H32.3343V18.9749H30.1916V16.6221H29.1832V18.9749H27.0825V19.8992H29.1832V22.2519Z" fill="#5C6692"/>
<path fill-rule="evenodd" clip-rule="evenodd" d="M25.612 29.3522H26.7884V25.9911H29.9394V24.9407H26.7884V21.5376H25.612V24.9407H22.5029V25.9911H25.612V29.3522Z" fill="#1F457E"/>
<path d="M22.167 10.026V9.31174H20.0663V7.00098H19.3101V9.31174H17.2094V10.026H19.3101V12.3367H20.0663V10.026H22.167ZM9.1007 22.084H9.85695V19.7732H11.9576V19.059H9.85695V16.7902H9.1007V19.059H7V19.8152L9.1007 19.7732V22.084Z" fill="#7199A6"/>
</g>
<defs>
<clipPath id="clip0_265_2548">
<rect width="25.3344" height="25" fill="white" transform="translate(7 7)"/>
</clipPath>
</defs>
</svg>
