<svg width="20" height="17" viewBox="0 0 20 17" fill="none" xmlns="http://www.w3.org/2000/svg">
<path d="M19.5556 2.43666C18.8283 2.75566 18.0534 2.96711 17.2456 3.06978C18.0767 2.57355 18.711 1.79378 19.0092 0.853886C18.2343 1.31589 17.3788 1.64222 16.467 1.82433C15.7312 1.04089 14.6826 0.555664 13.5386 0.555664C11.319 0.555664 9.53211 2.35722 9.53211 4.56578C9.53211 4.88355 9.559 5.18911 9.625 5.48C6.292 5.31744 3.34278 3.72 1.36156 1.28655C1.01567 1.88666 0.812778 2.57355 0.812778 3.313C0.812778 4.70144 1.52778 5.93222 2.59356 6.64478C1.94944 6.63255 1.31756 6.44555 0.782222 6.151C0.782222 6.16322 0.782222 6.17911 0.782222 6.195C0.782222 8.14322 2.17189 9.76144 3.99422 10.1342C3.66789 10.2234 3.31222 10.2662 2.94311 10.2662C2.68644 10.2662 2.42733 10.2516 2.18411 10.1978C2.70356 11.7854 4.17756 12.9527 5.93022 12.9906C4.56622 14.0576 2.83433 14.7004 0.959444 14.7004C0.630667 14.7004 0.315333 14.6858 0 14.6454C1.77589 15.7907 3.88056 16.4446 6.15022 16.4446C13.5276 16.4446 17.5609 10.3334 17.5609 5.03633C17.5609 4.85911 17.5548 4.688 17.5462 4.51811C18.3419 3.95344 19.0104 3.24822 19.5556 2.43666Z" fill="white"/>
</svg>
