<svg width="62" height="56" viewBox="0 0 62 56" fill="none" xmlns="http://www.w3.org/2000/svg">
<path d="M38.5128 0L22.7481 0C22.2213 0 21.7992 0.437389 21.7877 0.981063C21.4693 16.2632 13.7236 30.7676 0.391834 41.0413C-0.0314292 41.3674 -0.127858 41.9801 0.181586 42.4214L9.40525 55.5862C9.71905 56.0342 10.3304 56.1353 10.7608 55.8062C19.0968 49.4244 25.8018 41.7256 30.6304 33.1924C35.459 41.7256 42.1644 49.4244 50.5005 55.8062C50.9304 56.1353 51.5419 56.0342 51.8562 55.5862L61.0798 42.4214C61.3887 41.9801 61.2923 41.3674 60.8695 41.0413C47.5373 30.7676 39.7917 16.2632 39.4736 0.981063C39.4621 0.437389 39.0396 0 38.5128 0Z" fill="white"/>
</svg>
