<svg width="44" height="44" viewBox="0 0 44 44" fill="none" xmlns="http://www.w3.org/2000/svg">
<path fill-rule="evenodd" clip-rule="evenodd" d="M10.8781 43.5125V13.6003C6.15522 14.406 2.14471 17.4478 0 21.6708V32.6343C0 38.6421 4.8703 43.5125 10.8781 43.5125ZM0 17.1489V10.8781C0 4.8703 4.8703 0 10.8781 0H21.8417C26.0646 2.14471 29.1064 6.15522 29.9121 10.8781H13.3884C12.5367 10.8781 11.6985 10.9396 10.8781 11.0584C6.54942 11.686 2.71615 13.9129 0 17.1489ZM26.3636 0C29.5995 2.71615 31.8265 6.54943 32.4539 10.8781C32.5728 11.6985 32.6343 12.5367 32.6343 13.3884V29.9121C37.3572 29.1064 41.3677 26.0646 43.5124 21.8417V10.8781C43.5124 4.8703 38.6421 0 32.6343 0H26.3636ZM43.5124 26.3636V32.6343C43.5124 38.6421 38.6421 43.5125 32.6343 43.5125H13.3884L21.7562 32.6343H30.1239C30.9758 32.6343 31.8139 32.5729 32.6343 32.4539C36.963 31.8265 40.7963 29.5995 43.5124 26.3636Z" fill="white"/>
</svg>
