<svg width="41" height="52" viewBox="0 0 41 52" fill="none" xmlns="http://www.w3.org/2000/svg">
<path d="M30.2846 1.04189L39.236 6.50697C39.7832 6.83908 40.1149 7.43092 40.1149 8.05893V32.2865C40.1149 43.3555 30.7887 52.3232 19.4528 51.991C8.54006 51.671 0 42.5887 0 31.8638L0 22.6486C0 21.6341 0.835723 20.8188 1.8621 20.8128H7.77875C9.18516 20.8128 9.7075 19.0073 8.51526 18.2766L6.33454 16.9479L0.878815 13.6146C0.331679 13.2824 0 12.6967 0 12.0626L0 2.59986C0 1.16265 1.60354 0.287047 2.84408 1.04189L11.7968 6.50697C12.3439 6.83908 12.6756 7.42483 12.6756 8.05893V32.0752C12.6756 35.8495 15.5197 39.1526 19.3418 39.5089C23.728 39.9135 27.434 36.5196 27.434 32.2865V22.6366C27.434 21.6281 28.2685 20.8068 29.2948 20.8068H35.2179C36.6244 20.8068 37.1468 19.0011 35.9558 18.2705L33.7738 16.9419L28.3181 13.6085C27.7709 13.2764 27.4392 12.6906 27.4392 12.0566V2.59385C27.4392 1.16265 29.0428 0.287047 30.2846 1.04189Z" fill="white"/>
</svg>
