<svg width="205" height="52" viewBox="0 0 205 52" fill="none" xmlns="http://www.w3.org/2000/svg">
<path fill-rule="evenodd" clip-rule="evenodd" d="M57.1113 50.6862V0L77.7693 0C82.4244 0 86.1307 1.26922 88.8845 3.80775C91.6631 6.34629 93.0527 9.78278 93.0527 14.1174C93.0527 16.0094 92.4792 17.8414 91.3345 19.6136C90.2123 21.3618 88.4338 22.6908 85.9958 23.6008C89.1407 24.3912 91.5538 25.9358 93.2359 28.2349C94.9172 30.5098 95.7583 32.821 95.7583 35.1679C95.7583 39.5024 94.2472 43.1785 91.2245 46.196C88.2265 49.1894 84.2406 50.6862 79.2682 50.6862H57.1113ZM68.1166 41.2028H78.6834C80.4137 41.2028 81.7665 40.5801 82.7417 39.3348C83.7176 38.0657 84.2045 36.6048 84.2045 34.9523C84.2045 33.3718 83.6927 31.9707 82.6686 30.7494C81.67 29.528 80.2675 28.9174 78.4641 28.9174H68.1166V41.2028ZM68.1166 20.0086H76.7089C78.1235 20.0086 79.2803 19.5177 80.1824 18.5359C81.0852 17.5541 81.5351 16.3086 81.5351 14.8C81.5351 13.1715 81.1086 11.8783 80.2555 10.9204C79.4265 9.96237 78.2199 9.48344 76.6358 9.48344H68.1166V20.0086Z" fill="white"/>
<path fill-rule="evenodd" clip-rule="evenodd" d="M110.138 50.6862V0L130.357 0C135.183 0 139.376 1.12554 142.935 3.37668C146.494 5.62785 149.162 8.66923 150.942 12.501C152.746 16.3086 153.648 20.6313 153.648 25.4688C153.648 30.2824 152.746 34.5811 150.942 38.3649C149.162 42.1249 146.494 45.1183 142.935 47.3456C139.376 49.5726 135.183 50.6862 130.357 50.6862H110.138ZM121.07 40.9154H130.357C132.99 40.9154 135.257 40.197 137.158 38.76C139.084 37.3232 140.485 35.4672 141.363 33.1921C142.265 30.8931 142.716 28.3188 142.716 25.4688C142.716 22.5951 142.265 19.9968 141.363 17.6737C140.485 15.3507 139.084 13.4589 137.158 11.9981C135.257 10.5133 132.99 9.77088 130.357 9.77088H121.07V40.9154Z" fill="white"/>
<path d="M168.43 0V50.6862H179.363V0L168.43 0Z" fill="white"/>
<path d="M30.2846 1.04191L39.236 6.50698C39.7832 6.8391 40.1149 7.43094 40.1149 8.05895V32.2865C40.1149 43.3555 30.7887 52.3232 19.4528 51.991C8.54006 51.671 0 42.5887 0 31.8638L0 22.6486C0 21.6341 0.835723 20.8188 1.8621 20.8128H7.77875C9.18516 20.8128 9.7075 19.0073 8.51526 18.2766L6.33454 16.9479L0.878815 13.6146C0.331679 13.2825 0 12.6967 0 12.0626L0 2.59987C0 1.16267 1.60354 0.287062 2.84408 1.04191L11.7968 6.50698C12.3439 6.8391 12.6756 7.42484 12.6756 8.05895V32.0753C12.6756 35.8495 15.5197 39.1526 19.3418 39.5089C23.728 39.9135 27.434 36.5196 27.434 32.2865V22.6366C27.434 21.6281 28.2685 20.8069 29.2948 20.8069H35.2179C36.6244 20.8069 37.1468 19.0011 35.9558 18.2705L33.7738 16.9419L28.3181 13.6086C27.7709 13.2764 27.4392 12.6906 27.4392 12.0566V2.59387C27.4392 1.16267 29.0428 0.287062 30.2846 1.04191Z" fill="white"/>
<path d="M197.514 50.6586C196.431 50.6586 195.43 50.3933 194.513 49.8627C193.607 49.3211 192.883 48.5972 192.341 47.6908C191.811 46.7734 191.545 45.773 191.545 44.6899C191.545 43.6067 191.811 42.6119 192.341 41.7055C192.883 40.7881 193.607 40.0641 194.513 39.5336C195.43 38.9919 196.431 38.7212 197.514 38.7212C198.597 38.7212 199.592 38.9919 200.498 39.5336C201.416 40.0641 202.14 40.7881 202.67 41.7055C203.212 42.6119 203.483 43.6067 203.483 44.6899C203.483 45.773 203.212 46.7734 202.67 47.6908C202.14 48.5972 201.416 49.3211 200.498 49.8627C199.592 50.3933 198.597 50.6586 197.514 50.6586ZM197.514 49.614C198.398 49.614 199.211 49.393 199.951 48.9508C200.692 48.4977 201.278 47.8952 201.709 47.1437C202.151 46.3921 202.372 45.5741 202.372 44.6899C202.372 43.8056 202.151 42.9876 201.709 42.2361C201.278 41.4734 200.686 40.871 199.935 40.4289C199.194 39.9757 198.388 39.7491 197.514 39.7491C196.641 39.7491 195.828 39.9757 195.077 40.4289C194.336 40.871 193.751 41.4734 193.319 42.2361C192.888 42.9876 192.673 43.8056 192.673 44.6899C192.673 45.5741 192.888 46.3921 193.319 47.1437C193.751 47.8952 194.336 48.4977 195.077 48.9508C195.828 49.393 196.641 49.614 197.514 49.614ZM195.591 47.7074C195.48 47.7074 195.392 47.6742 195.326 47.6079C195.259 47.5416 195.226 47.4532 195.226 47.3426V42.0039C195.226 41.8934 195.259 41.805 195.326 41.7387C195.392 41.6723 195.48 41.6392 195.591 41.6392H197.763C198.459 41.6392 199.023 41.7995 199.454 42.12C199.885 42.4295 200.101 42.9213 200.101 43.5956C200.101 44.0156 199.996 44.3748 199.786 44.6733C199.587 44.9606 199.31 45.1762 198.957 45.3199L200.018 47.1105C200.062 47.1768 200.084 47.2542 200.084 47.3426C200.084 47.4421 200.051 47.5305 199.984 47.6079C199.929 47.6742 199.841 47.7074 199.719 47.7074H199.272C199.061 47.7074 198.902 47.6024 198.791 47.3923L197.713 45.552H196.453V47.3426C196.453 47.4532 196.42 47.5416 196.354 47.6079C196.287 47.6742 196.199 47.7074 196.088 47.7074H195.591ZM197.73 44.4577C198.481 44.4577 198.857 44.1704 198.857 43.5956C198.857 43.0098 198.481 42.7169 197.73 42.7169H196.453V44.4577H197.73Z" fill="white"/>
</svg>
