<svg width="206" height="56" viewBox="0 0 206 56" fill="none" xmlns="http://www.w3.org/2000/svg">
<path d="M38.5128 0L22.7481 0C22.2213 0 21.7992 0.437389 21.7877 0.981063C21.4693 16.2632 13.7236 30.7676 0.391834 41.0413C-0.0314292 41.3674 -0.127858 41.9801 0.181586 42.4214L9.40525 55.5862C9.71905 56.0342 10.3304 56.1353 10.7608 55.8062C19.0968 49.4244 25.8018 41.7256 30.6304 33.1924C35.459 41.7256 42.1644 49.4244 50.5005 55.8062C50.9304 56.1353 51.5419 56.0342 51.8562 55.5862L61.0798 42.4214C61.3887 41.9801 61.2923 41.3674 60.8695 41.0413C47.5373 30.7676 39.7917 16.2632 39.4736 0.981063C39.4621 0.437389 39.0396 0 38.5128 0Z" fill="white"/>
<g clip-path="url(#clip0_47_487)">
<path d="M204.716 12.8214H199.901V7.01996C199.901 6.71259 199.764 6.42903 199.524 6.24164C199.292 6.05964 198.995 5.99493 198.712 6.06593L194.475 7.1085C194.041 7.21545 193.739 7.60775 193.739 8.06298V12.8214H191.324C190.791 12.8214 190.357 13.2636 190.357 13.8074V17.3184C190.357 17.8621 190.791 18.3048 191.325 18.3048H193.739V32.4696C193.793 38.4908 197.646 39.3204 201.801 39.3204C202.211 39.3204 202.622 39.3087 203.039 39.2962C203.461 39.2836 203.888 39.2705 204.328 39.2705L204.377 39.2673C204.943 39.1946 205.294 38.7987 205.294 38.2343V34.472C205.294 33.9283 204.861 33.4866 204.328 33.4866H202.87C200.761 33.4866 199.901 32.5513 199.901 30.2591V18.3048H204.716C205.25 18.3048 205.683 17.8621 205.683 17.3184V13.8074C205.683 13.2636 205.25 12.8214 204.716 12.8214Z" fill="white"/>
<path d="M178.812 12.4201C176.29 12.4201 174.314 13.1971 172.928 14.7308V13.8073C172.928 13.2452 172.512 12.8214 171.96 12.8214H167.49C166.938 12.8214 166.522 13.2452 166.522 13.8073V38.2341C166.522 38.7964 166.938 39.2206 167.49 39.2206H171.96C172.512 39.2206 172.928 38.7964 172.928 38.2341V22.9359C172.928 20.1058 174.648 18.2041 177.209 18.2041C179.779 18.2041 181.44 20.0811 181.44 22.9858V38.2341C181.44 38.7964 181.856 39.2206 182.407 39.2206H186.878C187.429 39.2206 187.845 38.7964 187.845 38.2341V21.7825C187.845 16.0951 184.3 12.4201 178.812 12.4201Z" fill="white"/>
<path d="M156.27 23.4044H146.756C146.811 22.5654 146.919 21.9794 147.111 21.4658L147.12 21.4393C147.74 19.3227 149.225 18.2042 151.416 18.2042C153.775 18.2042 155.446 19.4872 156.007 21.7503C156.126 22.117 156.219 22.7084 156.27 23.4044ZM151.416 12.4203C146.223 12.4203 142.289 15.3556 140.893 20.2637C140.435 21.7287 140.239 23.5573 140.293 25.8451C140.293 28.6581 140.668 30.9221 141.436 32.7564C143.137 37.1158 146.851 39.5722 151.897 39.6714C151.959 39.6723 152.021 39.6729 152.083 39.6729C156.283 39.6729 159.886 37.936 161.992 34.8811C162.29 34.4191 162.213 33.9566 161.772 33.5779L158.761 31.0218C158.481 30.7805 158.22 30.7581 158.05 30.7779C157.87 30.8012 157.606 30.901 157.367 31.246C156.169 32.9991 154.51 33.8875 152.442 33.8875C149.621 33.8422 147.83 32.7003 147.103 30.4557C146.889 29.9693 146.795 29.2631 146.712 28.4869H161.766C162.343 28.4869 162.731 28.0932 162.734 27.5064C162.784 25.8113 162.777 24.4803 162.585 23.093C161.769 16.0108 158.011 12.4203 151.416 12.4203Z" fill="white"/>
<path d="M130.093 25.7957C130.093 28.5615 129.989 29.2753 129.765 30.1519C129.257 32.2515 127.717 33.4558 125.541 33.4558C123.389 33.4558 121.717 32.1934 121.058 30.0541C120.85 29.5148 120.601 28.3476 120.601 25.8456C120.601 23.8683 120.776 22.5175 121.162 21.5697C121.873 19.4194 123.452 18.1859 125.492 18.1859C127.653 18.1859 129.232 19.4383 129.721 21.5562C129.986 22.4667 130.093 23.1047 130.093 25.7957ZM135.512 12.8212H131.059C130.508 12.8212 130.093 13.2441 130.093 13.8049V14.4677C128.615 13.0917 126.692 12.4217 124.234 12.4217C119.883 12.4217 116.331 15.0892 114.965 19.3736C114.259 21.3909 114.169 23.8922 114.169 25.8456C114.169 28.4097 114.373 30.3623 114.815 32.0016C116.354 37.1398 120.865 38.9701 124.572 38.9701C126.883 38.9701 128.739 38.3185 130.093 37.0369C130.067 39.184 129.505 40.7294 128.375 41.7581C126.894 43.1048 124.389 43.5892 120.68 43.2414C119.721 43.2414 119.618 43.8939 119.618 44.1609L119.473 48.2718C119.473 48.847 119.797 49.2322 120.349 49.304C121.268 49.3988 122.162 49.4464 123.024 49.4464C127.174 49.4464 130.629 48.3559 132.925 46.2869C135.282 44.1623 136.476 41.0504 136.476 37.0374V13.8049C136.476 13.2441 136.061 12.8212 135.512 12.8212Z" fill="white"/>
<path d="M111.998 12.9248C111.319 12.6529 110.57 12.5208 109.71 12.5208C107.423 12.5208 105.562 13.4501 104.165 15.2853V13.8078C104.165 13.264 103.731 12.8214 103.198 12.8214H98.7272C98.1936 12.8214 97.7598 13.2636 97.7598 13.8073V38.2341C97.7598 38.778 98.1941 39.2206 98.7275 39.2206H103.198C103.731 39.2206 104.165 38.778 104.165 38.2341V24.0397C104.165 20.9794 106.375 19.4825 108.597 19.354C109.368 19.2457 109.804 19.2812 110.297 19.3787C110.846 19.4875 111.364 19.1504 111.487 18.6107L112.673 14.2531C112.793 13.6986 112.503 13.1274 111.998 12.9248Z" fill="white"/>
<path d="M86.846 27.7845V30.0086C86.846 32.6568 84.1014 34.239 81.4476 34.239C79.6605 34.239 77.7501 33.457 77.7501 31.2623C77.7501 29.0523 79.629 27.7845 82.9053 27.7845H86.846ZM82.6141 12.4203C77.6751 12.4203 73.7326 14.6834 72.5702 18.1863C72.4714 18.4842 72.5055 18.8078 72.6633 19.0747C72.8112 19.3246 73.0557 19.4985 73.3362 19.5538L77.7425 20.6592C78.2041 20.7442 78.6635 20.4965 78.8411 20.0705C79.3449 18.8671 80.7361 18.2043 82.7597 18.2043C85.4328 18.2043 86.846 19.4935 86.846 21.9332V23.0037H81.7879C75.2186 23.0037 71.2964 26.241 71.2964 31.6641C71.2964 37.5312 75.8129 39.6217 80.0389 39.6217C82.8734 39.6217 85.2162 38.7787 86.846 37.1843V38.2345C86.846 38.7782 87.2802 39.2203 87.8137 39.2203H92.2835C92.817 39.2203 93.2511 38.7782 93.2511 38.2345V21.3315C93.2511 16.0846 88.8772 12.4203 82.6141 12.4203Z" fill="white"/>
</g>
<defs>
<clipPath id="clip0_47_487">
<rect width="134.462" height="46" fill="white" transform="translate(71.2222 5)"/>
</clipPath>
</defs>
</svg>
