<svg width="277" height="45" viewBox="0 0 277 45" fill="none" xmlns="http://www.w3.org/2000/svg">
<g clip-path="url(#clip0_47_539)">
<path fill-rule="evenodd" clip-rule="evenodd" d="M70.6883 7.53088H58.5747V36.3701H65.7851V29.7372H69.5345C77.5141 29.7372 82.4173 26.1802 82.4173 18.2975C82.4173 15.2214 81.4558 12.6259 79.6291 10.607C77.7063 8.58841 74.7261 7.53088 70.6883 7.53088ZM68.7656 23.8731H65.7851V13.6832H69.4385C73.1878 13.6832 74.7261 15.8942 74.7261 18.8743C74.8221 21.7583 72.8993 23.8731 68.7656 23.8731Z" fill="white"/>
<path d="M92.3193 7.53088H85.2051V36.3701H92.3193V7.53088Z" fill="white"/>
<path fill-rule="evenodd" clip-rule="evenodd" d="M106.452 13.6832C108.374 13.6832 110.297 14.1638 112.22 15.2213V14.1638H119.334V36.4662H112.22V35.1204C110.393 36.1778 108.47 36.7546 106.452 36.7546C103.087 36.7546 100.395 35.601 98.4721 33.2938C96.5494 30.9867 95.5879 28.295 95.5879 25.2189C95.5879 22.1428 96.5494 19.3548 98.4721 17.144C100.395 14.8367 103.087 13.6832 106.452 13.6832ZM107.797 30.6022C109.528 30.6022 110.97 30.1217 112.22 29.0641V21.5658C111.066 20.5085 109.528 20.0279 107.797 20.0279C106.163 20.0279 104.817 20.5085 103.856 21.5658C102.894 22.6233 102.414 23.8731 102.414 25.3151C102.414 26.7571 102.894 28.0066 103.856 29.0641C104.817 30.0254 106.163 30.6022 107.797 30.6022Z" fill="white"/>
<path d="M133.467 27.7184H133.275L128.564 14.2601H121.162L129.429 36.7546C128.372 38.2927 126.449 39.0618 123.661 39.0618H122.987L122.026 44.2528C122.7 44.2528 123.95 44.349 125.872 44.349C128.18 44.349 130.295 43.7722 132.313 42.6187C134.332 41.4651 135.774 39.8309 136.543 37.8121L145.676 14.3562H138.466L133.467 27.7184Z" fill="white"/>
<path d="M167.02 16.3749C169.039 14.6444 171.25 13.7794 173.653 13.7794C177.114 13.7794 179.517 14.5485 180.959 16.1826C182.402 17.8168 183.171 20.4123 183.171 24.1615V36.3701H176.057V24.0654C176.057 21.1814 174.999 19.9316 172.307 19.9316C170.961 19.9316 169.808 20.4123 168.75 21.2776C168.846 21.7583 168.942 22.7196 168.942 24.2576V36.4664H161.923V24.1615C161.923 21.2776 160.962 20.0279 158.366 20.0279C156.828 20.0279 155.578 20.5085 154.617 21.3737V36.4664H147.599V14.1638H154.617V15.1251C156.155 14.2601 157.791 13.7794 159.616 13.7794C163.174 13.7794 165.578 14.6444 167.02 16.3749Z" fill="white"/>
<path fill-rule="evenodd" clip-rule="evenodd" d="M202.782 15.2213C200.86 14.1638 198.937 13.6832 197.014 13.6832C193.65 13.6832 190.958 14.8367 189.035 17.144C187.112 19.3548 186.151 22.1428 186.151 25.2189C186.151 28.295 187.112 30.9867 189.035 33.2938C190.958 35.601 193.65 36.7546 197.014 36.7546C199.033 36.7546 200.956 36.1778 202.782 35.1204V36.4662H209.897V14.1638H202.782V15.2213ZM202.782 29.0641C201.533 30.1217 200.091 30.6022 198.36 30.6022C196.726 30.6022 195.38 30.0254 194.419 29.0641C193.457 28.0066 192.977 26.7571 192.977 25.3151C192.977 23.8731 193.457 22.6233 194.419 21.5658C195.38 20.5085 196.726 20.0279 198.36 20.0279C200.091 20.0279 201.629 20.5085 202.782 21.5658V29.0641Z" fill="white"/>
<path d="M228.163 14.1639H236.335L228.548 22.9119L236.527 36.4664H228.74L223.933 28.3912L221.049 31.2752V36.4664H214.031V7.53088H221.049V21.8542L228.163 14.1639Z" fill="white"/>
<path fill-rule="evenodd" clip-rule="evenodd" d="M247.679 13.7794C244.41 13.7794 241.622 14.8369 239.411 17.144C237.2 19.355 236.143 22.1428 236.143 25.3151C236.143 28.5835 237.2 31.2752 239.411 33.4862C241.622 35.6973 244.314 36.7546 247.679 36.7546C252.102 36.7546 255.659 35.0244 257.774 32.0443L253.351 28.3912C252.295 30.0254 250.18 31.0829 248.352 31.0829C245.852 31.0829 244.026 29.7372 243.161 27.2377H258.351V25.6995C258.351 22.1428 257.39 19.2588 255.467 17.0477C253.64 14.8369 251.045 13.7794 247.679 13.7794ZM243.257 23.2003C243.833 20.893 245.468 19.2588 247.679 19.2588C250.755 19.2588 251.814 21.1814 251.814 23.2003H243.257Z" fill="white"/>
<path d="M268.638 16.6633C270.369 14.7407 272.676 13.7794 275.464 13.7794H276.137V21.4699C275.175 21.2776 274.406 21.1814 273.733 21.1814C270.561 21.1814 268.83 22.8156 268.638 25.988V36.4664H261.62V14.1639H268.638V16.6633Z" fill="white"/>
<path fill-rule="evenodd" clip-rule="evenodd" d="M10.8781 43.5125V13.6003C6.15522 14.406 2.14471 17.4478 0 21.6708V32.6343C0 38.6421 4.8703 43.5125 10.8781 43.5125ZM0 17.1489V10.8781C0 4.8703 4.8703 0 10.8781 0H21.8417C26.0646 2.14471 29.1064 6.15522 29.9121 10.8781H13.3884C12.5367 10.8781 11.6985 10.9396 10.8781 11.0584C6.54942 11.686 2.71615 13.9129 0 17.1489ZM26.3636 0C29.5995 2.71615 31.8265 6.54943 32.4539 10.8781C32.5728 11.6985 32.6343 12.5367 32.6343 13.3884V29.9121C37.3572 29.1064 41.3677 26.0646 43.5124 21.8417V10.8781C43.5124 4.8703 38.6421 0 32.6343 0H26.3636ZM43.5124 26.3636V32.6343C43.5124 38.6421 38.6421 43.5125 32.6343 43.5125H13.3884L21.7562 32.6343H30.1239C30.9758 32.6343 31.8139 32.5729 32.6343 32.4539C36.963 31.8265 40.7963 29.5995 43.5124 26.3636Z" fill="white"/>
</g>
<defs>
<clipPath id="clip0_47_539">
<rect width="276.136" height="45" fill="white"/>
</clipPath>
</defs>
</svg>
