<svg width="635" height="554" viewBox="0 0 635 554" fill="none" xmlns="http://www.w3.org/2000/svg">
<path fill-rule="evenodd" clip-rule="evenodd" d="M238.313 454.374C233.992 454.374 229.671 453.247 225.82 451.087L80.1266 366.955C72.33 362.447 67.6333 354.372 67.6333 345.358C67.6333 336.344 72.33 328.268 80.1266 323.761L285.562 205.262C293.265 200.755 302.846 200.755 310.455 205.262L456.242 289.301C464.039 293.808 468.641 301.883 468.641 310.897C468.641 319.912 464.039 327.987 456.242 332.494L250.806 451.087C246.955 453.247 242.634 454.374 238.313 454.374ZM298.056 205.637C294.392 205.637 290.729 206.576 287.441 208.454L82.0053 327.048C75.336 330.898 71.3907 337.752 71.3907 345.358C71.3907 353.058 75.336 359.912 82.0053 363.668L227.698 447.801C234.274 451.557 242.352 451.557 248.928 447.801L454.363 329.207C460.939 325.358 464.884 318.597 464.884 310.897C464.884 303.292 460.939 296.437 454.363 292.587L308.576 208.454C305.383 206.576 301.719 205.637 298.056 205.637Z" fill="url(#paint0_linear_1_11)"/>
<path d="M557.316 377.002C556.659 377.002 556.095 376.626 555.719 376.063C555.156 375.124 555.531 373.997 556.377 373.434L629.364 331.743L456.242 231.553L403.075 261.882C402.23 262.352 401.102 262.07 400.539 261.131C400.069 260.286 400.351 259.159 401.196 258.596L455.303 227.797C455.866 227.422 456.618 227.422 457.182 227.797L634.061 330.146C634.625 330.428 635 331.085 635 331.743C635 332.4 634.625 333.057 634.061 333.339L558.255 376.72C557.942 376.908 557.629 377.002 557.316 377.002Z" fill="url(#paint1_linear_1_11)"/>
<path d="M549.238 317.282C545.762 319.254 540.032 319.254 536.556 317.188C532.987 315.123 532.893 311.836 536.369 309.864C539.844 307.892 545.574 307.892 549.144 309.958C552.619 312.024 552.713 315.31 549.238 317.282ZM504.055 291.179C500.579 293.15 494.849 293.15 491.28 291.085C487.71 289.019 487.71 285.732 491.186 283.761C494.661 281.789 500.298 281.789 503.867 283.854C507.437 285.92 507.531 289.207 504.055 291.179ZM526.599 304.23C523.124 306.202 517.488 306.202 513.918 304.137C510.349 302.071 510.255 298.784 513.73 296.812C517.206 294.841 522.936 294.841 526.505 296.906C530.075 298.972 530.075 302.259 526.599 304.23Z" fill="url(#paint2_linear_1_11)"/>
<path d="M238.407 495.877C234.931 497.849 229.295 497.849 225.725 495.783C222.156 493.717 222.062 490.431 225.538 488.459C229.013 486.487 234.743 486.487 238.313 488.553C241.882 490.619 241.882 493.905 238.407 495.877ZM193.224 469.773C189.748 471.839 184.018 471.745 180.449 469.679C176.879 467.614 176.879 464.327 180.355 462.355C183.83 460.383 189.56 460.383 193.036 462.449C196.606 464.515 196.7 467.801 193.224 469.773ZM215.862 482.825C212.293 484.891 206.657 484.797 203.087 482.731C199.518 480.665 199.518 477.379 202.993 475.407C206.469 473.435 212.105 473.435 215.674 475.501C219.244 477.567 219.338 480.853 215.862 482.825Z" fill="url(#paint3_linear_1_11)"/>
<path d="M89.1445 318.315V168.547C89.1445 164.698 91.1172 161.223 94.4049 159.345L274.572 55.4C281.617 51.2685 290.447 56.4329 290.447 64.602V214.37C290.447 218.126 288.474 221.694 285.187 223.572L105.02 327.517C97.9744 331.555 89.1445 326.484 89.1445 318.315Z" fill="url(#paint4_linear_1_11)"/>
<path d="M99.759 325.358C96.3773 325.358 92.7139 322.635 92.7139 318.315V168.548C92.7139 166.012 94.029 163.665 96.1895 162.444L276.357 58.4987C277.421 57.8101 278.58 57.4658 279.832 57.4658C283.214 57.4658 286.877 60.1889 286.877 64.6021V214.37C286.877 216.905 285.562 219.253 283.402 220.473L103.235 324.419C102.17 325.045 101.011 325.358 99.759 325.358Z" fill="#19185B"/>
<path d="M93.7469 327.048L89.4259 324.7C89.3006 324.7 89.2067 324.669 89.1441 324.606C86.6078 322.729 84.917 319.724 84.917 316.062V166.294C84.917 162.538 86.8896 158.97 90.1773 157.092L270.344 53.1465C274.29 50.8929 278.799 51.4563 281.992 53.8977L283.589 54.6489C280.771 53.616 277.484 53.616 274.572 55.4L94.4044 159.345C91.1167 161.223 89.1441 164.698 89.1441 168.548V318.315C89.1441 322.071 91.0228 325.17 93.7469 327.048Z" fill="url(#paint5_linear_1_11)"/>
<g style="mix-blend-mode:overlay" opacity="0.7">
<path d="M168.331 120.753L99.9469 325.358C99.8842 325.358 99.8216 325.358 99.759 325.358C96.3773 325.358 92.7139 322.634 92.7139 318.315V230.239L119.955 148.735L168.331 120.753ZM198.109 103.476L129.348 309.301L117.982 315.874L186.743 110.049L198.109 103.476ZM286.877 74.8369V129.767L250.149 239.534L227.417 252.68L286.877 74.8369ZM280.02 57.5596L211.729 261.788L146.257 299.629L215.017 93.8043L276.263 58.4986C277.39 57.8726 278.548 57.5596 279.738 57.5596C279.863 57.5596 279.957 57.5596 280.02 57.5596Z" fill="url(#paint6_linear_1_11)"/>
</g>
<path d="M105.019 327.517L285.186 223.572C288.474 221.694 292.513 221.694 295.801 223.572L425.525 298.409C432.664 302.54 432.664 312.775 425.525 316.813L245.452 420.758C242.164 422.73 238.125 422.73 234.837 420.758L105.019 345.921C97.9741 341.79 97.9741 331.555 105.019 327.517Z" fill="url(#paint7_linear_1_11)"/>
<path d="M430.879 307.986V310.709C430.879 310.897 430.879 311.554 430.879 311.554C430.691 314.935 428.907 318.315 425.525 320.287L245.452 424.232C242.164 426.11 238.125 426.11 234.837 424.232L105.019 349.302C101.544 347.236 99.7588 343.668 99.7588 340.1V336.719C99.7588 340.287 101.544 343.855 105.019 345.921L234.837 420.758C238.125 422.73 242.164 422.73 245.452 420.758L425.525 316.813C429.001 314.841 430.785 311.461 430.879 307.986Z" fill="url(#paint8_linear_1_11)"/>
<path d="M358.456 287.517L203.745 376.72C197.733 380.194 187.212 379.819 180.261 375.781L133.67 348.926C126.718 344.888 125.967 338.785 131.979 335.311L286.596 246.013C292.701 242.539 303.222 243.009 310.173 247.046L356.765 273.901C363.716 277.939 364.468 284.042 358.456 287.517Z" fill="url(#paint9_linear_1_11)"/>
<path d="M128.033 342.259C127.563 339.63 128.785 337.095 131.978 335.311L286.595 246.013C292.701 242.539 303.222 243.009 310.173 247.046L356.765 273.901C361.086 276.437 362.964 279.723 362.401 282.634C361.931 280.38 360.052 277.939 356.765 276.061L310.173 249.206C303.222 245.168 292.701 244.699 286.595 248.173L131.978 337.47C129.724 338.785 128.409 340.475 128.033 342.259Z" fill="url(#paint10_linear_1_11)"/>
<path d="M345.774 339.912L297.586 367.706C294.58 369.396 289.32 369.208 285.844 367.236L275.229 361.133C271.848 359.161 271.472 356.062 274.384 354.372L322.573 326.578C325.578 324.794 330.839 325.076 334.314 327.048L344.929 333.151C348.405 335.123 348.78 338.128 345.774 339.912Z" fill="url(#paint11_linear_1_11)"/>
<path d="M272.505 357.94C272.223 356.626 272.787 355.311 274.384 354.372L322.572 326.578C325.578 324.794 330.839 325.076 334.314 327.048L344.929 333.151C347.183 334.466 348.123 336.156 347.653 337.658C347.371 336.532 346.526 335.499 344.929 334.56L334.314 328.456C330.839 326.484 325.578 326.203 322.572 327.987L274.384 355.781C273.351 356.344 272.787 357.189 272.505 357.94Z" fill="url(#paint12_linear_1_11)"/>
<path fill-rule="evenodd" clip-rule="evenodd" d="M202.617 322.916L207.408 325.733C208.16 326.203 208.254 326.86 207.596 327.236L202.43 330.24C201.772 330.616 200.551 330.522 199.799 330.146L195.009 327.33C194.257 326.86 194.163 326.203 194.821 325.827L199.987 322.822C200.645 322.447 201.772 322.541 202.617 322.916ZM213.702 316.531L218.493 319.348C219.244 319.724 219.338 320.475 218.68 320.851L213.514 323.761C212.856 324.231 211.635 324.137 210.884 323.667L206.093 320.944C205.342 320.475 205.248 319.818 205.905 319.442L211.072 316.437C211.729 316.062 212.95 316.062 213.702 316.531ZM191.439 329.395L196.23 332.118C197.075 332.588 197.075 333.245 196.418 333.621L191.251 336.625C190.594 337.001 189.467 337.001 188.621 336.532L183.831 333.715C183.079 333.339 182.985 332.588 183.643 332.212L188.809 329.301C189.561 328.832 190.688 328.926 191.439 329.395ZM224.786 310.146L229.577 312.869C230.422 313.339 230.516 313.996 229.765 314.372L224.598 317.376C223.941 317.752 222.814 317.752 221.968 317.282L217.271 314.559C216.426 314.09 216.332 313.433 217.083 312.963L222.25 310.052C222.907 309.677 224.035 309.677 224.786 310.146ZM247.049 297.282L251.839 300.099C252.591 300.475 252.685 301.226 252.027 301.601L246.861 304.512C246.203 304.982 245.076 304.888 244.231 304.418L239.44 301.695C238.688 301.226 238.595 300.569 239.252 300.193L244.419 297.188C245.076 296.813 246.297 296.813 247.049 297.282ZM306.603 307.705L235.025 348.926C234.274 349.396 233.052 349.302 232.207 348.832L227.604 346.203C226.759 345.734 226.759 344.982 227.416 344.607L298.995 303.292C299.746 302.822 300.967 302.916 301.813 303.385L306.416 306.108C307.261 306.578 307.355 307.235 306.603 307.705ZM235.964 303.761L240.755 306.484C241.507 306.954 241.6 307.611 240.943 307.986L235.777 310.991C235.119 311.367 233.898 311.273 233.146 310.897L228.356 308.08C227.604 307.611 227.51 306.954 228.168 306.578L233.334 303.573C233.992 303.198 235.213 303.292 235.964 303.761ZM183.173 357.565L188.245 354.654C188.997 354.278 190.218 354.278 190.97 354.748L195.666 357.471C196.512 357.94 196.606 358.598 195.854 359.067L190.782 361.978C190.124 362.354 188.903 362.354 188.058 361.884L183.361 359.161C182.609 358.692 182.515 357.94 183.173 357.565ZM232.583 336.156L227.886 333.433C227.041 333.057 226.947 332.306 227.698 331.931L232.771 329.02C233.428 328.55 234.649 328.644 235.401 329.114L240.191 331.837C240.943 332.306 241.037 332.963 240.379 333.339L235.213 336.344C234.555 336.719 233.334 336.625 232.583 336.156ZM243.667 329.771L238.97 327.048C238.125 326.578 238.125 325.921 238.782 325.545L243.855 322.541C244.606 322.165 245.734 322.259 246.579 322.635L251.276 325.358C252.121 325.827 252.121 326.578 251.464 326.954L246.391 329.865C245.64 330.334 244.512 330.24 243.667 329.771ZM221.404 342.635L216.708 339.912C215.956 339.442 215.862 338.691 216.52 338.316L221.686 335.405C222.344 335.029 223.565 335.029 224.316 335.499L229.013 338.222C229.859 338.691 229.953 339.348 229.201 339.818L224.129 342.729C223.471 343.104 222.25 343.104 221.404 342.635ZM269.311 284.512L274.102 287.235C274.853 287.704 274.947 288.362 274.29 288.737L269.123 291.742C268.466 292.118 267.245 292.024 266.493 291.648L261.703 288.831C260.951 288.362 260.857 287.704 261.515 287.329L266.681 284.324C267.339 283.948 268.56 284.042 269.311 284.512ZM171.807 351.649L178.007 348.081C178.382 347.799 179.04 347.893 179.51 348.081L185.521 351.555C185.897 351.837 185.991 352.213 185.615 352.4L179.322 356.062C178.946 356.25 178.288 356.25 177.913 355.968L171.901 352.494C171.431 352.213 171.431 351.837 171.807 351.649ZM199.236 355.405L194.445 352.682C193.694 352.306 193.6 351.555 194.257 351.18L199.424 348.269C200.081 347.799 201.302 347.893 202.054 348.363L206.845 351.086C207.596 351.555 207.69 352.213 207.032 352.588L201.866 355.593C201.208 355.968 199.987 355.875 199.236 355.405ZM210.32 349.02L205.623 346.297C204.778 345.827 204.684 345.17 205.436 344.795L210.508 341.79C211.166 341.414 212.387 341.508 213.232 341.884L217.929 344.607C218.68 345.076 218.774 345.827 218.117 346.203L213.044 349.114C212.293 349.583 211.166 349.49 210.32 349.02ZM180.355 335.78L185.146 338.503C185.897 338.973 185.991 339.63 185.333 340.1L180.167 343.011C179.51 343.386 178.288 343.386 177.537 342.917L172.746 340.194C171.995 339.724 171.901 339.067 172.558 338.691L177.725 335.686C178.382 335.311 179.603 335.311 180.355 335.78ZM200.175 343.104L194.069 339.63C193.694 339.442 193.6 339.067 193.975 338.785L200.269 335.217C200.645 335.029 201.302 335.029 201.678 335.311L207.69 338.785C208.16 338.973 208.254 339.348 207.878 339.63L201.584 343.198C201.208 343.386 200.551 343.386 200.175 343.104ZM196.606 345.17C197.075 345.452 197.075 345.827 196.7 346.015L190.5 349.583C190.124 349.865 189.467 349.771 188.997 349.583L182.985 346.109C182.515 345.827 182.515 345.452 182.891 345.264L189.091 341.602C189.467 341.414 190.124 341.414 190.594 341.696L196.606 345.17ZM211.26 336.719L205.248 333.245C204.778 332.963 204.684 332.588 205.06 332.4L211.353 328.832C211.729 328.55 212.387 328.644 212.762 328.832L218.868 332.306C219.244 332.588 219.338 332.963 218.962 333.151L212.669 336.813C212.293 337.001 211.635 337.001 211.26 336.719ZM222.344 330.334L216.332 326.86C215.862 326.578 215.862 326.203 216.238 326.015L222.438 322.353C222.814 322.165 223.471 322.165 223.941 322.447L229.953 325.921C230.422 326.203 230.422 326.578 230.046 326.766L223.847 330.334C223.471 330.616 222.813 330.522 222.344 330.334ZM305.288 275.498C304.819 275.31 304.819 274.84 305.194 274.653L311.394 271.084C311.77 270.897 312.427 270.897 312.897 271.084L318.909 274.653C319.379 274.84 319.379 275.216 319.003 275.498L312.803 279.066C312.427 279.254 311.77 279.254 311.3 278.972L305.288 275.498ZM305.664 286.859L332.811 271.272C333.563 270.897 334.69 270.897 335.535 271.366L340.232 274.089C340.984 274.559 341.078 275.216 340.42 275.592L313.273 291.273C312.615 291.648 311.394 291.648 310.643 291.179L305.852 288.456C305.1 287.986 305.007 287.329 305.664 286.859ZM301.813 277.563L307.825 281.038C308.2 281.319 308.294 281.695 307.919 281.883L301.625 285.451C301.249 285.733 300.592 285.639 300.216 285.451L294.204 281.977C293.734 281.695 293.734 281.319 294.11 281.132L300.31 277.47C300.686 277.282 301.343 277.282 301.813 277.563ZM277.953 298.221L271.941 294.747C271.472 294.465 271.472 294.09 271.848 293.902L278.047 290.334C278.423 290.146 279.081 290.146 279.55 290.334L285.562 293.902C286.032 294.09 286.032 294.465 285.656 294.747L279.456 298.315C279.081 298.503 278.423 298.503 277.953 298.221ZM289.038 291.836L283.026 288.362C282.65 288.08 282.556 287.704 282.932 287.517L289.225 283.948C289.601 283.667 290.259 283.667 290.635 283.948L296.646 287.423C297.116 287.704 297.116 288.08 296.74 288.268L290.541 291.93C290.165 292.118 289.507 292.118 289.038 291.836ZM296.552 275.967L291.386 278.878C290.728 279.254 289.507 279.254 288.756 278.784L283.965 276.061C283.214 275.592 283.12 274.934 283.777 274.559L288.944 271.554C289.601 271.178 290.728 271.178 291.574 271.648L296.365 274.371C297.116 274.84 297.21 275.498 296.552 275.967ZM280.396 278.033L285.186 280.85C286.032 281.225 286.032 281.977 285.374 282.352L280.208 285.357C279.55 285.733 278.423 285.639 277.578 285.169L272.787 282.446C272.035 281.977 271.941 281.319 272.599 280.944L277.765 277.939C278.517 277.563 279.644 277.563 280.396 278.033ZM244.606 317.47L238.595 313.996C238.125 313.714 238.125 313.339 238.501 313.151L244.7 309.583C245.076 309.301 245.734 309.395 246.203 309.583L252.215 313.057C252.685 313.339 252.685 313.714 252.309 313.902L246.109 317.564C245.734 317.752 245.076 317.752 244.606 317.47ZM266.869 304.7L260.857 301.132C260.387 300.944 260.294 300.568 260.669 300.287L266.963 296.719C267.339 296.531 267.996 296.531 268.372 296.813L274.478 300.287C274.853 300.568 274.947 300.944 274.572 301.132L268.278 304.7C267.902 304.888 267.245 304.888 266.869 304.7ZM233.522 323.855L227.416 320.381C227.041 320.193 226.947 319.818 227.322 319.536L233.616 315.968C233.992 315.78 234.649 315.78 235.025 316.062L241.131 319.536C241.507 319.724 241.6 320.099 241.225 320.381L234.931 323.949C234.555 324.137 233.898 324.137 233.522 323.855ZM255.691 311.085L249.679 307.611C249.303 307.329 249.209 306.954 249.585 306.766L255.879 303.104C256.254 302.916 256.818 302.916 257.288 303.198L263.299 306.672C263.769 306.954 263.769 307.329 263.393 307.517L257.194 311.085C256.818 311.367 256.16 311.367 255.691 311.085ZM258.227 290.897L262.924 293.62C263.769 294.09 263.863 294.747 263.112 295.122L258.039 298.127C257.288 298.503 256.16 298.503 255.409 298.033L250.618 295.31C249.773 294.841 249.773 294.183 250.43 293.714L255.597 290.803C256.254 290.427 257.382 290.427 258.227 290.897ZM184.77 365.452L179.697 368.363C178.946 368.739 177.725 368.739 176.973 368.269L172.277 365.546C171.431 365.077 171.337 364.419 172.089 364.044L177.161 361.039C177.819 360.663 179.04 360.663 179.885 361.133L184.582 363.856C185.333 364.325 185.427 365.077 184.77 365.452ZM265.93 317.001L261.233 314.278C260.387 313.808 260.294 313.057 261.045 312.681L266.117 309.771C266.775 309.301 267.996 309.395 268.842 309.864L273.538 312.587C274.29 313.057 274.384 313.714 273.726 314.09L268.654 317.095C267.902 317.47 266.681 317.376 265.93 317.001ZM206.657 365.264L201.678 368.175C200.927 368.645 199.706 368.551 198.86 368.081L194.257 365.452C193.412 364.983 193.318 364.232 194.069 363.856L199.142 360.945C199.799 360.476 201.021 360.569 201.866 361.039L206.469 363.668C207.314 364.232 207.408 364.889 206.657 365.264ZM161.192 332.682L167.392 329.114C167.768 328.926 168.425 328.926 168.895 329.207L174.907 332.682C175.376 332.869 175.376 333.245 175.001 333.527L168.801 337.095C168.425 337.283 167.768 337.283 167.298 337.001L161.286 333.527C160.816 333.339 160.816 332.869 161.192 332.682ZM174.249 346.391L157.904 355.875C157.247 356.25 156.12 356.25 155.274 355.781L150.484 352.964C149.732 352.588 149.638 351.837 150.296 351.461L166.734 342.072C167.392 341.696 168.519 341.696 169.365 342.165L174.061 344.888C174.907 345.358 175.001 346.015 174.249 346.391ZM150.108 339.067L156.308 335.499C156.683 335.311 157.341 335.311 157.811 335.593L163.822 339.067C164.198 339.348 164.292 339.724 163.916 339.912L157.623 343.48C157.247 343.762 156.589 343.668 156.214 343.48L150.202 340.006C149.732 339.724 149.732 339.348 150.108 339.067ZM152.738 346.297L146.538 349.865C146.163 350.147 145.505 350.147 145.035 349.865L139.024 346.391C138.648 346.109 138.554 345.734 138.93 345.546L145.129 341.978C145.505 341.696 146.257 341.79 146.632 341.978L152.644 345.452C153.114 345.734 153.114 346.109 152.738 346.297ZM174.437 358.879L168.237 362.447C167.862 362.635 167.204 362.635 166.734 362.354L160.723 358.879C160.347 358.692 160.253 358.316 160.629 358.034L166.922 354.466C167.298 354.278 167.956 354.278 168.331 354.56L174.343 358.034C174.813 358.222 174.813 358.598 174.437 358.879ZM340.138 288.362L335.066 291.273C334.408 291.648 333.187 291.554 332.342 291.085L327.739 288.456C326.893 287.986 326.799 287.235 327.457 286.859L332.529 283.948C333.281 283.573 334.502 283.573 335.254 284.042L339.95 286.765C340.702 287.235 340.796 287.892 340.138 288.362ZM217.835 358.879L212.762 361.79C212.105 362.166 210.79 362.166 210.038 361.696L205.342 358.973C204.59 358.504 204.496 357.846 205.154 357.377L210.226 354.466C210.884 354.091 212.199 354.184 212.95 354.654L217.647 357.283C218.399 357.753 218.492 358.504 217.835 358.879ZM351.223 281.883L346.244 284.794C345.493 285.263 344.271 285.169 343.426 284.7L338.823 282.071C337.978 281.601 337.884 280.85 338.635 280.474L343.614 277.563C344.365 277.094 345.586 277.188 346.432 277.657L351.035 280.286C351.88 280.756 351.974 281.507 351.223 281.883ZM328.96 294.747L323.981 297.658C323.23 298.033 322.009 298.033 321.163 297.564L316.561 294.841C315.715 294.371 315.621 293.714 316.373 293.244L321.445 290.334C322.103 289.958 323.324 290.052 324.169 290.521L328.772 293.151C329.618 293.62 329.711 294.371 328.96 294.747ZM228.919 352.494L223.941 355.405C223.189 355.781 221.968 355.781 221.123 355.311L216.52 352.588C215.674 352.119 215.581 351.367 216.332 350.992L221.311 348.081C222.062 347.705 223.283 347.705 224.129 348.175L228.731 350.898C229.577 351.367 229.671 352.119 228.919 352.494ZM317.876 301.132L312.897 304.043C312.146 304.512 310.924 304.418 310.079 303.949L305.476 301.32C304.631 300.85 304.537 300.099 305.288 299.723L310.267 296.813C311.018 296.343 312.24 296.437 313.085 296.906L317.688 299.536C318.533 300.005 318.627 300.756 317.876 301.132ZM254.845 323.386L250.055 320.663C249.303 320.193 249.209 319.536 249.867 319.066L255.033 316.156C255.691 315.78 256.912 315.78 257.663 316.249L262.36 318.973C263.206 319.442 263.299 320.099 262.548 320.569L257.475 323.48C256.818 323.855 255.597 323.855 254.845 323.386ZM195.572 371.743L190.5 374.654C189.842 375.03 188.621 375.03 187.776 374.466L183.173 371.837C182.328 371.368 182.234 370.617 182.985 370.241L187.964 367.33C188.715 366.955 189.936 366.955 190.782 367.424L195.385 370.147C196.23 370.617 196.324 371.274 195.572 371.743ZM296.271 267.329L309.797 259.535C311.206 258.69 313.555 258.69 314.964 259.535L328.208 267.141C329.711 267.986 329.711 269.3 328.208 270.145L325.86 271.554C324.451 272.399 322.103 272.399 320.6 271.554L314.964 268.267C313.555 267.422 311.206 267.422 309.797 268.267L303.879 271.648C302.47 272.493 300.122 272.493 298.619 271.648L296.271 270.333C294.862 269.488 294.862 268.08 296.271 267.329ZM283.214 262.258L300.873 252.117C301.249 251.929 301.907 251.929 302.282 252.211L308.294 255.685C308.764 255.873 308.858 256.342 308.388 256.53L290.822 266.671C290.447 266.859 289.789 266.859 289.413 266.577L283.402 263.103C282.932 262.915 282.838 262.54 283.214 262.258ZM172.277 326.297L178.57 322.728C178.946 322.447 179.603 322.541 179.979 322.728L185.991 326.203C186.461 326.484 186.461 326.86 186.085 327.048L179.885 330.71C179.51 330.898 178.852 330.898 178.382 330.616L172.37 327.142C171.995 326.86 171.901 326.484 172.277 326.297ZM261.233 274.934L267.527 271.366C267.902 271.178 268.56 271.178 268.936 271.46L274.947 274.934C275.417 275.122 275.417 275.498 275.041 275.779L268.842 279.347C268.466 279.535 267.808 279.535 267.339 279.254L261.327 275.779C260.951 275.592 260.857 275.216 261.233 274.934ZM277.014 310.522L272.317 307.799C271.566 307.329 271.472 306.672 272.129 306.296L277.202 303.292C277.953 302.916 279.081 303.01 279.926 303.479L284.623 306.202C285.468 306.578 285.562 307.329 284.811 307.705L279.738 310.616C279.081 311.085 277.859 310.991 277.014 310.522ZM288.192 304.137L283.402 301.414C282.65 300.944 282.556 300.287 283.214 299.817L288.38 296.906C289.038 296.531 290.259 296.531 291.01 297L295.801 299.723C296.552 300.193 296.646 300.85 295.989 301.32L290.822 304.231C290.165 304.606 288.944 304.606 288.192 304.137ZM299.277 297.752L294.58 295.028C293.734 294.559 293.64 293.808 294.392 293.432L299.464 290.521C300.122 290.052 301.343 290.146 302.189 290.615L306.885 293.338C307.637 293.808 307.731 294.465 307.073 294.841L302.001 297.845C301.249 298.221 300.028 298.127 299.277 297.752ZM272.411 268.549L278.611 264.981C278.987 264.699 279.644 264.793 280.114 264.981L286.126 268.455C286.501 268.737 286.595 269.113 286.22 269.394L280.02 272.962C279.55 273.15 278.893 273.15 278.517 272.868L272.505 269.394C272.035 269.113 272.035 268.737 272.411 268.549ZM194.539 313.433L200.739 309.864C201.115 309.677 201.772 309.677 202.242 309.958L208.254 313.433C208.723 313.62 208.723 313.996 208.348 314.278L202.148 317.846C201.772 318.034 201.115 318.034 200.645 317.752L194.633 314.278C194.257 314.09 194.163 313.714 194.539 313.433ZM205.623 307.047L211.917 303.479C212.293 303.198 212.95 303.292 213.326 303.479L219.338 306.954C219.808 307.235 219.902 307.611 219.526 307.799L213.232 311.461C212.856 311.648 212.199 311.648 211.729 311.367L205.811 307.893C205.342 307.611 205.248 307.235 205.623 307.047ZM250.149 281.413L256.348 277.751C256.724 277.563 257.382 277.563 257.851 277.845L263.863 281.319C264.333 281.601 264.333 281.977 263.957 282.164L257.757 285.733C257.382 286.014 256.724 285.92 256.254 285.733L250.242 282.258C249.773 281.977 249.773 281.601 250.149 281.413ZM183.455 319.912L189.654 316.249C190.03 316.062 190.688 316.062 191.157 316.343L197.169 319.818C197.545 320.099 197.639 320.475 197.263 320.663L191.063 324.231C190.688 324.513 189.936 324.419 189.561 324.231L183.549 320.757C183.079 320.475 183.079 320.099 183.455 319.912ZM239.064 287.798L245.264 284.23C245.64 283.948 246.297 284.042 246.767 284.23L252.685 287.704C253.154 287.986 253.248 288.362 252.873 288.549L246.579 292.212C246.203 292.399 245.546 292.399 245.17 292.118L239.158 288.643C238.689 288.362 238.595 287.986 239.064 287.798ZM216.802 300.662L223.001 297C223.377 296.813 224.035 296.813 224.504 297.094L230.516 300.568C230.892 300.85 230.986 301.226 230.61 301.414L224.41 304.982C224.035 305.263 223.377 305.169 222.907 304.982L216.896 301.507C216.426 301.226 216.426 300.85 216.802 300.662ZM227.886 294.183L234.086 290.615C234.461 290.427 235.213 290.427 235.589 290.709L241.601 294.183C242.07 294.371 242.07 294.747 241.694 295.028L235.495 298.597C235.119 298.784 234.461 298.784 233.992 298.503L227.98 295.028C227.604 294.841 227.51 294.465 227.886 294.183Z" fill="#64049C"/>
<path fill-rule="evenodd" clip-rule="evenodd" d="M202.617 321.132L207.408 323.949C208.16 324.325 208.254 325.076 207.596 325.451L202.43 328.362C201.772 328.832 200.551 328.738 199.799 328.268L195.009 325.545C194.257 325.076 194.163 324.419 194.821 324.043L199.987 321.038C200.645 320.663 201.772 320.663 202.617 321.132ZM213.702 314.747L218.493 317.47C219.244 317.94 219.338 318.597 218.68 318.972L213.514 321.977C212.856 322.353 211.635 322.353 210.884 321.883L206.093 319.16C205.342 318.691 205.248 318.033 205.905 317.564L211.072 314.653C211.729 314.278 212.95 314.278 213.702 314.747ZM191.439 327.611L196.23 330.334C197.075 330.804 197.075 331.461 196.418 331.836L191.251 334.841C190.594 335.217 189.467 335.123 188.621 334.747L183.831 331.93C183.079 331.461 182.985 330.804 183.643 330.428L188.809 327.423C189.561 327.048 190.688 327.142 191.439 327.611ZM224.786 308.362L229.577 311.085C230.422 311.554 230.516 312.212 229.765 312.587L224.598 315.592C223.941 315.968 222.814 315.874 221.968 315.498L217.271 312.681C216.426 312.306 216.332 311.554 217.083 311.179L222.25 308.174C222.907 307.799 224.035 307.892 224.786 308.362ZM247.049 295.498L251.839 298.221C252.591 298.69 252.685 299.348 252.027 299.817L246.861 302.728C246.203 303.104 245.076 303.104 244.231 302.634L239.44 299.911C238.688 299.442 238.595 298.784 239.252 298.409L244.419 295.404C245.076 295.028 246.297 295.028 247.049 295.498ZM306.603 305.827L235.025 347.142C234.274 347.611 233.052 347.518 232.207 347.048L227.604 344.419C226.759 343.949 226.759 343.198 227.416 342.823L298.995 301.507C299.746 301.038 300.967 301.132 301.813 301.601L306.416 304.23C307.261 304.7 307.355 305.451 306.603 305.827ZM235.964 301.883L240.755 304.7C241.507 305.075 241.6 305.827 240.943 306.202L235.777 309.207C235.119 309.583 233.898 309.489 233.146 309.019L228.356 306.296C227.604 305.827 227.51 305.169 228.168 304.794L233.334 301.789C233.992 301.413 235.213 301.507 235.964 301.883ZM183.173 355.781L188.245 352.87C188.997 352.4 190.218 352.494 190.97 352.964L195.666 355.687C196.512 356.156 196.606 356.813 195.854 357.189L190.782 360.194C190.124 360.569 188.903 360.475 188.058 360.1L183.361 357.377C182.609 356.907 182.515 356.156 183.173 355.781ZM232.583 334.372L227.886 331.649C227.041 331.179 226.947 330.522 227.698 330.146L232.771 327.142C233.428 326.766 234.649 326.86 235.401 327.329L240.191 330.052C240.943 330.428 241.037 331.179 240.379 331.555L235.213 334.466C234.555 334.935 233.334 334.841 232.583 334.372ZM243.667 327.987L238.97 325.264C238.125 324.794 238.125 324.137 238.782 323.667L243.855 320.757C244.606 320.381 245.734 320.381 246.579 320.85L251.276 323.573C252.121 324.043 252.121 324.794 251.464 325.17L246.391 328.081C245.64 328.456 244.512 328.456 243.667 327.987ZM221.404 340.851L216.708 338.128C215.956 337.658 215.862 336.907 216.52 336.531L221.686 333.621C222.344 333.151 223.565 333.245 224.316 333.714L229.013 336.438C229.859 336.907 229.953 337.564 229.201 337.94L224.129 340.945C223.471 341.32 222.25 341.226 221.404 340.851ZM269.311 282.634L274.102 285.451C274.853 285.92 274.947 286.578 274.29 286.953L269.123 289.958C268.466 290.333 267.245 290.24 266.493 289.77L261.703 287.047C260.951 286.578 260.857 285.92 261.515 285.545L266.681 282.54C267.339 282.164 268.56 282.258 269.311 282.634ZM171.807 349.865L178.007 346.203C178.382 346.015 179.04 346.015 179.51 346.297L185.521 349.771C185.897 350.053 185.991 350.428 185.615 350.616L179.322 354.184C178.946 354.466 178.288 354.372 177.913 354.184L171.901 350.71C171.431 350.428 171.431 350.053 171.807 349.865ZM199.236 353.621L194.445 350.898C193.694 350.428 193.6 349.771 194.257 349.395L199.424 346.391C200.081 346.015 201.302 346.109 202.054 346.579L206.845 349.302C207.596 349.677 207.69 350.428 207.032 350.804L201.866 353.715C201.208 354.184 199.987 354.09 199.236 353.621ZM210.32 347.236L205.623 344.513C204.778 344.043 204.684 343.386 205.436 342.917L210.508 340.006C211.166 339.63 212.387 339.63 213.232 340.1L217.929 342.823C218.68 343.292 218.774 343.949 218.117 344.419L213.044 347.33C212.293 347.705 211.166 347.705 210.32 347.236ZM180.355 333.996L185.146 336.719C185.897 337.189 185.991 337.846 185.333 338.222L180.167 341.226C179.51 341.602 178.288 341.602 177.537 341.132L172.746 338.409C171.995 337.94 171.901 337.283 172.558 336.813L177.725 333.902C178.382 333.527 179.603 333.527 180.355 333.996ZM200.175 341.32L194.069 337.846C193.694 337.564 193.6 337.189 193.975 337.001L200.269 333.433C200.645 333.151 201.302 333.245 201.678 333.433L207.69 337.001C208.16 337.189 208.254 337.564 207.878 337.846L201.584 341.414C201.208 341.602 200.551 341.602 200.175 341.32ZM196.606 343.386C197.075 343.574 197.075 344.043 196.7 344.231L190.5 347.799C190.124 347.987 189.467 347.987 188.997 347.799L182.985 344.231C182.515 344.043 182.515 343.668 182.891 343.386L189.091 339.818C189.467 339.63 190.124 339.63 190.594 339.912L196.606 343.386ZM211.26 334.935L205.248 331.461C204.778 331.179 204.684 330.804 205.06 330.616L211.353 326.954C211.729 326.766 212.387 326.766 212.762 327.048L218.868 330.522C219.244 330.804 219.338 331.179 218.962 331.367L212.669 334.935C212.293 335.217 211.635 335.123 211.26 334.935ZM222.344 328.55L216.332 324.982C215.862 324.794 215.862 324.419 216.238 324.137L222.438 320.569C222.814 320.381 223.471 320.381 223.941 320.663L229.953 324.137C230.422 324.325 230.422 324.794 230.046 324.982L223.847 328.55C223.471 328.738 222.813 328.738 222.344 328.55ZM305.288 273.713C304.819 273.432 304.819 273.056 305.194 272.868L311.394 269.3C311.77 269.019 312.427 269.112 312.897 269.3L318.909 272.774C319.379 273.056 319.379 273.432 319.003 273.62L312.803 277.282C312.427 277.469 311.77 277.469 311.3 277.188L305.288 273.713ZM305.664 285.075L332.811 269.488C333.563 269.019 334.69 269.112 335.535 269.582L340.232 272.305C340.984 272.774 341.078 273.432 340.42 273.807L313.273 289.488C312.615 289.864 311.394 289.864 310.643 289.394L305.852 286.671C305.1 286.202 305.007 285.545 305.664 285.075ZM301.813 275.779L307.825 279.253C308.2 279.441 308.294 279.817 307.919 280.099L301.625 283.667C301.249 283.854 300.592 283.854 300.216 283.573L294.204 280.099C293.734 279.911 293.734 279.535 294.11 279.253L300.31 275.685C300.686 275.498 301.343 275.498 301.813 275.779ZM277.953 296.437L271.941 292.963C271.472 292.681 271.472 292.305 271.848 292.118L278.047 288.549C278.423 288.268 279.081 288.362 279.55 288.549L285.562 292.024C286.032 292.305 286.032 292.681 285.656 292.869L279.456 296.531C279.081 296.719 278.423 296.719 277.953 296.437ZM289.038 290.052L283.026 286.578C282.65 286.296 282.556 285.92 282.932 285.732L289.225 282.07C289.601 281.883 290.259 281.883 290.635 282.164L296.646 285.639C297.116 285.92 297.116 286.296 296.74 286.484L290.541 290.052C290.165 290.333 289.507 290.24 289.038 290.052ZM296.552 274.089L291.386 277.094C290.728 277.469 289.507 277.469 288.756 277L283.965 274.183C283.214 273.807 283.12 273.056 283.777 272.681L288.944 269.77C289.601 269.3 290.728 269.394 291.574 269.864L296.365 272.587C297.116 273.056 297.21 273.713 296.552 274.089ZM280.396 276.249L285.186 278.972C286.032 279.441 286.032 280.099 285.374 280.568L280.208 283.479C279.55 283.854 278.423 283.854 277.578 283.385L272.787 280.662C272.035 280.192 271.941 279.535 272.599 279.16L277.765 276.155C278.517 275.779 279.644 275.779 280.396 276.249ZM244.606 315.686L238.595 312.212C238.125 311.93 238.125 311.554 238.501 311.367L244.7 307.799C245.076 307.517 245.734 307.611 246.203 307.799L252.215 311.273C252.685 311.554 252.685 311.93 252.309 312.118L246.109 315.78C245.734 315.968 245.076 315.968 244.606 315.686ZM266.869 302.822L260.857 299.348C260.387 299.16 260.294 298.784 260.669 298.503L266.963 294.934C267.339 294.747 267.996 294.747 268.372 295.028L274.478 298.503C274.853 298.69 274.947 299.066 274.572 299.348L268.278 302.916C267.902 303.104 267.245 303.104 266.869 302.822ZM233.522 322.071L227.416 318.597C227.041 318.409 226.947 318.033 227.322 317.752L233.616 314.184C233.992 313.996 234.649 313.996 235.025 314.278L241.131 317.752C241.507 317.94 241.6 318.315 241.225 318.597L234.931 322.165C234.555 322.353 233.898 322.353 233.522 322.071ZM255.691 309.301L249.679 305.827C249.303 305.545 249.209 305.169 249.585 304.982L255.879 301.32C256.254 301.132 256.818 301.132 257.288 301.413L263.299 304.888C263.769 305.169 263.769 305.545 263.393 305.733L257.194 309.301C256.818 309.583 256.16 309.489 255.691 309.301ZM258.227 289.113L262.924 291.836C263.769 292.305 263.863 292.963 263.112 293.338L258.039 296.343C257.288 296.719 256.16 296.719 255.409 296.249L250.618 293.432C249.773 293.057 249.773 292.305 250.43 291.93L255.597 289.019C256.254 288.549 257.382 288.643 258.227 289.113ZM184.77 363.668L179.697 366.579C178.946 366.954 177.725 366.954 176.973 366.485L172.277 363.762C171.431 363.292 171.337 362.635 172.089 362.166L177.161 359.255C177.819 358.879 179.04 358.879 179.885 359.349L184.582 362.072C185.333 362.541 185.427 363.199 184.77 363.668ZM265.93 315.123L261.233 312.4C260.387 311.93 260.294 311.273 261.045 310.897L266.117 307.892C266.775 307.517 267.996 307.611 268.842 308.08L273.538 310.803C274.29 311.273 274.384 311.93 273.726 312.306L268.654 315.31C267.902 315.686 266.681 315.592 265.93 315.123ZM206.657 363.48L201.678 366.391C200.927 366.861 199.706 366.767 198.86 366.297L194.257 363.574C193.412 363.105 193.318 362.447 194.069 361.978L199.142 359.161C199.799 358.691 201.021 358.785 201.866 359.255L206.469 361.884C207.314 362.353 207.408 363.105 206.657 363.48ZM161.192 330.898L167.392 327.329C167.768 327.048 168.425 327.142 168.895 327.329L174.907 330.804C175.376 331.085 175.376 331.461 175.001 331.649L168.801 335.311C168.425 335.499 167.768 335.499 167.298 335.217L161.286 331.743C160.816 331.461 160.816 331.085 161.192 330.898ZM174.249 344.607L157.904 354.09C157.247 354.466 156.12 354.372 155.274 353.996L150.484 351.18C149.732 350.71 149.638 350.053 150.296 349.677L166.734 340.193C167.392 339.818 168.519 339.912 169.365 340.381L174.061 343.104C174.907 343.574 175.001 344.231 174.249 344.607ZM150.108 337.283L156.308 333.714C156.683 333.527 157.341 333.527 157.811 333.808L163.822 337.283C164.198 337.47 164.292 337.846 163.916 338.128L157.623 341.696C157.247 341.884 156.589 341.884 156.214 341.602L150.202 338.128C149.732 337.94 149.732 337.564 150.108 337.283ZM152.738 344.513L146.538 348.081C146.163 348.363 145.505 348.269 145.035 348.081L139.024 344.607C138.648 344.325 138.554 343.949 138.93 343.762L145.129 340.1C145.505 339.912 146.257 339.912 146.632 340.193L152.644 343.668C153.114 343.949 153.114 344.325 152.738 344.513ZM174.437 357.001L168.237 360.663C167.862 360.851 167.204 360.851 166.734 360.569L160.723 357.095C160.347 356.813 160.253 356.438 160.629 356.25L166.922 352.682C167.298 352.4 167.956 352.494 168.331 352.682L174.343 356.156C174.813 356.438 174.813 356.813 174.437 357.001ZM340.138 286.578L335.066 289.394C334.408 289.864 333.187 289.77 332.342 289.301L327.739 286.671C326.893 286.202 326.799 285.451 327.457 285.075L332.529 282.164C333.281 281.695 334.502 281.789 335.254 282.258L339.95 284.981C340.702 285.451 340.796 286.108 340.138 286.578ZM217.835 357.095L212.762 360.006C212.105 360.382 210.79 360.382 210.038 359.912L205.342 357.189C204.59 356.72 204.496 356.062 205.154 355.593L210.226 352.682C210.884 352.306 212.199 352.306 212.95 352.776L217.647 355.499C218.399 355.968 218.492 356.72 217.835 357.095ZM351.223 280.099L346.244 283.009C345.493 283.385 344.271 283.385 343.426 282.915L338.823 280.192C337.978 279.723 337.884 279.066 338.635 278.596L343.614 275.779C344.365 275.31 345.586 275.404 346.432 275.873L351.035 278.502C351.88 278.972 351.974 279.723 351.223 280.099ZM328.96 292.963L323.981 295.873C323.23 296.249 322.009 296.249 321.163 295.78L316.561 293.057C315.715 292.587 315.621 291.836 316.373 291.46L321.445 288.549C322.103 288.174 323.324 288.174 324.169 288.643L328.772 291.366C329.618 291.836 329.711 292.493 328.96 292.963ZM228.919 350.71L223.941 353.621C223.189 353.997 221.968 353.903 221.123 353.433L216.52 350.804C215.674 350.334 215.581 349.583 216.332 349.208L221.311 346.297C222.062 345.921 223.283 345.921 224.129 346.391L228.731 349.114C229.577 349.583 229.671 350.241 228.919 350.71ZM317.876 299.348L312.897 302.259C312.146 302.634 310.924 302.634 310.079 302.165L305.476 299.442C304.631 298.972 304.537 298.315 305.288 297.845L310.267 294.934C311.018 294.559 312.24 294.653 313.085 295.122L317.688 297.751C318.533 298.221 318.627 298.972 317.876 299.348ZM254.845 321.602L250.055 318.879C249.303 318.409 249.209 317.658 249.867 317.282L255.033 314.371C255.691 313.996 256.912 313.996 257.663 314.465L262.36 317.188C263.206 317.658 263.299 318.315 262.548 318.691L257.475 321.695C256.818 322.071 255.597 322.071 254.845 321.602ZM195.572 369.959L190.5 372.776C189.842 373.246 188.621 373.152 187.776 372.682L183.173 370.053C182.328 369.584 182.234 368.832 182.985 368.457L187.964 365.546C188.715 365.17 189.936 365.17 190.782 365.64L195.385 368.363C196.23 368.832 196.324 369.49 195.572 369.959ZM296.271 265.45L309.797 257.751C311.206 256.906 313.555 256.906 314.964 257.751L328.208 265.357C329.711 266.202 329.711 267.516 328.208 268.361L325.86 269.77C324.451 270.521 322.103 270.521 320.6 269.77L314.964 266.483C313.555 265.638 311.206 265.638 309.797 266.483L303.879 269.864C302.47 270.709 300.122 270.709 298.619 269.864L296.271 268.549C294.862 267.704 294.862 266.296 296.271 265.45ZM283.214 260.474L300.873 250.333C301.249 250.145 301.907 250.145 302.282 250.427L308.294 253.901C308.764 254.089 308.858 254.464 308.388 254.746L290.822 264.887C290.447 265.075 289.789 265.075 289.413 264.793L283.402 261.319C282.932 261.037 282.838 260.662 283.214 260.474ZM172.277 324.512L178.57 320.85C178.946 320.663 179.603 320.663 179.979 320.944L185.991 324.419C186.461 324.7 186.461 325.076 186.085 325.264L179.885 328.832C179.51 329.113 178.852 329.02 178.382 328.832L172.37 325.358C171.995 325.076 171.901 324.7 172.277 324.512ZM261.233 273.15L267.527 269.582C267.902 269.394 268.56 269.394 268.936 269.676L274.947 273.15C275.417 273.338 275.417 273.713 275.041 273.995L268.842 277.563C268.466 277.751 267.808 277.751 267.339 277.469L261.327 273.995C260.951 273.807 260.857 273.338 261.233 273.15ZM277.014 308.738L272.317 306.014C271.566 305.545 271.472 304.888 272.129 304.512L277.202 301.507C277.953 301.132 279.081 301.132 279.926 301.601L284.623 304.324C285.468 304.794 285.562 305.545 284.811 305.921L279.738 308.831C279.081 309.207 277.859 309.207 277.014 308.738ZM288.192 302.352L283.402 299.629C282.65 299.16 282.556 298.409 283.214 298.033L288.38 295.122C289.038 294.747 290.259 294.747 291.01 295.216L295.801 297.939C296.552 298.409 296.646 299.066 295.989 299.535L290.822 302.446C290.165 302.822 288.944 302.822 288.192 302.352ZM299.277 295.873L294.58 293.15C293.734 292.681 293.64 292.024 294.392 291.648L299.464 288.737C300.122 288.268 301.343 288.362 302.189 288.831L306.885 291.554C307.637 292.024 307.731 292.681 307.073 293.057L302.001 296.061C301.249 296.437 300.028 296.343 299.277 295.873ZM272.411 266.765L278.611 263.197C278.987 262.915 279.644 263.009 280.114 263.197L286.126 266.671C286.501 266.953 286.595 267.328 286.22 267.516L280.02 271.178C279.55 271.366 278.893 271.366 278.517 271.084L272.505 267.61C272.035 267.328 272.035 266.953 272.411 266.765ZM194.539 311.648L200.739 308.08C201.115 307.799 201.772 307.892 202.242 308.08L208.254 311.554C208.723 311.836 208.723 312.212 208.348 312.493L202.148 316.062C201.772 316.249 201.115 316.249 200.645 315.968L194.633 312.493C194.257 312.212 194.163 311.836 194.539 311.648ZM205.623 305.263L211.917 301.601C212.293 301.413 212.95 301.413 213.326 301.695L219.338 305.169C219.808 305.451 219.902 305.827 219.526 306.014L213.232 309.583C212.856 309.864 212.199 309.77 211.729 309.583L205.811 306.108C205.342 305.827 205.248 305.451 205.623 305.263ZM250.149 279.535L256.348 275.967C256.724 275.779 257.382 275.779 257.851 276.061L263.863 279.535C264.333 279.817 264.333 280.192 263.957 280.38L257.757 283.948C257.382 284.136 256.724 284.136 256.254 283.948L250.242 280.474C249.773 280.192 249.773 279.817 250.149 279.535ZM183.455 318.033L189.654 314.465C190.03 314.278 190.688 314.278 191.157 314.559L197.169 318.033C197.545 318.221 197.639 318.597 197.263 318.879L191.063 322.447C190.688 322.634 189.936 322.634 189.561 322.353L183.549 318.879C183.079 318.691 183.079 318.315 183.455 318.033ZM239.064 286.014L245.264 282.446C245.64 282.164 246.297 282.258 246.767 282.446L252.685 285.92C253.154 286.202 253.248 286.578 252.873 286.765L246.579 290.333C246.203 290.615 245.546 290.615 245.17 290.333L239.158 286.859C238.689 286.578 238.595 286.202 239.064 286.014ZM216.802 298.784L223.001 295.216C223.377 295.028 224.035 295.028 224.504 295.31L230.516 298.784C230.892 298.972 230.986 299.442 230.61 299.629L224.41 303.198C224.035 303.385 223.377 303.385 222.907 303.104L216.896 299.723C216.426 299.442 216.426 299.066 216.802 298.784ZM227.886 292.399L234.086 288.831C234.461 288.643 235.213 288.643 235.589 288.925L241.601 292.305C242.07 292.587 242.07 292.963 241.694 293.244L235.495 296.812C235.119 297 234.461 297 233.992 296.719L227.98 293.244C227.604 293.056 227.51 292.587 227.886 292.399Z" fill="url(#paint13_linear_1_11)"/>
<path d="M268.09 117.654L240.379 133.617C238.313 134.838 234.743 134.65 232.395 133.335L205.811 117.936C203.463 116.622 203.181 114.556 205.248 113.429L232.959 97.3724C235.025 96.1518 238.595 96.3396 240.943 97.6541L267.527 113.053C269.875 114.368 270.157 116.434 268.09 117.654Z" fill="#397EE5"/>
<path d="M268.09 219.722L240.379 235.685C239.346 236.248 238.031 236.53 236.622 236.53V134.462C238.031 134.462 239.346 134.181 240.379 133.617L268.09 117.655C268.842 117.185 269.311 116.622 269.405 115.964C269.405 116.027 269.405 116.058 269.405 116.058V217.375C269.593 218.22 269.124 219.065 268.09 219.722Z" fill="url(#paint14_linear_1_11)"/>
<path style="mix-blend-mode:color-dodge" d="M236.622 134.462V236.53C235.213 236.436 233.616 236.06 232.395 235.403L205.812 220.004C204.309 219.159 203.745 218.032 203.933 217.093V115.683C204.027 116.528 204.684 117.279 205.812 117.936L232.395 133.336C233.616 133.993 235.213 134.368 236.622 134.462Z" fill="url(#paint15_linear_1_11)"/>
<path d="M236.622 134.462V236.53C235.213 236.436 233.616 236.06 232.395 235.403L205.812 220.004C204.309 219.159 203.745 218.032 203.933 217.093V115.683C204.027 116.528 204.684 117.279 205.812 117.936L232.395 133.336C233.616 133.993 235.213 134.368 236.622 134.462Z" fill="url(#paint16_linear_1_11)"/>
<path d="M224.316 178.031L196.606 193.994C194.539 195.215 190.969 195.027 188.621 193.712L162.038 178.313C159.689 176.998 159.407 174.933 161.474 173.806L189.185 157.749C191.251 156.622 194.821 156.716 197.169 158.125L223.753 173.43C226.101 174.839 226.383 176.81 224.316 178.031Z" fill="#8DC7F7"/>
<path d="M224.316 244.887L196.606 260.943C195.572 261.507 194.257 261.694 192.848 261.694V194.839C194.257 194.839 195.572 194.557 196.606 193.994L224.316 178.031C225.068 177.562 225.537 176.998 225.631 176.435V242.539C225.819 243.384 225.35 244.229 224.316 244.887Z" fill="url(#paint17_linear_1_11)"/>
<path style="mix-blend-mode:color-dodge" d="M192.848 194.839V261.695C191.439 261.601 189.842 261.225 188.621 260.568L162.038 245.169C160.535 244.323 159.877 243.291 160.159 242.258V176.153C160.253 176.905 160.91 177.75 162.038 178.313L188.621 193.712C189.842 194.37 191.439 194.745 192.848 194.839Z" fill="url(#paint18_linear_1_11)"/>
<path d="M192.848 194.839V261.695C191.439 261.601 189.842 261.225 188.621 260.568L162.038 245.169C160.535 244.323 159.877 243.291 160.159 242.258V176.153C160.253 176.905 160.91 177.75 162.038 178.313L188.621 193.712C189.842 194.37 191.439 194.745 192.848 194.839Z" fill="url(#paint19_linear_1_11)"/>
<path d="M181.482 228.173L153.772 244.136C151.705 245.356 148.135 245.168 145.787 243.854L119.204 228.454C116.855 227.14 116.573 225.074 118.64 223.853L146.445 207.891C148.417 206.67 151.987 206.858 154.335 208.172L180.919 223.572C183.267 224.886 183.549 226.952 181.482 228.173Z" fill="#64049C"/>
<path d="M181.482 269.582L153.771 285.639C152.832 286.202 151.423 286.39 150.108 286.39V244.981C151.423 244.981 152.832 244.699 153.771 244.136L181.482 228.173C182.328 227.703 182.703 227.14 182.891 226.483V267.235C182.985 268.08 182.609 269.019 181.482 269.582Z" fill="url(#paint20_linear_1_11)"/>
<path style="mix-blend-mode:color-dodge" d="M150.108 244.981V286.39C148.605 286.39 147.008 286.014 145.787 285.263L119.204 269.958C117.795 269.112 117.137 267.986 117.325 266.953V226.201C117.419 227.046 118.076 227.797 119.204 228.454L145.787 243.854C147.008 244.511 148.605 244.887 150.108 244.981Z" fill="url(#paint21_linear_1_11)"/>
<path d="M150.108 244.981V286.39C148.605 286.39 147.008 286.014 145.787 285.263L119.204 269.958C117.795 269.112 117.137 267.986 117.325 266.953V226.201C117.419 227.046 118.076 227.797 119.204 228.454L145.787 243.854C147.008 244.511 148.605 244.887 150.108 244.981Z" fill="url(#paint22_linear_1_11)"/>
<path d="M277.014 30.6108L244.701 116.058L230.047 82.2549L195.197 184.51L174.625 156.059C164.762 183.759 151.799 220.191 150.86 223.666C150.86 223.572 142.312 227.516 142.312 227.516C142.781 225.544 142.218 225.356 156.684 184.698C163.541 165.355 170.492 145.918 170.586 145.73L174.155 135.495L194.539 163.571L230.892 56.9962L246.016 91.8325L269.405 30.1413L262.924 29.6718L283.12 4.0376L283.496 31.0803L277.014 30.6108Z" fill="url(#paint23_linear_1_11)"/>
<path d="M156.684 184.698C142.218 225.356 142.781 225.544 142.312 227.515L135.079 223.478C135.548 221.506 134.985 221.318 149.451 180.566C156.308 161.317 163.259 141.88 163.353 141.692L166.923 131.458L174.156 135.589L170.586 145.73C170.492 145.918 163.541 165.355 156.684 184.698Z" fill="url(#paint24_linear_1_11)"/>
<path d="M246.016 91.8325L230.892 56.9963L241.319 81.1281L261.139 28.639L255.691 25.6342L275.887 0L283.12 4.03763L262.924 29.6719L269.405 30.1414L246.016 91.8325Z" fill="url(#paint25_linear_1_11)"/>
<path d="M194.539 163.571L174.155 135.495L188.621 155.496L223.659 52.8647L230.892 56.9963L194.539 163.571Z" fill="url(#paint26_linear_1_11)"/>
<path d="M174.625 156.059L195.197 184.51L188.058 180.379H187.964L173.216 160.097C172.84 161.223 173.78 158.5 174.625 156.059Z" fill="url(#paint27_linear_1_11)"/>
<path d="M230.047 82.2549L244.7 116.058L237.467 112.021L227.698 89.2973L230.047 82.2549Z" fill="url(#paint28_linear_1_11)"/>
<path d="M301.155 438.881L481.228 334.935C484.516 332.963 488.555 332.963 491.843 334.935L581.269 386.485C588.314 390.617 588.314 400.758 581.269 404.889L401.196 508.835C397.814 510.713 393.775 510.713 390.487 508.835L301.155 457.285C294.016 453.153 294.016 442.918 301.155 438.881Z" fill="url(#paint29_linear_1_11)"/>
<path d="M586.529 396.063V398.692C586.529 398.974 586.529 439.538 586.529 439.538V399.537C586.341 403.011 584.651 446.299 581.269 448.27L401.196 552.216C397.814 554.094 393.775 554.094 390.487 552.216L301.155 500.572C297.586 498.6 295.801 494.938 295.801 491.37V448.083C295.801 451.651 297.586 455.219 301.155 457.285L390.487 508.835C393.775 510.713 397.814 510.713 401.196 508.835L581.269 404.889C584.651 402.918 586.435 399.537 586.529 396.063Z" fill="url(#paint30_linear_1_11)"/>
<g style="mix-blend-mode:color-dodge">
<path d="M481.135 447.895L446.755 467.801L443.467 465.829L477.847 446.017L481.135 447.895Z" fill="url(#paint31_linear_1_11)"/>
<path d="M520.775 425.078L487.147 444.515L483.859 442.543L517.394 423.2L520.775 425.078Z" fill="url(#paint32_linear_1_11)"/>
<path d="M378.088 460.29L394.621 458.881C404.39 457.942 411.811 453.341 412.563 447.613L415.474 424.327C416.132 419.444 421.768 415.218 429.847 413.622L457.182 408.27C466.857 406.392 472.775 400.852 471.272 394.936C469.299 386.861 481.323 379.913 495.413 381.133L510.818 382.448L533.081 395.312L399.318 472.496L378.088 460.29Z" fill="url(#paint33_linear_1_11)"/>
<path d="M399.318 472.496L393.869 446.486C392.085 438.223 400.633 430.336 414.441 428.082C415.005 427.957 415.537 427.863 416.038 427.801C431.162 425.735 442.716 418.599 445.158 409.772L447.506 401.04C448.821 396.157 453.142 392.025 459.342 389.115C466.857 385.452 477.19 384.513 486.395 386.298L533.081 395.312L399.318 472.496Z" fill="url(#paint34_linear_1_11)"/>
<g style="mix-blend-mode:overlay">
<path d="M399.13 472.778L337.415 437.191L337.696 436.533L399.506 472.215L399.13 472.778Z" fill="#650195"/>
<path d="M418.199 461.792L356.483 426.11L356.859 425.547L418.574 461.135L418.199 461.792Z" fill="#650195"/>
<path d="M437.361 450.712L375.646 415.124L375.928 414.561L437.737 450.148L437.361 450.712Z" fill="#650195"/>
<path d="M456.43 439.726L394.715 404.044L395.091 403.481L456.806 439.162L456.43 439.726Z" fill="#650195"/>
<path d="M475.593 428.74L413.877 393.058L414.159 392.495L475.874 428.082L475.593 428.74Z" fill="#650195"/>
<path d="M494.662 417.66L432.946 382.072L433.322 381.415L495.037 417.096L494.662 417.66Z" fill="#650195"/>
<path d="M513.824 406.674L452.015 370.992L452.391 370.429L514.106 406.016L513.824 406.674Z" fill="#650195"/>
<path d="M532.893 395.594L471.178 360.006L471.553 359.349L533.269 395.03L532.893 395.594Z" fill="#650195"/>
<path d="M359.114 431.087L346.714 438.317L342.299 435.782L354.793 428.552L359.114 431.087Z" fill="#650195"/>
<path d="M408.523 475.032L403.733 477.755L399.412 475.219L404.108 472.496L408.523 475.032Z" fill="#650195"/>
<path d="M427.498 464.046L422.801 466.769L418.386 464.233L423.177 461.51L427.498 464.046Z" fill="#650195"/>
<path d="M446.567 453.059L441.87 455.782L437.455 453.247L442.246 450.524L446.567 453.059Z" fill="#650195"/>
<path d="M465.636 442.073L460.939 444.796L456.524 442.261L461.221 439.538L465.636 442.073Z" fill="#650195"/>
<path d="M484.704 430.993L479.914 433.81L475.593 431.275L480.29 428.552L484.704 430.993Z" fill="#650195"/>
<path d="M503.679 420.007L498.983 422.73L494.662 420.289L499.358 417.566L503.679 420.007Z" fill="#650195"/>
<path d="M522.748 409.021L518.051 411.744L513.636 409.303L518.427 406.486L522.748 409.021Z" fill="#650195"/>
<path d="M541.817 398.035L537.12 400.758L532.705 398.223L537.402 395.5L541.817 398.035Z" fill="#650195"/>
<path d="M397.345 409.021L384.946 416.251L380.531 413.716L392.93 406.486L397.345 409.021Z" fill="#650195"/>
<path d="M435.577 386.955L423.083 394.185L418.762 391.65L431.162 384.514L435.577 386.955Z" fill="#650195"/>
<path d="M473.808 364.889L461.315 372.119L456.994 369.584L469.393 362.448L473.808 364.889Z" fill="#650195"/>
</g>
<g style="mix-blend-mode:overlay">
<path d="M334.784 441.604C333.751 442.167 332.06 442.167 331.027 441.604C329.994 440.947 329.994 440.008 331.027 439.35C332.06 438.787 333.751 438.787 334.784 439.35C335.912 440.008 335.912 440.947 334.784 441.604Z" fill="#650195"/>
<path d="M340.796 444.984C339.669 445.641 337.978 445.641 336.945 444.984C335.912 444.421 335.912 443.388 336.945 442.825C337.978 442.167 339.669 442.167 340.796 442.825C341.829 443.388 341.829 444.421 340.796 444.984Z" fill="#650195"/>
<path d="M346.714 448.458C345.681 449.022 343.896 449.022 342.863 448.458C341.83 447.801 341.83 446.862 342.863 446.205C343.896 445.641 345.681 445.641 346.714 446.205C347.747 446.862 347.747 447.801 346.714 448.458Z" fill="#650195"/>
<path d="M352.632 451.839C351.599 452.496 349.908 452.496 348.781 451.839C347.748 451.275 347.748 450.242 348.781 449.679C349.908 449.022 351.599 449.022 352.632 449.679C353.665 450.242 353.665 451.275 352.632 451.839Z" fill="#650195"/>
<path d="M358.55 455.313C357.516 455.876 355.826 455.876 354.698 455.313C353.665 454.656 353.665 453.717 354.698 453.06C355.826 452.496 357.516 452.496 358.55 453.06C359.583 453.717 359.583 454.656 358.55 455.313Z" fill="#650195"/>
<path d="M364.468 458.693C363.434 459.257 361.743 459.257 360.71 458.693C359.583 458.13 359.583 457.097 360.71 456.534C361.743 455.876 363.434 455.876 364.468 456.534C365.501 457.097 365.501 458.13 364.468 458.693Z" fill="#650195"/>
<path d="M370.386 462.074C369.353 462.731 367.662 462.731 366.628 462.074C365.595 461.51 365.595 460.571 366.628 459.914C367.662 459.351 369.353 459.351 370.386 459.914C371.419 460.571 371.419 461.51 370.386 462.074Z" fill="#650195"/>
</g>
<g style="mix-blend-mode:overlay">
<path d="M482.262 357.565C481.229 358.128 479.538 358.128 478.505 357.565C477.472 356.907 477.472 355.968 478.505 355.405C479.538 354.748 481.229 354.748 482.262 355.405C483.296 355.968 483.296 356.907 482.262 357.565Z" fill="#650195"/>
<path d="M488.18 360.945C487.147 361.602 485.456 361.602 484.423 360.945C483.39 360.382 483.39 359.349 484.423 358.785C485.456 358.128 487.147 358.128 488.18 358.785C489.214 359.349 489.214 360.382 488.18 360.945Z" fill="#650195"/>
<path d="M494.098 364.419C493.065 364.983 491.374 364.983 490.341 364.419C489.308 363.762 489.308 362.823 490.341 362.166C491.374 361.602 493.065 361.602 494.098 362.166C495.225 362.823 495.225 363.762 494.098 364.419Z" fill="#650195"/>
<path d="M500.11 367.8C498.983 368.457 497.292 368.457 496.259 367.8C495.226 367.236 495.226 366.203 496.259 365.64C497.292 364.983 498.983 364.983 500.11 365.64C501.143 366.203 501.143 367.236 500.11 367.8Z" fill="#650195"/>
<path d="M506.028 371.274C504.9 371.837 503.21 371.837 502.176 371.274C501.143 370.616 501.143 369.677 502.176 369.02C503.21 368.457 504.9 368.457 506.028 369.02C507.061 369.677 507.061 370.616 506.028 371.274Z" fill="#650195"/>
<path d="M511.946 374.654C510.912 375.218 509.128 375.218 508.094 374.654C507.061 374.091 507.061 373.058 508.094 372.495C509.128 371.837 510.912 371.837 511.946 372.495C512.979 373.058 512.979 374.091 511.946 374.654Z" fill="#650195"/>
<path d="M517.864 378.035C516.83 378.692 515.139 378.692 514.012 378.035C512.979 377.471 512.979 376.532 514.012 375.875C515.139 375.312 516.83 375.312 517.864 375.875C518.897 376.532 518.897 377.471 517.864 378.035Z" fill="#650195"/>
</g>
</g>
<g style="mix-blend-mode:overlay">
<path d="M439.334 510.149C439.334 513.154 437.173 516.816 434.637 518.319C432.007 519.821 429.94 518.6 429.94 515.596C429.94 512.591 432.007 508.929 434.637 507.426C437.173 505.924 439.334 507.145 439.334 510.149Z" fill="url(#paint35_linear_1_11)"/>
<path d="M463.663 496.065C463.663 499.07 461.596 502.732 458.966 504.234C456.336 505.736 454.27 504.516 454.27 501.511C454.27 498.506 456.336 494.844 458.966 493.342C461.596 491.933 463.663 493.06 463.663 496.065Z" fill="url(#paint36_linear_1_11)"/>
<path d="M487.992 482.074C487.992 485.079 485.926 488.647 483.295 490.149C480.665 491.652 478.599 490.431 478.599 487.426C478.599 484.515 480.665 480.853 483.295 479.351C485.926 477.849 487.992 479.069 487.992 482.074Z" fill="url(#paint37_linear_1_11)"/>
<path d="M512.321 467.989C512.321 470.994 510.255 474.656 507.624 476.158C505.088 477.661 502.928 476.44 502.928 473.435C502.928 470.431 505.088 466.769 507.624 465.266C510.255 463.764 512.321 464.985 512.321 467.989Z" fill="url(#paint38_linear_1_11)"/>
<path d="M536.745 453.905C536.745 456.909 534.584 460.571 532.048 462.074C529.418 463.576 527.351 462.355 527.351 459.351C527.351 456.346 529.418 452.684 532.048 451.275C534.584 449.773 536.745 450.994 536.745 453.905Z" fill="url(#paint39_linear_1_11)"/>
<path d="M561.074 439.914C561.074 442.918 558.913 446.486 556.377 447.989C553.747 449.491 551.68 448.271 551.68 445.36C551.68 442.355 553.747 438.693 556.377 437.191C558.913 435.688 561.074 436.909 561.074 439.914Z" fill="url(#paint40_linear_1_11)"/>
</g>
<path d="M265.46 547.427C265.085 547.427 264.771 547.333 264.521 547.145L87.6415 444.796C87.0779 444.421 86.7021 443.857 86.7021 443.2C86.7021 442.449 87.0779 441.885 87.6415 441.51L151.235 404.889C152.081 404.326 153.302 404.608 153.772 405.547C154.335 406.392 153.96 407.612 153.114 408.082L92.3382 443.2L265.46 543.389L328.021 507.239C328.96 506.675 330.088 506.957 330.651 507.896C331.121 508.741 330.839 509.962 329.9 510.431L266.4 547.145C266.087 547.333 265.773 547.427 265.46 547.427Z" fill="url(#paint41_linear_1_11)"/>
<path fill-rule="evenodd" clip-rule="evenodd" d="M112.816 414.561L134.421 411.181L142.405 428.364L120.706 431.744C120.425 435.688 118.64 439.538 115.446 443.2L131.227 452.308L109.528 464.89L93.6531 455.688C87.4534 457.566 80.6901 458.599 73.8328 458.787L68.0089 471.276L38.3254 466.675L44.1494 454.186C41.2687 453.122 38.5759 451.87 36.071 450.43C33.5661 448.99 31.4056 447.457 29.5895 445.829L7.98447 449.116L0 432.026L21.605 428.646C21.9808 424.702 23.7655 420.852 26.9593 417.19L11.0843 408.082L32.8772 395.5L48.6583 404.608C54.9519 402.824 61.7152 401.791 68.5725 401.603L74.3025 389.115L104.08 393.716L98.2559 406.204C101.137 407.268 103.798 408.52 106.24 409.96C108.745 411.4 110.937 412.933 112.816 414.561ZM88.8624 420.007C79.0932 414.373 63.3121 414.373 53.5429 420.007C43.7737 425.641 43.7737 434.749 53.5429 440.383C63.3121 446.017 79.0932 446.017 88.8624 440.383C98.5377 434.749 98.5377 425.641 88.8624 420.007Z" fill="url(#paint42_linear_1_11)"/>
<path d="M93.5593 436.533C92.3382 435.219 90.8352 433.904 88.8626 432.777C79.0933 427.143 63.3123 427.143 53.543 432.777C51.5704 433.904 49.9735 435.219 48.8463 436.533C44.2435 431.181 45.7464 424.514 53.543 420.007C63.3123 414.373 79.0933 414.373 88.8626 420.007C97.5046 424.984 98.4439 432.871 91.5867 438.411C92.3382 437.848 92.9957 437.222 93.5593 436.533Z" fill="url(#paint43_linear_1_11)"/>
<path d="M44.1494 454.186L38.3254 466.674L39.1709 464.796C38.1063 464.296 37.073 463.764 36.071 463.2C33.5661 461.76 31.4056 460.227 29.5895 458.599L7.98447 461.98L0 444.796H0.0939349L0 444.608H0.0939349L0 444.514H0.0939349L0 444.421H0.0939349L0 444.233H0.0939349L0 444.139H0.0939349L0 444.045H0.0939349L0 443.857H0.0939349L0 443.763H0.0939349L0 443.669H0.0939349L0 443.482H0.0939349L0 443.388H0.0939349L0 443.294H0.0939349L0 443.106H0.0939349L0 443.012H0.0939349L0 442.918L0.0939349 442.824L0 442.73H0.0939349L0 442.636H0.0939349L0 442.543L0.0939349 442.449L0 442.355H0.0939349L0 442.261H0.0939349L0 442.167L0.0939349 442.073L0 441.979H0.0939349L0 441.885H0.0939349L0 441.697H0.0939349L0 441.604H0.0939349L0 441.51H0.0939349L0 441.322H0.0939349L0 441.228H0.0939349L0 441.134H0.0939349L0 440.946H0.0939349L0 440.852H0.0939349L0 440.759H0.0939349L0 440.571H0.0939349L0 440.477H0.0939349L0 440.383H0.0939349L0 440.195H0.0939349L0 440.101H0.0939349L0 440.007H0.0939349L0 439.82H0.0939349L0 439.726H0.0939349L0 439.632L0.0939349 439.538L0 439.444H0.0939349L0 439.35H0.0939349L0 439.256L0.0939349 439.162L0 439.068H0.0939349L0 438.974H0.0939349L0 438.787H0.0939349L0 438.693H0.0939349L0 438.599H0.0939349L0 438.411H0.0939349L0 438.317H0.0939349L0 438.223H0.0939349L0 438.035H0.0939349L0 437.942H0.0939349L0 437.848H0.0939349L0 437.66H0.0939349L0 437.566H0.0939349L0 437.472H0.0939349L0 437.284H0.0939349L0 437.19H0.0939349L0 437.096H0.0939349L0 436.909H0.0939349L0 436.815H0.0939349L0 436.721L0.0939349 436.627L0 436.533H0.0939349L0 436.439H0.0939349L0 436.345L0.0939349 436.251L0 436.157H0.0939349L0 436.064H0.0939349L0 435.97L0.0939349 435.876L0 435.782H0.0939349L0 435.688H0.0939349L0 435.5H0.0939349L0 435.406H0.0939349L0 435.312H0.0939349L0 435.125H0.0939349L0 435.031H0.0939349L0 434.937H0.0939349L0 434.749H0.0939349L0 434.655H0.0939349L0 434.561H0.0939349L0 434.373H0.0939349L0 434.28H0.0939349L0 434.186H0.0939349L0 433.998H0.0939349L0 433.904H0.0939349L0 433.81H0.0939349L0 433.622H0.0939349L0 433.528H0.0939349L0 433.434L0.0939349 433.341L0 433.247H0.0939349L0 433.153H0.0939349L0 433.059L0.0939349 432.965L0 432.871H0.0939349L0 432.777H0.0939349L0 432.589H0.0939349L0 432.495H0.0939349L0 432.402H0.0939349L0 432.214H0.0939349L0 432.12H0.0939349L7.98447 449.115L29.5895 445.829C31.4056 447.457 33.5661 448.99 36.071 450.43C38.5759 451.87 41.2687 453.122 44.1494 454.186Z" fill="url(#paint44_linear_1_11)"/>
<path d="M131.227 452.308L131.133 452.402H131.227L131.133 452.496L131.227 452.59H131.133L131.227 452.684L131.133 452.778H131.227L131.133 452.871L131.227 452.965H131.133L131.227 453.059L131.133 453.153H131.227L131.133 453.247L131.227 453.341H131.133L131.227 453.435L131.133 453.529H131.227L131.133 453.623L131.227 453.717H131.133L131.227 453.81L131.133 453.904H131.227L131.133 453.998L131.227 454.092H131.133L131.227 454.186L131.133 454.28H131.227L131.133 454.374L131.227 454.468H131.133L131.227 454.562L131.133 454.656H131.227L131.133 454.749L131.227 454.843L131.133 454.937H131.227L131.133 455.031L131.227 455.125H131.133L131.227 455.219L131.133 455.313H131.227L131.133 455.407L131.227 455.501H131.133L131.227 455.595L131.133 455.688H131.227L131.133 455.782L131.227 455.876H131.133L131.227 455.97L131.133 456.064H131.227L131.133 456.158L131.227 456.252H131.133L131.227 456.346L131.133 456.44H131.227L131.133 456.534L131.227 456.627H131.133L131.227 456.721L131.133 456.815H131.227L131.133 456.909L131.227 457.003H131.133L131.227 457.097L131.133 457.191H131.227L131.133 457.285L131.227 457.379H131.133L131.227 457.473L131.133 457.566H131.227L131.133 457.66L131.227 457.754H131.133L131.227 457.848L131.133 457.942L131.227 458.036H131.133L131.227 458.13L131.133 458.224H131.227L131.133 458.318L131.227 458.411H131.133L131.227 458.505L131.133 458.599H131.227L131.133 458.693L131.227 458.787H131.133L131.227 458.881L131.133 458.975H131.227L131.133 459.069L131.227 459.163H131.133L131.227 459.257L131.133 459.35H131.227L131.133 459.444L131.227 459.538H131.133L131.227 459.632L131.133 459.726H131.227L131.133 459.82L131.227 459.914H131.133L131.227 460.008L131.133 460.102H131.227L131.133 460.196L131.227 460.289H131.133L131.227 460.383L131.133 460.477H131.227L131.133 460.571L131.227 460.665H131.133L131.227 460.759L131.133 460.853H131.227L131.133 460.947L131.227 461.041L131.133 461.135H131.227L131.133 461.228L131.227 461.322H131.133L131.227 461.416L131.133 461.51H131.227L131.133 461.604L131.227 461.698H131.133L131.227 461.792L131.133 461.886H131.227L131.133 461.98L131.227 462.074H131.133L131.227 462.167L131.133 462.261H131.227L131.133 462.355L131.227 462.449H131.133L131.227 462.543L131.133 462.637H131.227L131.133 462.731L131.227 462.825H131.133L131.227 462.919L131.133 463.013H131.227L131.133 463.106L131.227 463.2H131.133L131.227 463.294L131.133 463.388H131.227L131.133 463.482L131.227 463.576H131.133L131.227 463.67L131.133 463.764H131.227L131.133 463.858L131.227 463.951H131.133L131.227 464.045L131.133 464.139L131.227 464.233H131.133L131.227 464.327L131.133 464.421H131.227L131.133 464.515L131.227 464.609H131.133L131.227 464.703L131.133 464.797H131.227L131.133 464.89L131.227 464.984H131.133L131.227 465.078L109.528 477.661L93.6529 468.459C87.4532 470.337 80.6898 471.369 73.8326 471.557L68.0086 484.046L38.3252 479.445V479.351V479.163V479.069V478.975V478.787V478.694V478.6V478.412V478.318V478.224V478.036V477.942V477.848V477.755V477.661V477.567V477.473V477.379V477.285V477.191V477.097V477.003V476.909V476.816V476.628V476.534V476.44V476.252V476.158V476.064V475.877V475.783V475.689V475.501V475.407V475.313V475.125V475.031V474.938V474.75V474.656V474.562V474.468V474.374V474.28V474.186V474.092V473.999V473.905V473.717V473.623V473.529V473.341V473.247V473.154V472.966V472.872V472.778V472.59V472.496V472.402V472.215V472.121V472.027V471.839V471.745V471.651V471.557V471.463V471.369V471.276V471.182V471.088V470.994V470.9V470.806V470.712V470.618V470.43V470.337V470.243V470.055V469.961V469.867V469.679V469.585V469.491V469.304V469.21V469.116V468.928V468.834V468.74V468.552V468.459V468.365V468.271V468.177V468.083V467.989V467.895V467.801V467.707V467.52V467.426V467.332V467.144V467.05V466.956V466.768V466.675L68.0086 471.276L73.8326 458.787C80.6898 458.599 87.4532 457.566 93.6529 455.688L109.528 464.89L131.227 452.308Z" fill="url(#paint45_linear_1_11)"/>
<path d="M142.405 428.458L142.311 428.552L142.405 428.646H142.311L142.405 428.74H142.311L142.405 428.927H142.311L142.405 429.021H142.311L142.405 429.115H142.311L142.405 429.303H142.311L142.405 429.397H142.311L142.405 429.491H142.311L142.405 429.679H142.311L142.405 429.772H142.311L142.405 429.866H142.311L142.405 430.054H142.311L142.405 430.148H142.311L142.405 430.242H142.311L142.405 430.43H142.311L142.405 430.524H142.311L142.405 430.618H142.311L142.405 430.805H142.311L142.405 430.899H142.311L142.405 430.993L142.311 431.087L142.405 431.181H142.311L142.405 431.275H142.311L142.405 431.369L142.311 431.463L142.405 431.557H142.311L142.405 431.65H142.311L142.405 431.838H142.311L142.405 431.932H142.311L142.405 432.026H142.311L142.405 432.214H142.311L142.405 432.308H142.311L142.405 432.402H142.311L142.405 432.589H142.311L142.405 432.683H142.311L142.405 432.777H142.311L142.405 432.965H142.311L142.405 433.059H142.311L142.405 433.153H142.311L142.405 433.341H142.311L142.405 433.435H142.311L142.405 433.528H142.311L142.405 433.716H142.311L142.405 433.81H142.311L142.405 433.904L142.311 433.998L142.405 434.092H142.311L142.405 434.186H142.311L142.405 434.28L142.311 434.373L142.405 434.467H142.311L142.405 434.561H142.311L142.405 434.749H142.311L142.405 434.843H142.311L142.405 434.937H142.311L142.405 435.125H142.311L142.405 435.219H142.311L142.405 435.312H142.311L142.405 435.5H142.311L142.405 435.594H142.311L142.405 435.688H142.311L142.405 435.876H142.311L142.405 435.97H142.311L142.405 436.064H142.311L142.405 436.251H142.311L142.405 436.345H142.311L142.405 436.439H142.311L142.405 436.627H142.311L142.405 436.721H142.311L142.405 436.815H142.311L142.405 437.003H142.311L142.405 437.097H142.311L142.405 437.19L142.311 437.284L142.405 437.378H142.311L142.405 437.472H142.311L142.405 437.566L142.311 437.66L142.405 437.754H142.311L142.405 437.848H142.311L142.405 438.036H142.311L142.405 438.129H142.311L142.405 438.223H142.311L142.405 438.411H142.311L142.405 438.505H142.311L142.405 438.599H142.311L142.405 438.787H142.311L142.405 438.881H142.311L142.405 438.975H142.311L142.405 439.162H142.311L142.405 439.256H142.311L142.405 439.35H142.311L142.405 439.538H142.311L142.405 439.632H142.311L142.405 439.726H142.311L142.405 439.913H142.311L142.405 440.007H142.311L142.405 440.101L142.311 440.195L142.405 440.289H142.311L142.405 440.383H142.311L142.405 440.477L142.311 440.571L142.405 440.665H142.311L142.405 440.759H142.311L142.405 440.946H142.311L142.405 441.04H142.311L142.405 441.134L120.706 444.515C120.706 445.015 120.644 445.547 120.518 446.111L115.446 443.2C118.64 439.538 120.424 435.688 120.706 431.744L142.405 428.364H142.311L142.405 428.458Z" fill="url(#paint46_linear_1_11)"/>
<path d="M103.234 408.27C101.606 407.518 99.9467 406.83 98.2559 406.204L103.986 393.809H104.08L103.986 393.997H104.08L103.986 394.091H104.08L103.986 394.185H104.08L103.986 394.373H104.08L103.986 394.467H104.08L103.986 394.561H104.08L103.986 394.748H104.08L103.986 394.842H104.08L103.986 394.936H104.08L103.986 395.124H104.08L103.986 395.218H104.08L103.986 395.312H104.08L103.986 395.5H104.08L103.986 395.593H104.08L103.986 395.687H104.08L103.986 395.875H104.08L103.986 395.969H104.08L103.986 396.063L104.08 396.157L103.986 396.251H104.08L103.986 396.345H104.08L103.986 396.438L104.08 396.532L103.986 396.626H104.08L103.986 396.72H104.08L103.986 396.908H104.08L103.986 397.002H104.08L103.986 397.096H104.08L103.986 397.284H104.08L103.986 397.377H104.08L103.986 397.471H104.08L103.986 397.659H104.08L103.986 397.753H104.08L103.986 397.847H104.08L103.986 398.035H104.08L103.986 398.129H104.08L103.986 398.223H104.08L103.986 398.41H104.08L103.986 398.504H104.08L103.986 398.598H104.08L103.986 398.786H104.08L103.986 398.88H104.08L103.986 398.974L104.08 399.068L103.986 399.162H104.08L103.986 399.255H104.08L103.986 399.349L104.08 399.443L103.986 399.537H104.08L103.986 399.631H104.08L103.986 399.819H104.08L103.986 399.913H104.08L103.986 400.007H104.08L103.986 400.194H104.08L103.986 400.288H104.08L103.986 400.382H104.08L103.986 400.57H104.08L103.986 400.664H104.08L103.986 400.758H104.08L103.986 400.946H104.08L103.986 401.04H104.08L103.986 401.133H104.08L103.986 401.321H104.08L103.986 401.415H104.08L103.986 401.509H104.08L103.986 401.697H104.08L103.986 401.791H104.08L103.986 401.885H104.08L103.986 402.072H104.08L103.986 402.166H104.08L103.986 402.26L104.08 402.354L103.986 402.448H104.08L103.986 402.542H104.08L103.986 402.636L104.08 402.73L103.986 402.824H104.08L103.986 402.917H104.08L103.986 403.105H104.08L103.986 403.199H104.08L103.986 403.293H104.08L103.986 403.481H104.08L103.986 403.575H104.08L103.986 403.669H104.08L103.986 403.856H104.08L103.986 403.95H104.08L103.986 404.044H104.08L103.986 404.232H104.08L103.986 404.326H104.08L103.986 404.42H104.08L103.986 404.608H104.08L103.986 404.702H104.08L103.986 404.795H104.08L103.986 404.983H104.08L103.986 405.077H104.08L103.986 405.171L104.08 405.265L103.986 405.359H104.08L103.986 405.453H104.08L103.986 405.547L104.08 405.641L103.986 405.734H104.08L103.986 405.828H104.08L103.986 406.016H104.08L103.986 406.11H104.08L103.986 406.204H104.08L103.986 406.392H104.08L103.986 406.486H104.08L103.234 408.27Z" fill="url(#paint47_linear_1_11)"/>
<path d="M11.0845 420.852L11.1784 420.758H11.0845L11.1784 420.664L11.0845 420.57H11.1784L11.0845 420.477L11.1784 420.383H11.0845L11.1784 420.289L11.0845 420.195H11.1784L11.0845 420.101L11.1784 420.007H11.0845L11.1784 419.913L11.0845 419.819H11.1784L11.0845 419.725L11.1784 419.632H11.0845L11.1784 419.538L11.0845 419.444H11.1784L11.0845 419.35L11.1784 419.256H11.0845L11.1784 419.162L11.0845 419.068H11.1784L11.0845 418.974L11.1784 418.88L11.0845 418.786H11.1784L11.0845 418.693L11.1784 418.599H11.0845L11.1784 418.505L11.0845 418.411H11.1784L11.0845 418.317L11.1784 418.223H11.0845L11.1784 418.129L11.0845 418.035H11.1784L11.0845 417.941L11.1784 417.847H11.0845L11.1784 417.754L11.0845 417.66H11.1784L11.0845 417.566L11.1784 417.472H11.0845L11.1784 417.378L11.0845 417.284H11.1784L11.0845 417.19L11.1784 417.096H11.0845L11.1784 417.002L11.0845 416.908H11.1784L11.0845 416.815L11.1784 416.721H11.0845L11.1784 416.627L11.0845 416.533H11.1784L11.0845 416.439L11.1784 416.345H11.0845L11.1784 416.251L11.0845 416.157H11.1784L11.0845 416.063L11.1784 415.969H11.0845L11.1784 415.876L11.0845 415.782L11.1784 415.688H11.0845L11.1784 415.594L11.0845 415.5H11.1784L11.0845 415.406L11.1784 415.312H11.0845L11.1784 415.218L11.0845 415.124H11.1784L11.0845 415.03L11.1784 414.937H11.0845L11.1784 414.843L11.0845 414.749H11.1784L11.0845 414.655L11.1784 414.561H11.0845L11.1784 414.467L11.0845 414.373H11.1784L11.0845 414.279L11.1784 414.185H11.0845L11.1784 414.092L11.0845 413.998H11.1784L11.0845 413.904L11.1784 413.81H11.0845L11.1784 413.716L11.0845 413.622H11.1784L11.0845 413.528L11.1784 413.434H11.0845L11.1784 413.34L11.0845 413.246H11.1784L11.0845 413.153L11.1784 413.059H11.0845L11.1784 412.965L11.0845 412.871H11.1784L11.0845 412.777L11.1784 412.683L11.0845 412.589H11.1784L11.0845 412.495L11.1784 412.401H11.0845L11.1784 412.307L11.0845 412.214H11.1784L11.0845 412.12L11.1784 412.026H11.0845L11.1784 411.932L11.0845 411.838H11.1784L11.0845 411.744L11.1784 411.65H11.0845L11.1784 411.556L11.0845 411.462H11.1784L11.0845 411.368L11.1784 411.275H11.0845L11.1784 411.181L11.0845 411.087H11.1784L11.0845 410.993L11.1784 410.899H11.0845L11.1784 410.805L11.0845 410.711H11.1784L11.0845 410.617L11.1784 410.523H11.0845L11.1784 410.429L11.0845 410.336H11.1784L11.0845 410.242L11.1784 410.148H11.0845L11.1784 410.054L11.0845 409.96H11.1784L11.0845 409.866L11.1784 409.772H11.0845L11.1784 409.678L11.0845 409.584L11.1784 409.491H11.0845L11.1784 409.397L11.0845 409.303H11.1784L11.0845 409.209L11.1784 409.115H11.0845L11.1784 409.021L11.0845 408.927H11.1784L11.0845 408.833L11.1784 408.739H11.0845L11.1784 408.645L11.0845 408.552H11.1784L11.0845 408.458L11.1784 408.364H11.0845L11.1784 408.27L11.0845 408.176H11.1784L11.0845 408.082L26.9595 417.19C24.2354 420.289 22.5445 423.669 21.887 427.049L11.0845 420.852Z" fill="url(#paint48_linear_1_11)"/>
<g style="mix-blend-mode:screen">
<path d="M33.4406 339.442L22.9199 345.452V298.127L33.4406 292.024V339.442Z" fill="url(#paint49_linear_1_11)"/>
<path d="M49.4099 330.24L38.8892 336.25V269.676L49.4099 263.573V330.24Z" fill="url(#paint50_linear_1_11)"/>
<path d="M38.8892 253.338L49.4099 247.328V258.408L38.8892 264.418V253.338Z" fill="#05D3FF"/>
<path d="M38.8892 245.168L49.4099 239.159V242.915L38.8892 249.018V245.168Z" fill="#05D3FF"/>
<path d="M65.3786 321.038L54.8579 327.048V295.592L65.3786 289.582V321.038Z" fill="url(#paint51_linear_1_11)"/>
<path d="M65.3786 284.324L54.8579 290.333V283.667L65.3786 277.657V284.324Z" fill="#05D3FF"/>
<path d="M65.3786 272.399L54.8579 278.502V275.122L65.3786 269.019V272.399Z" fill="#05D3FF"/>
<path d="M32.8772 287.798L22.3564 293.808V287.141L32.8772 281.132V287.798Z" fill="#05D3FF"/>
<path d="M32.8772 275.873L22.3564 281.883V278.596L32.8772 272.493V275.873Z" fill="#05D3FF"/>
</g>
<g style="mix-blend-mode:screen">
<path d="M312.709 178.125L302.188 184.135V136.81L312.709 130.707V178.125Z" fill="url(#paint52_linear_1_11)"/>
<path d="M328.584 168.923L318.063 174.933V108.359L328.584 102.255V168.923Z" fill="url(#paint53_linear_1_11)"/>
<path d="M318.063 92.0205L328.584 86.011V97.091L318.063 103.1V92.0205Z" fill="#05D3FF"/>
<path d="M318.063 83.8513L328.584 77.8418V81.5977L318.063 87.7011V83.8513Z" fill="#05D3FF"/>
<path d="M344.553 159.721L334.033 165.731V134.275L344.553 128.265V159.721Z" fill="url(#paint54_linear_1_11)"/>
<path d="M344.553 123.007L334.033 129.11V122.35L344.553 116.34V123.007Z" fill="#05D3FF"/>
<path d="M344.553 111.082L334.033 117.185V113.805L344.553 107.701V111.082Z" fill="#05D3FF"/>
<path d="M312.052 126.481L301.625 132.491V125.824L312.052 119.814V126.481Z" fill="#05D3FF"/>
<path d="M312.052 114.556L301.625 120.566V117.279L312.052 111.176V114.556Z" fill="#05D3FF"/>
</g>
<path d="M515.515 219.252C513.824 225.638 508.657 231.553 500.673 236.06C481.886 246.952 451.639 247.985 430.691 238.502L463.287 214.464L515.515 219.252Z" fill="url(#paint55_linear_1_11)"/>
<path d="M430.692 238.502C429.001 237.751 427.404 236.937 425.901 236.06C405.329 224.229 405.329 204.792 425.901 192.961C434.261 188.078 445.158 185.074 456.806 184.229L463.287 214.464L430.692 238.502Z" fill="url(#paint56_linear_1_11)"/>
<path d="M456.806 184.228C472.962 183.008 489.213 186.294 500.673 192.961C512.697 199.815 518.145 209.581 515.515 219.252L463.287 214.464L456.806 184.228Z" fill="url(#paint57_linear_1_11)"/>
<path d="M500.673 236.06C508.657 231.553 513.824 225.638 515.515 219.252V236.436C513.824 242.821 508.657 248.737 500.673 253.244C481.886 264.136 451.639 265.169 430.691 255.779V238.502C451.639 247.985 481.886 246.952 500.673 236.06Z" fill="url(#paint58_linear_1_11)"/>
<path d="M425.901 236.06C427.404 236.937 429.001 237.751 430.691 238.502V255.779C429.001 254.965 427.404 254.12 425.901 253.244C415.568 247.328 410.401 239.441 410.495 231.553V214.933C410.495 214.808 410.495 214.714 410.495 214.652C410.589 222.445 415.662 230.239 425.901 236.06Z" fill="url(#paint59_linear_1_11)"/>
<defs>
<linearGradient id="paint0_linear_1_11" x1="-5105.37" y1="85544.4" x2="121847" y2="-30882.4" gradientUnits="userSpaceOnUse">
<stop stop-color="#00B7E1"/>
<stop offset="1" stop-color="#E83D9B"/>
</linearGradient>
<linearGradient id="paint1_linear_1_11" x1="148746" y1="71607.1" x2="104710" y2="31711.7" gradientUnits="userSpaceOnUse">
<stop stop-color="#00B7E1"/>
<stop offset="1" stop-color="#E83D9B"/>
</linearGradient>
<linearGradient id="paint2_linear_1_11" x1="34664.6" y1="10654.1" x2="36684.7" y2="12973.2" gradientUnits="userSpaceOnUse">
<stop stop-color="#00B7E1"/>
<stop offset="1" stop-color="#E83D9B"/>
</linearGradient>
<linearGradient id="paint3_linear_1_11" x1="13445.9" y1="17766.7" x2="15465.8" y2="20086.9" gradientUnits="userSpaceOnUse">
<stop stop-color="#00B7E1"/>
<stop offset="1" stop-color="#E83D9B"/>
</linearGradient>
<linearGradient id="paint4_linear_1_11" x1="55608.4" y1="123112" x2="-1727.55" y2="108479" gradientUnits="userSpaceOnUse">
<stop stop-color="#2B79BE"/>
<stop offset="1" stop-color="#545BA8"/>
</linearGradient>
<linearGradient id="paint5_linear_1_11" x1="101289" y1="56767.8" x2="39158.7" y2="115435" gradientUnits="userSpaceOnUse">
<stop stop-color="#4352A3"/>
<stop offset="1" stop-color="#693192"/>
</linearGradient>
<linearGradient id="paint6_linear_1_11" x1="1.59417e+07" y1="3.7584e+07" x2="6.47198e+06" y2="4.97514e+07" gradientUnits="userSpaceOnUse">
<stop stop-color="#FEFEFE"/>
<stop offset="1" stop-color="#FEFEFE" stop-opacity="0"/>
</linearGradient>
<linearGradient id="paint7_linear_1_11" x1="150108" y1="88594.8" x2="42564.4" y2="101894" gradientUnits="userSpaceOnUse">
<stop stop-color="#2B79BE"/>
<stop offset="1" stop-color="#545BA8"/>
</linearGradient>
<linearGradient id="paint8_linear_1_11" x1="155428" y1="51476" x2="45220.9" y2="86234" gradientUnits="userSpaceOnUse">
<stop stop-color="#4352A3"/>
<stop offset="1" stop-color="#693192"/>
</linearGradient>
<linearGradient id="paint9_linear_1_11" x1="97813.1" y1="50058.8" x2="40930.2" y2="81108.2" gradientUnits="userSpaceOnUse">
<stop stop-color="#58C5F0"/>
<stop offset="1" stop-color="#545BA8"/>
</linearGradient>
<linearGradient id="paint10_linear_1_11" x1="91513.4" y1="33000" x2="55828.5" y2="58710.7" gradientUnits="userSpaceOnUse">
<stop stop-color="#4352A3"/>
<stop offset="1" stop-color="#693192"/>
</linearGradient>
<linearGradient id="paint11_linear_1_11" x1="29444.3" y1="16520.4" x2="23696.1" y2="21148.1" gradientUnits="userSpaceOnUse">
<stop stop-color="#58C5F0"/>
<stop offset="1" stop-color="#545BA8"/>
</linearGradient>
<linearGradient id="paint12_linear_1_11" x1="28523.2" y1="12375.3" x2="24230.1" y2="15317.5" gradientUnits="userSpaceOnUse">
<stop stop-color="#4352A3"/>
<stop offset="1" stop-color="#693192"/>
</linearGradient>
<linearGradient id="paint13_linear_1_11" x1="89744" y1="44107.1" x2="44659.1" y2="70069.3" gradientUnits="userSpaceOnUse">
<stop stop-color="#DBF0F4"/>
<stop offset="1" stop-color="#58C5F0"/>
</linearGradient>
<linearGradient id="paint14_linear_1_11" x1="15699.9" y1="35200.5" x2="10815.1" y2="36794" gradientUnits="userSpaceOnUse">
<stop stop-color="#58C5F0"/>
<stop offset="1" stop-color="#2B79BE"/>
</linearGradient>
<linearGradient id="paint15_linear_1_11" x1="203.898" y1="33759.5" x2="203.898" y2="13662.6" gradientUnits="userSpaceOnUse">
<stop offset="0.1" stop-color="#4CC9F4"/>
<stop offset="1" stop-color="#020405" stop-opacity="0"/>
</linearGradient>
<linearGradient id="paint16_linear_1_11" x1="11362.9" y1="39088.9" x2="9248.27" y2="39404" gradientUnits="userSpaceOnUse">
<stop stop-color="#58C5F0"/>
<stop offset="1" stop-color="#2B79BE"/>
</linearGradient>
<linearGradient id="paint17_linear_1_11" x1="11894.5" y1="20732.5" x2="7691" y2="24444.9" gradientUnits="userSpaceOnUse">
<stop stop-color="#DBF0F4"/>
<stop offset="1" stop-color="#2B79BE"/>
</linearGradient>
<linearGradient id="paint18_linear_1_11" x1="2459.36" y1="25624.7" x2="2459.36" y2="15547.9" gradientUnits="userSpaceOnUse">
<stop offset="0.1" stop-color="#4CC9F4"/>
<stop offset="1" stop-color="#020405" stop-opacity="0"/>
</linearGradient>
<linearGradient id="paint19_linear_1_11" x1="9163.92" y1="25855.7" x2="6763.13" y2="26495.1" gradientUnits="userSpaceOnUse">
<stop stop-color="#DBF0F4"/>
<stop offset="1" stop-color="#2B79BE"/>
</linearGradient>
<linearGradient id="paint20_linear_1_11" x1="8378.9" y1="16539.2" x2="6182.59" y2="19018.6" gradientUnits="userSpaceOnUse">
<stop stop-color="#E83D9B"/>
<stop offset="1" stop-color="#653695"/>
</linearGradient>
<linearGradient id="paint21_linear_1_11" x1="2877.01" y1="19378.3" x2="2877.01" y2="14394.6" gradientUnits="userSpaceOnUse">
<stop stop-color="#FDDBA5"/>
<stop offset="0.4" stop-color="#FABA8C"/>
<stop offset="1" stop-color="#F48572"/>
</linearGradient>
<linearGradient id="paint22_linear_1_11" x1="6532.57" y1="18752.3" x2="4426.34" y2="19364.6" gradientUnits="userSpaceOnUse">
<stop stop-color="#E83D9B"/>
<stop offset="1" stop-color="#653695"/>
</linearGradient>
<linearGradient id="paint23_linear_1_11" x1="-4897.96" y1="26083.9" x2="30400.1" y2="-7634.04" gradientUnits="userSpaceOnUse">
<stop stop-color="#00B7E1"/>
<stop offset="1" stop-color="#E83D9B"/>
</linearGradient>
<linearGradient id="paint24_linear_1_11" x1="12401.3" y1="17095.3" x2="6341.69" y2="23672.8" gradientUnits="userSpaceOnUse">
<stop stop-color="#4352A3"/>
<stop offset="1" stop-color="#693192"/>
</linearGradient>
<linearGradient id="paint25_linear_1_11" x1="20542.3" y1="3315.15" x2="15556.6" y2="9304.85" gradientUnits="userSpaceOnUse">
<stop stop-color="#4352A3"/>
<stop offset="1" stop-color="#693192"/>
</linearGradient>
<linearGradient id="paint26_linear_1_11" x1="20588" y1="10315.3" x2="13251" y2="20872.4" gradientUnits="userSpaceOnUse">
<stop stop-color="#4352A3"/>
<stop offset="1" stop-color="#693192"/>
</linearGradient>
<linearGradient id="paint27_linear_1_11" x1="4341.39" y1="6176.33" x2="3662.74" y2="5497.32" gradientUnits="userSpaceOnUse">
<stop stop-color="#4352A3"/>
<stop offset="1" stop-color="#693192"/>
</linearGradient>
<linearGradient id="paint28_linear_1_11" x1="3947.78" y1="4608.53" x2="3436.4" y2="3706.9" gradientUnits="userSpaceOnUse">
<stop stop-color="#4352A3"/>
<stop offset="1" stop-color="#693192"/>
</linearGradient>
<linearGradient id="paint29_linear_1_11" x1="180417" y1="95162" x2="97471.1" y2="105393" gradientUnits="userSpaceOnUse">
<stop stop-color="#DBF0F4"/>
<stop offset="1" stop-color="#2B79BE"/>
</linearGradient>
<linearGradient id="paint30_linear_1_11" x1="186449" y1="91072.6" x2="95083.9" y2="110030" gradientUnits="userSpaceOnUse">
<stop stop-color="#4352A3"/>
<stop offset="1" stop-color="#693192"/>
</linearGradient>
<linearGradient id="paint31_linear_1_11" x1="18226.5" y1="10793.6" x2="19737" y2="10793.6" gradientUnits="userSpaceOnUse">
<stop stop-color="#FAFCFD" stop-opacity="0"/>
<stop offset="1" stop-color="#E83D9B"/>
</linearGradient>
<linearGradient id="paint32_linear_1_11" x1="19499.5" y1="10029.8" x2="20950.3" y2="10029.8" gradientUnits="userSpaceOnUse">
<stop stop-color="#FAFCFD" stop-opacity="0"/>
<stop offset="1" stop-color="#00B7E1"/>
</linearGradient>
<linearGradient id="paint33_linear_1_11" x1="73798.1" y1="49371.7" x2="66797.3" y2="28824.6" gradientUnits="userSpaceOnUse">
<stop stop-color="#FAFCFD" stop-opacity="0"/>
<stop offset="1" stop-color="#00B7E1"/>
</linearGradient>
<linearGradient id="paint34_linear_1_11" x1="66951.3" y1="46160.9" x2="61126" y2="29999.8" gradientUnits="userSpaceOnUse">
<stop stop-color="#FAFCFD" stop-opacity="0"/>
<stop offset="1" stop-color="#E83D9B"/>
</linearGradient>
<linearGradient id="paint35_linear_1_11" x1="5834.95" y1="5240.4" x2="4253.79" y2="7311.79" gradientUnits="userSpaceOnUse">
<stop stop-color="#DBF0F4"/>
<stop offset="1" stop-color="#2B79BE"/>
</linearGradient>
<linearGradient id="paint36_linear_1_11" x1="5906.25" y1="5408.18" x2="4330.97" y2="7476.07" gradientUnits="userSpaceOnUse">
<stop stop-color="#DBF0F4"/>
<stop offset="1" stop-color="#2B79BE"/>
</linearGradient>
<linearGradient id="paint37_linear_1_11" x1="5976.61" y1="5568.56" x2="4409.83" y2="7635.3" gradientUnits="userSpaceOnUse">
<stop stop-color="#DBF0F4"/>
<stop offset="1" stop-color="#2B79BE"/>
</linearGradient>
<linearGradient id="paint38_linear_1_11" x1="6046.97" y1="5792.54" x2="4465.8" y2="7863.93" gradientUnits="userSpaceOnUse">
<stop stop-color="#DBF0F4"/>
<stop offset="1" stop-color="#2B79BE"/>
</linearGradient>
<linearGradient id="paint39_linear_1_11" x1="6117.42" y1="5935.49" x2="4551.47" y2="8001.45" gradientUnits="userSpaceOnUse">
<stop stop-color="#DBF0F4"/>
<stop offset="1" stop-color="#2B79BE"/>
</linearGradient>
<linearGradient id="paint40_linear_1_11" x1="6188.71" y1="6117.2" x2="4621.55" y2="8184.05" gradientUnits="userSpaceOnUse">
<stop stop-color="#DBF0F4"/>
<stop offset="1" stop-color="#2B79BE"/>
</linearGradient>
<linearGradient id="paint41_linear_1_11" x1="33269.7" y1="51150.9" x2="76298.5" y2="93612.5" gradientUnits="userSpaceOnUse">
<stop stop-color="#00B7E1"/>
<stop offset="1" stop-color="#E83D9B"/>
</linearGradient>
<linearGradient id="paint42_linear_1_11" x1="23012.7" y1="40804.1" x2="-789.719" y2="47601.9" gradientUnits="userSpaceOnUse">
<stop stop-color="#DBF0F4"/>
<stop offset="1" stop-color="#2B79BE"/>
</linearGradient>
<linearGradient id="paint43_linear_1_11" x1="5182.26" y1="10920.4" x2="2631.99" y2="11625.4" gradientUnits="userSpaceOnUse">
<stop stop-color="#4352A3"/>
<stop offset="1" stop-color="#693192"/>
</linearGradient>
<linearGradient id="paint44_linear_1_11" x1="2437.05" y1="18003.1" x2="389.343" y2="17350.4" gradientUnits="userSpaceOnUse">
<stop stop-color="#4352A3"/>
<stop offset="1" stop-color="#693192"/>
</linearGradient>
<linearGradient id="paint45_linear_1_11" x1="12858.7" y1="16787.7" x2="4445.59" y2="17248.7" gradientUnits="userSpaceOnUse">
<stop stop-color="#4352A3"/>
<stop offset="1" stop-color="#693192"/>
</linearGradient>
<linearGradient id="paint46_linear_1_11" x1="4404.67" y1="8799.52" x2="3202.34" y2="9194.22" gradientUnits="userSpaceOnUse">
<stop stop-color="#4352A3"/>
<stop offset="1" stop-color="#693192"/>
</linearGradient>
<linearGradient id="paint47_linear_1_11" x1="744.134" y1="6686.95" x2="709.764" y2="6687.18" gradientUnits="userSpaceOnUse">
<stop stop-color="#4352A3"/>
<stop offset="1" stop-color="#693192"/>
</linearGradient>
<linearGradient id="paint48_linear_1_11" x1="-74.6407" y1="8289.05" x2="623.634" y2="8584.81" gradientUnits="userSpaceOnUse">
<stop stop-color="#4352A3"/>
<stop offset="1" stop-color="#693192"/>
</linearGradient>
<linearGradient id="paint49_linear_1_11" x1="1469.52" y1="13467.4" x2="2473.05" y2="13809.9" gradientUnits="userSpaceOnUse">
<stop stop-color="#00B7E1"/>
<stop offset="1" stop-color="#E83D9B"/>
</linearGradient>
<linearGradient id="paint50_linear_1_11" x1="2637.5" y1="12124.5" x2="4030.7" y2="12473" gradientUnits="userSpaceOnUse">
<stop stop-color="#00B7E1"/>
<stop offset="1" stop-color="#E83D9B"/>
</linearGradient>
<linearGradient id="paint51_linear_1_11" x1="1279.47" y1="10611.3" x2="1943.24" y2="10932.7" gradientUnits="userSpaceOnUse">
<stop stop-color="#00B7E1"/>
<stop offset="1" stop-color="#E83D9B"/>
</linearGradient>
<linearGradient id="paint52_linear_1_11" x1="4875.53" y1="4127.13" x2="5877.97" y2="4467.95" gradientUnits="userSpaceOnUse">
<stop stop-color="#00B7E1"/>
<stop offset="1" stop-color="#E83D9B"/>
</linearGradient>
<linearGradient id="paint53_linear_1_11" x1="6044.48" y1="-522.77" x2="7439.18" y2="-172.894" gradientUnits="userSpaceOnUse">
<stop stop-color="#00B7E1"/>
<stop offset="1" stop-color="#E83D9B"/>
</linearGradient>
<linearGradient id="paint54_linear_1_11" x1="4686.44" y1="4013.43" x2="5350.62" y2="4336.71" gradientUnits="userSpaceOnUse">
<stop stop-color="#00B7E1"/>
<stop offset="1" stop-color="#E83D9B"/>
</linearGradient>
<linearGradient id="paint55_linear_1_11" x1="47448.2" y1="7894.77" x2="42098.9" y2="11055.2" gradientUnits="userSpaceOnUse">
<stop stop-color="#2B79BE"/>
<stop offset="1" stop-color="#545BA8"/>
</linearGradient>
<linearGradient id="paint56_linear_1_11" x1="23786.4" y1="14284.4" x2="22797.7" y2="10884.7" gradientUnits="userSpaceOnUse">
<stop stop-color="#E83D9B"/>
<stop offset="1" stop-color="#653695"/>
</linearGradient>
<linearGradient id="paint57_linear_1_11" x1="32587.4" y1="9020.34" x2="29937.3" y2="6816.31" gradientUnits="userSpaceOnUse">
<stop stop-color="#DBF0F4"/>
<stop offset="1" stop-color="#2B79BE"/>
</linearGradient>
<linearGradient id="paint58_linear_1_11" x1="39093.1" y1="10495.1" x2="45544.5" y2="8339.25" gradientUnits="userSpaceOnUse">
<stop stop-color="#4352A3"/>
<stop offset="1" stop-color="#693192"/>
</linearGradient>
<linearGradient id="paint59_linear_1_11" x1="9018.57" y1="12446" x2="8210.84" y2="12010.3" gradientUnits="userSpaceOnUse">
<stop stop-color="#4352A3"/>
<stop offset="1" stop-color="#693192"/>
</linearGradient>
</defs>
</svg>
