<svg width="40" height="40" viewBox="0 0 40 40" fill="none" xmlns="http://www.w3.org/2000/svg">
<path d="M37.8949 20C37.8949 29.8832 29.8834 37.8948 20.0002 37.8948C10.117 37.8948 2.10547 29.8832 2.10547 20C2.10547 10.1169 10.117 2.1053 20.0002 2.1053C29.8834 2.1053 37.8949 10.1169 37.8949 20Z" fill="#D99E82"/>
<path d="M24.882 18.8914C26.121 18.4861 27.4547 19.1661 27.8578 20.4072C28.262 21.6493 27.5841 22.9829 26.341 23.3872C25.0978 23.7914 22.2662 23.5987 21.862 22.3577C21.4589 21.1145 23.6378 19.2935 24.882 18.8914Z" fill="#8A4B38"/>
<path d="M33.9035 18.1846C33.5035 18.6604 32.793 18.7235 32.3172 18.3225C31.8414 17.9214 31.7793 17.212 32.1793 16.7351C32.5803 16.2604 33.773 15.6225 34.2487 16.0225C34.7256 16.4225 34.3045 17.7078 33.9035 18.1846Z" fill="#8A4B38"/>
<path d="M10.7453 10.8162C10.3453 11.292 9.63476 11.3551 9.15897 10.9541C8.68318 10.553 8.62107 9.84355 9.02107 9.36671C9.42212 8.89198 10.6148 8.25408 11.0905 8.65408C11.5674 9.05408 11.1463 10.3393 10.7453 10.8162Z" fill="#8A4B38"/>
<path d="M23.4747 8.82256C22.6874 8.3194 22.4547 7.27309 22.959 6.48572C23.4621 5.6973 24.5084 5.46677 25.2968 5.96993C26.0853 6.47414 27.2684 8.12782 26.7642 8.91519C26.26 9.70361 24.2632 9.32677 23.4747 8.82256Z" fill="#8A4B38"/>
<path d="M15.1315 15.3665C14.5894 14.2444 15.0641 12.8917 16.1894 12.3517C17.3157 11.8128 18.6641 12.2875 19.2041 13.4128C19.7441 14.5391 19.922 17.2475 18.7967 17.7854C17.6704 18.3265 15.6704 16.4938 15.1315 15.3665Z" fill="#8A4B38"/>
<path d="M16.2103 30.2077C16.8439 29.2877 18.105 29.054 19.0229 29.6898C19.9429 30.3267 20.1745 31.5856 19.5387 32.5056C18.9039 33.4256 16.8776 34.7656 15.9597 34.1309C15.0387 33.4951 15.5745 31.1267 16.2103 30.2077Z" fill="#8A4B38"/>
<path d="M26.7495 29.78C26.0264 29.3211 25.8138 28.3611 26.2769 27.639C26.738 26.9169 27.6959 26.7063 28.419 27.1684C29.1401 27.6295 30.2243 29.1442 29.7622 29.8653C29.3011 30.5895 27.4717 30.2432 26.7495 29.78Z" fill="#8A4B38"/>
<path d="M6.87994 20.4425C7.68205 19.5446 9.05994 19.4678 9.95678 20.2709C10.8526 21.0751 10.9294 22.452 10.1252 23.3467C9.3231 24.2467 6.97573 25.4046 6.08099 24.6014C5.1831 23.7972 6.07573 21.3383 6.87994 20.4425Z" fill="#8A4B38"/>
</svg>
