<svg width="40" height="40" viewBox="0 0 40 40" fill="none" xmlns="http://www.w3.org/2000/svg">
<path fill-rule="evenodd" clip-rule="evenodd" d="M20 2.10886L2.10883 20L20 37.8911L37.8911 20L20 2.10886ZM20.5342 0.221281C20.2392 -0.073761 19.7608 -0.07376 19.4658 0.221282L0.221248 19.4658C-0.0737493 19.7608 -0.0737493 20.2392 0.221248 20.5342L19.4658 39.7789C19.7608 40.0737 20.2392 40.0737 20.5342 39.7789L39.7788 20.5342C40.0737 20.2392 40.0737 19.7608 39.7788 19.4658L20.5342 0.221281Z" fill="url(#paint0_linear_1_560)"/>
<path fill-rule="evenodd" clip-rule="evenodd" d="M34.2622 35.8748C35.531 36.1446 35.8546 35.8658 35.8654 35.8549C35.8763 35.8441 36.155 35.5208 35.885 34.2518C35.6334 33.0691 34.9812 31.4861 33.9006 29.5876C31.7522 25.8125 28.1101 21.134 23.4667 16.4905C18.8231 11.8468 14.1447 8.20488 10.3695 6.05645C8.471 4.97598 6.88787 4.32358 5.70524 4.07207C4.43628 3.80222 4.11285 4.08098 4.10206 4.09181C4.09122 4.10264 3.81249 4.42607 4.08229 5.69499C4.33383 6.87766 4.9862 8.46072 6.06671 10.3593C8.21509 14.1344 11.8571 18.8128 16.5007 23.4564C21.1442 28.0999 25.8227 31.742 29.5978 33.8904C31.4963 34.971 33.0793 35.6232 34.2622 35.8748ZM15.2897 24.6673C24.7297 34.1072 34.4838 39.6584 37.0762 37.066C39.6686 34.4736 34.1174 24.7195 24.6775 15.2795C15.2376 5.83959 5.48353 0.288545 2.89119 2.88092C0.298782 5.47327 5.84982 15.2274 15.2897 24.6673Z" fill="url(#paint1_linear_1_560)"/>
<path fill-rule="evenodd" clip-rule="evenodd" d="M35.885 5.69499C36.155 4.42607 35.8763 4.10264 35.8654 4.09181C35.8546 4.08098 35.531 3.80222 34.2622 4.07207C33.0793 4.32358 31.4963 4.97598 29.5978 6.05645C25.8227 8.20488 21.1442 11.8468 16.5007 16.4905C11.8571 21.134 8.21509 25.8125 6.06671 29.5876C4.9862 31.4861 4.33383 33.0691 4.08229 34.2518C3.81249 35.5208 4.09122 35.8441 4.10206 35.8549C4.11285 35.8658 4.43628 36.1446 5.70524 35.8748C6.88787 35.6232 8.471 34.971 10.3695 33.8904C14.1447 31.742 18.8231 28.0999 23.4667 23.4564C28.1101 18.8128 31.7522 14.1344 33.9006 10.3593C34.9812 8.46072 35.6334 6.87766 35.885 5.69499ZM24.6775 24.6673C34.1174 15.2274 39.6686 5.47327 37.0762 2.88092C34.4838 0.288545 24.7297 5.83959 15.2897 15.2795C5.84982 24.7195 0.298782 34.4736 2.89119 37.066C5.48353 39.6584 15.2376 34.1072 24.6775 24.6673Z" fill="url(#paint2_linear_1_560)"/>
<path fill-rule="evenodd" clip-rule="evenodd" d="M9.61961 29.9325L3.32373 23.6367L4.53461 22.4258L10.8305 28.7217L9.61961 29.9325Z" fill="url(#paint3_linear_1_560)"/>
<path fill-rule="evenodd" clip-rule="evenodd" d="M28.0031 10.1026L23.8604 5.9725L25.0694 4.75977L29.2122 8.88986L28.0031 10.1026Z" fill="url(#paint4_linear_1_560)"/>
<path fill-rule="evenodd" clip-rule="evenodd" d="M11.3799 8.31267L14.7923 4.8877L16.0055 6.09634L12.5931 9.5213L11.3799 8.31267Z" fill="url(#paint5_linear_1_560)"/>
<path fill-rule="evenodd" clip-rule="evenodd" d="M30.2754 27.6406L33.6878 24.2158L34.9008 25.4245L31.4885 28.8495L30.2754 27.6406Z" fill="url(#paint6_linear_1_560)"/>
<path d="M23.3698 19.985C23.3698 21.8487 21.8589 23.3595 19.9952 23.3595C18.1314 23.3595 16.6206 21.8487 16.6206 19.985C16.6206 18.1212 18.1314 16.6104 19.9952 16.6104C21.8589 16.6104 23.3698 18.1212 23.3698 19.985Z" fill="url(#paint7_linear_1_560)"/>
<defs>
<linearGradient id="paint0_linear_1_560" x1="10.2112" y1="10.2893" x2="30.2824" y2="30.3605" gradientUnits="userSpaceOnUse">
<stop stop-color="#B579E7"/>
<stop offset="1" stop-color="#E857B0"/>
</linearGradient>
<linearGradient id="paint1_linear_1_560" x1="11.8482" y1="19.0908" x2="29.5144" y2="19.9849" gradientUnits="userSpaceOnUse">
<stop stop-color="#1DD9FF"/>
<stop offset="1" stop-color="#AA81F3"/>
</linearGradient>
<linearGradient id="paint2_linear_1_560" x1="11.4831" y1="19.9849" x2="28.91" y2="19.9849" gradientUnits="userSpaceOnUse">
<stop stop-color="#1DD9FF"/>
<stop offset="1" stop-color="#AA81F3"/>
</linearGradient>
<linearGradient id="paint3_linear_1_560" x1="3.32373" y1="23.6723" x2="9.58396" y2="29.9325" gradientUnits="userSpaceOnUse">
<stop stop-color="#BF72DC"/>
<stop offset="1" stop-color="#D067CA"/>
</linearGradient>
<linearGradient id="paint4_linear_1_560" x1="23.2936" y1="5.5153" x2="29.5539" y2="11.7755" gradientUnits="userSpaceOnUse">
<stop stop-color="#BF72DC"/>
<stop offset="1" stop-color="#D067CA"/>
</linearGradient>
<linearGradient id="paint5_linear_1_560" x1="15.7362" y1="3.93795" x2="10.7524" y2="8.92951" gradientUnits="userSpaceOnUse">
<stop stop-color="#B679E6"/>
<stop offset="1" stop-color="#B678E6"/>
</linearGradient>
<linearGradient id="paint6_linear_1_560" x1="34.6316" y1="23.2661" x2="29.6481" y2="28.2577" gradientUnits="userSpaceOnUse">
<stop stop-color="#E758B2"/>
<stop offset="1" stop-color="#E658B2"/>
</linearGradient>
<linearGradient id="paint7_linear_1_560" x1="16.6206" y1="19.985" x2="23.3698" y2="19.985" gradientUnits="userSpaceOnUse">
<stop stop-color="#C46FD6"/>
<stop offset="1" stop-color="#E15BB6"/>
</linearGradient>
</defs>
</svg>
