<svg width="260" height="40" viewBox="0 0 260 40" fill="none" xmlns="http://www.w3.org/2000/svg">
<path fill-rule="evenodd" clip-rule="evenodd" d="M20 2.10886L2.10883 20L20 37.8911L37.8911 20L20 2.10886ZM20.5342 0.221281C20.2392 -0.073761 19.7608 -0.07376 19.4658 0.221282L0.221248 19.4658C-0.0737493 19.7608 -0.0737493 20.2392 0.221248 20.5342L19.4658 39.7789C19.7608 40.0737 20.2392 40.0737 20.5342 39.7789L39.7788 20.5342C40.0737 20.2392 40.0737 19.7608 39.7788 19.4658L20.5342 0.221281Z" fill="url(#paint0_linear_1_559)"/>
<path fill-rule="evenodd" clip-rule="evenodd" d="M34.2622 35.8748C35.531 36.1446 35.8546 35.8658 35.8654 35.8549C35.8763 35.8441 36.155 35.5208 35.885 34.2518C35.6334 33.0691 34.9812 31.4861 33.9006 29.5876C31.7522 25.8125 28.1101 21.134 23.4667 16.4905C18.8231 11.8468 14.1447 8.20488 10.3695 6.05645C8.471 4.97598 6.88787 4.32358 5.70524 4.07207C4.43628 3.80222 4.11285 4.08098 4.10206 4.09181C4.09122 4.10264 3.81249 4.42607 4.08229 5.69499C4.33383 6.87766 4.9862 8.46072 6.06671 10.3593C8.21509 14.1344 11.8571 18.8128 16.5007 23.4564C21.1442 28.0999 25.8227 31.742 29.5978 33.8904C31.4963 34.971 33.0793 35.6232 34.2622 35.8748ZM15.2897 24.6673C24.7297 34.1072 34.4838 39.6584 37.0762 37.066C39.6686 34.4736 34.1174 24.7195 24.6775 15.2795C15.2376 5.83959 5.48353 0.288545 2.89119 2.88092C0.298782 5.47327 5.84982 15.2274 15.2897 24.6673Z" fill="url(#paint1_linear_1_559)"/>
<path fill-rule="evenodd" clip-rule="evenodd" d="M35.885 5.69499C36.155 4.42607 35.8763 4.10264 35.8654 4.09181C35.8546 4.08098 35.531 3.80222 34.2622 4.07207C33.0793 4.32358 31.4963 4.97598 29.5978 6.05645C25.8227 8.20488 21.1442 11.8468 16.5007 16.4905C11.8571 21.134 8.21509 25.8125 6.06671 29.5876C4.9862 31.4861 4.33383 33.0691 4.08229 34.2518C3.81249 35.5208 4.09122 35.8441 4.10206 35.8549C4.11285 35.8658 4.43628 36.1446 5.70524 35.8748C6.88787 35.6232 8.471 34.971 10.3695 33.8904C14.1447 31.742 18.8231 28.0999 23.4667 23.4564C28.1101 18.8128 31.7522 14.1344 33.9006 10.3593C34.9812 8.46072 35.6334 6.87766 35.885 5.69499ZM24.6775 24.6673C34.1174 15.2274 39.6686 5.47327 37.0762 2.88092C34.4838 0.288545 24.7297 5.83959 15.2897 15.2795C5.84982 24.7195 0.298782 34.4736 2.89119 37.066C5.48353 39.6584 15.2376 34.1072 24.6775 24.6673Z" fill="url(#paint2_linear_1_559)"/>
<path fill-rule="evenodd" clip-rule="evenodd" d="M9.61961 29.9325L3.32373 23.6367L4.53461 22.4258L10.8305 28.7217L9.61961 29.9325Z" fill="url(#paint3_linear_1_559)"/>
<path fill-rule="evenodd" clip-rule="evenodd" d="M28.0031 10.1026L23.8604 5.9725L25.0694 4.75977L29.2122 8.88986L28.0031 10.1026Z" fill="url(#paint4_linear_1_559)"/>
<path fill-rule="evenodd" clip-rule="evenodd" d="M11.3799 8.31267L14.7923 4.8877L16.0055 6.09634L12.5931 9.5213L11.3799 8.31267Z" fill="url(#paint5_linear_1_559)"/>
<path fill-rule="evenodd" clip-rule="evenodd" d="M30.2754 27.6406L33.6878 24.2158L34.9008 25.4245L31.4885 28.8495L30.2754 27.6406Z" fill="url(#paint6_linear_1_559)"/>
<path d="M23.3698 19.985C23.3698 21.8487 21.8589 23.3595 19.9952 23.3595C18.1314 23.3595 16.6206 21.8487 16.6206 19.985C16.6206 18.1212 18.1314 16.6104 19.9952 16.6104C21.8589 16.6104 23.3698 18.1212 23.3698 19.985Z" fill="url(#paint7_linear_1_559)"/>
<path d="M60.787 22.3418H54.7298L53.5919 25.4606H50L55.8676 10.2882H59.7496L65.5726 25.4606H61.8467L60.787 22.3418ZM59.8277 19.7273L57.7751 13.7569L55.6557 19.7273H59.8277ZM74.2969 23.8755C74.267 23.9098 74.1926 24.0128 74.0738 24.1843C73.9547 24.3559 73.8135 24.5068 73.6497 24.6371C73.1515 25.0489 72.6681 25.3303 72.1996 25.4813C71.7385 25.6322 71.1956 25.7078 70.5709 25.7078C68.7712 25.7078 67.5591 25.1106 66.9344 23.9166C66.5848 23.2579 66.4101 22.2868 66.4101 21.0036V14.2409H69.6674V21.0036C69.6674 21.6418 69.7492 22.1222 69.9128 22.4447C70.2028 23.0141 70.7717 23.2989 71.6195 23.2989C72.7053 23.2989 73.449 22.8941 73.8506 22.0843C74.0587 21.6452 74.163 21.0653 74.163 20.3447V14.2409H77.3866V25.4606H74.2969V23.8755ZM85.6648 16.948C84.3857 16.948 83.5265 17.3324 83.0878 18.1009C82.8424 18.5331 82.7199 19.1987 82.7199 20.0978V25.4606H79.5183V14.2409H82.5524V16.1965C83.0434 15.4485 83.4709 14.9372 83.8352 14.6629C84.4301 14.203 85.2037 13.9731 86.1555 13.9731C86.215 13.9731 86.2634 13.9767 86.3006 13.9834C86.3451 13.9834 86.4381 13.987 86.5793 13.9937V16.9993C86.3786 16.9789 86.2002 16.965 86.0439 16.9583C85.8879 16.9513 85.7613 16.948 85.6648 16.948ZM97.6797 15.6614C98.706 16.8484 99.2191 18.2519 99.2191 19.8713C99.2191 21.5183 98.706 22.9285 97.6797 24.1018C96.6533 25.2684 95.0954 25.8518 93.0058 25.8518C90.9159 25.8518 89.358 25.2684 88.3317 24.1018C87.3053 22.9285 86.7922 21.5183 86.7922 19.8713C86.7922 18.2519 87.3053 16.8484 88.3317 15.6614C89.358 14.4741 90.9159 13.8805 93.0058 13.8805C95.0954 13.8805 96.6533 14.4741 97.6797 15.6614ZM92.9946 16.3613C92.065 16.3613 91.3473 16.6665 90.8415 17.2774C90.3433 17.8811 90.0942 18.7459 90.0942 19.8713C90.0942 20.9966 90.3433 21.8648 90.8415 22.4754C91.3473 23.0863 92.065 23.3916 92.9946 23.3916C93.9242 23.3916 94.638 23.0863 95.1363 22.4754C95.6345 21.8648 95.8836 20.9966 95.8836 19.8713C95.8836 18.7459 95.6345 17.8811 95.1363 17.2774C94.638 16.6665 93.9242 16.3613 92.9946 16.3613ZM106.705 16.948C105.426 16.948 104.567 17.3324 104.128 18.1009C103.883 18.5331 103.76 19.1987 103.76 20.0978V25.4606H100.558V14.2409H103.593V16.1965C104.084 15.4485 104.511 14.9372 104.876 14.6629C105.471 14.203 106.244 13.9731 107.196 13.9731C107.255 13.9731 107.304 13.9767 107.341 13.9834C107.385 13.9834 107.479 13.987 107.62 13.9937V16.9993C107.419 16.9789 107.241 16.965 107.084 16.9583C106.928 16.9513 106.802 16.948 106.705 16.948ZM109.037 15.4555C109.878 14.4672 111.32 13.9731 113.366 13.9731C114.697 13.9731 115.879 14.2169 116.913 14.704C117.946 15.1913 118.463 16.1108 118.463 17.4627V22.6093C118.463 22.9661 118.471 23.3985 118.486 23.9062C118.508 24.2906 118.571 24.5515 118.675 24.6887C118.78 24.826 118.936 24.939 119.144 25.0283V25.4606H115.686C115.589 25.2341 115.522 25.0215 115.485 24.8224C115.448 24.6235 115.418 24.3969 115.396 24.1431C114.957 24.5822 114.451 24.9563 113.879 25.2651C113.195 25.6288 112.421 25.8107 111.558 25.8107C110.458 25.8107 109.547 25.5223 108.825 24.946C108.111 24.3626 107.755 23.5391 107.755 22.4754C107.755 21.0962 108.331 20.0978 109.484 19.4802C110.116 19.144 111.045 18.9038 112.272 18.7596L113.354 18.636C113.942 18.5674 114.362 18.4817 114.615 18.3788C115.069 18.2003 115.295 17.9224 115.295 17.545C115.295 17.0852 115.121 16.7695 114.771 16.5979C114.429 16.4196 113.923 16.3304 113.254 16.3304C112.503 16.3304 111.971 16.5019 111.659 16.845C111.436 17.0989 111.287 17.442 111.213 17.8744H108.145C108.212 16.893 108.509 16.0868 109.037 15.4555ZM111.402 23.3402C111.7 23.5667 112.064 23.68 112.495 23.68C113.18 23.68 113.808 23.4945 114.381 23.124C114.961 22.7535 115.262 22.0776 115.284 21.0962V20.0052C115.083 20.1218 114.879 20.2178 114.671 20.2933C114.47 20.362 114.191 20.4272 113.834 20.4889L113.12 20.6125C112.451 20.7221 111.971 20.856 111.681 21.0139C111.19 21.2815 110.945 21.6966 110.945 22.2595C110.945 22.7603 111.097 23.1206 111.402 23.3402ZM137.685 24.3283C136.459 25.3646 134.889 25.8827 132.978 25.8827C130.613 25.8827 128.754 25.1828 127.4 23.7829C126.047 22.3761 125.37 20.4476 125.37 17.998C125.37 15.349 126.14 13.3075 127.679 11.8733C129.018 10.6244 130.721 10 132.788 10C135.555 10 137.578 10.8372 138.857 12.5116C139.563 13.4517 139.942 14.3952 139.995 15.3422H136.559C136.336 14.6147 136.049 14.0657 135.7 13.6952C135.075 13.0366 134.149 12.7071 132.922 12.7071C131.673 12.7071 130.688 13.1738 129.966 14.107C129.245 15.0334 128.884 16.3476 128.884 18.0493C128.884 19.7513 129.263 21.0276 130.022 21.8784C130.788 22.7226 131.758 23.1446 132.933 23.1446C134.138 23.1446 135.057 22.7809 135.689 22.0536C136.038 21.6623 136.328 21.0756 136.559 20.2933H139.961C139.664 21.9471 138.905 23.2922 137.685 24.3283ZM151.563 15.6614C152.59 16.8484 153.103 18.2519 153.103 19.8713C153.103 21.5183 152.59 22.9285 151.563 24.1018C150.537 25.2684 148.979 25.8518 146.889 25.8518C144.8 25.8518 143.242 25.2684 142.215 24.1018C141.189 22.9285 140.676 21.5183 140.676 19.8713C140.676 18.2519 141.189 16.8484 142.215 15.6614C143.242 14.4741 144.8 13.8805 146.889 13.8805C148.979 13.8805 150.537 14.4741 151.563 15.6614ZM146.878 16.3613C145.949 16.3613 145.231 16.6665 144.725 17.2774C144.227 17.8811 143.978 18.7459 143.978 19.8713C143.978 20.9966 144.227 21.8648 144.725 22.4754C145.231 23.0863 145.949 23.3916 146.878 23.3916C147.808 23.3916 148.522 23.0863 149.02 22.4754C149.518 21.8648 149.767 20.9966 149.767 19.8713C149.767 18.7459 149.518 17.8811 149.02 17.2774C148.522 16.6665 147.808 16.3613 146.878 16.3613ZM165.542 10.3088V25.4606H162.452V23.9062C161.998 24.5719 161.481 25.0558 160.901 25.3577C160.321 25.6596 159.6 25.8107 158.737 25.8107C157.317 25.8107 156.119 25.2821 155.145 24.2254C154.178 23.1617 153.695 21.7995 153.695 20.139C153.695 18.2243 154.171 16.7181 155.123 15.6201C156.082 14.5221 157.361 13.9731 158.96 13.9731C159.696 13.9731 160.351 14.1242 160.923 14.4261C161.496 14.7212 161.961 15.133 162.318 15.6614V10.3088H165.542ZM156.974 19.9229C156.974 20.959 157.198 21.7858 157.644 22.4034C158.082 23.028 158.752 23.3402 159.652 23.3402C160.551 23.3402 161.236 23.0314 161.704 22.4138C162.173 21.7961 162.407 20.9966 162.407 20.0155C162.407 18.643 162.032 17.6616 161.28 17.0715C160.819 16.7147 160.284 16.5362 159.674 16.5362C158.744 16.5362 158.06 16.8623 157.621 17.514C157.19 18.1592 156.974 18.9621 156.974 19.9229ZM177.936 22.1666C177.854 22.8325 177.478 23.5084 176.809 24.1944C175.768 25.2857 174.31 25.8311 172.436 25.8311C170.89 25.8311 169.525 25.3714 168.342 24.4519C167.16 23.5324 166.569 22.0363 166.569 19.9639C166.569 18.022 167.1 16.5329 168.164 15.4965C169.235 14.4604 170.622 13.9424 172.325 13.9424C173.336 13.9424 174.247 14.1173 175.058 14.4671C175.869 14.8172 176.538 15.3696 177.066 16.1245C177.542 16.7901 177.85 17.5622 177.992 18.4405C178.073 18.9552 178.107 19.6963 178.092 20.6638H169.77C169.815 21.7894 170.198 22.5784 170.919 23.0314C171.358 23.3129 171.886 23.4535 172.503 23.4535C173.158 23.4535 173.689 23.2819 174.098 22.9388C174.322 22.7535 174.519 22.4961 174.69 22.1666H177.936ZM174.79 18.7286C174.738 17.9534 174.482 17.3667 174.02 16.9686C173.567 16.5636 173.002 16.3613 172.325 16.3613C171.589 16.3613 171.016 16.5739 170.607 16.9993C170.205 17.425 169.952 18.0013 169.848 18.7286H174.79ZM196.689 12.9747H188.446V16.4642H195.663V19.0994H188.446V25.4606H185.032V10.3088H196.689V12.9747ZM198.286 15.4555C199.126 14.4672 200.569 13.9731 202.614 13.9731C203.945 13.9731 205.127 14.2169 206.161 14.704C207.195 15.1913 207.712 16.1108 207.712 17.4627V22.6093C207.712 22.9661 207.719 23.3985 207.734 23.9062C207.756 24.2906 207.819 24.5515 207.924 24.6887C208.028 24.826 208.184 24.939 208.392 25.0283V25.4606H204.934C204.837 25.2341 204.77 25.0215 204.733 24.8224C204.696 24.6235 204.666 24.3969 204.644 24.1431C204.205 24.5822 203.699 24.9563 203.127 25.2651C202.443 25.6288 201.669 25.8107 200.807 25.8107C199.706 25.8107 198.795 25.5223 198.074 24.946C197.36 24.3626 197.003 23.5391 197.003 22.4754C197.003 21.0962 197.579 20.0978 198.732 19.4802C199.364 19.144 200.293 18.9038 201.52 18.7596L202.602 18.636C203.19 18.5674 203.61 18.4817 203.863 18.3788C204.317 18.2003 204.544 17.9224 204.544 17.545C204.544 17.0852 204.369 16.7695 204.019 16.5979C203.677 16.4196 203.171 16.3304 202.502 16.3304C201.751 16.3304 201.219 16.5019 200.907 16.845C200.684 17.0989 200.535 17.442 200.461 17.8744H197.393C197.46 16.893 197.757 16.0868 198.286 15.4555ZM200.65 23.3402C200.948 23.5667 201.312 23.68 201.743 23.68C202.428 23.68 203.056 23.4945 203.629 23.124C204.209 22.7535 204.51 22.0776 204.532 21.0962V20.0052C204.332 20.1218 204.127 20.2178 203.919 20.2933C203.718 20.362 203.439 20.4272 203.082 20.4889L202.368 20.6125C201.699 20.7221 201.219 20.856 200.929 21.0139C200.438 21.2815 200.193 21.6966 200.193 22.2595C200.193 22.7603 200.346 23.1206 200.65 23.3402ZM220.15 18.2655H216.893C216.834 17.8468 216.681 17.4696 216.436 17.1332C216.079 16.6804 215.525 16.4539 214.774 16.4539C213.703 16.4539 212.97 16.9446 212.576 17.9258C212.368 18.4474 212.264 19.1404 212.264 20.0052C212.264 20.8287 212.368 21.4909 212.576 21.9917C212.955 22.9251 213.669 23.3916 214.718 23.3916C215.462 23.3916 215.989 23.2063 216.302 22.8358C216.614 22.4654 216.804 21.985 216.871 21.3947H220.117C220.043 22.2868 219.693 23.131 219.068 23.9269C218.072 25.2101 216.596 25.8518 214.64 25.8518C212.684 25.8518 211.245 25.3164 210.323 24.246C209.401 23.1756 208.939 21.7858 208.939 20.0771C208.939 18.1489 209.449 16.6495 210.468 15.5791C211.487 14.5084 212.892 13.9731 214.684 13.9731C216.209 13.9731 217.455 14.2889 218.421 14.9202C219.396 15.5515 219.972 16.6665 220.15 18.2655ZM227.001 23.3712V25.5636L225.495 25.6149C223.992 25.6631 222.966 25.423 222.416 24.8946C222.059 24.5582 221.88 24.0401 221.88 23.3402V16.4333H220.185V14.3438H221.88V11.2146H225.026V14.3438H227.001V16.4333H225.026V22.3624C225.026 22.8222 225.089 23.1103 225.216 23.2269C225.342 23.3368 225.729 23.3916 226.376 23.3916C226.472 23.3916 226.573 23.3916 226.677 23.3916C226.789 23.3848 226.896 23.3779 227.001 23.3712ZM238.268 15.6614C239.295 16.8484 239.808 18.2519 239.808 19.8713C239.808 21.5183 239.295 22.9285 238.268 24.1018C237.242 25.2684 235.684 25.8518 233.594 25.8518C231.504 25.8518 229.946 25.2684 228.92 24.1018C227.894 22.9285 227.381 21.5183 227.381 19.8713C227.381 18.2519 227.894 16.8484 228.92 15.6614C229.946 14.4741 231.504 13.8805 233.594 13.8805C235.684 13.8805 237.242 14.4741 238.268 15.6614ZM233.583 16.3613C232.653 16.3613 231.936 16.6665 231.43 17.2774C230.932 17.8811 230.683 18.7459 230.683 19.8713C230.683 20.9966 230.932 21.8648 231.43 22.4754C231.936 23.0863 232.653 23.3916 233.583 23.3916C234.512 23.3916 235.227 23.0863 235.725 22.4754C236.223 21.8648 236.472 20.9966 236.472 19.8713C236.472 18.7459 236.223 17.8811 235.725 17.2774C235.227 16.6665 234.512 16.3613 233.583 16.3613ZM247.293 16.948C246.014 16.948 245.155 17.3324 244.717 18.1009C244.471 18.5331 244.349 19.1987 244.349 20.0978V25.4606H241.147V14.2409H244.181V16.1965C244.672 15.4485 245.1 14.9372 245.464 14.6629C246.059 14.203 246.832 13.9731 247.784 13.9731C247.844 13.9731 247.892 13.9767 247.929 13.9834C247.974 13.9834 248.067 13.987 248.208 13.9937V16.9993C248.007 16.9789 247.829 16.965 247.673 16.9583C247.517 16.9513 247.39 16.948 247.293 16.948ZM254.11 22.5167L256.62 14.2409H260L255.828 25.2754C255.025 27.4028 254.389 28.7203 253.921 29.2281C253.452 29.7428 252.515 30 251.109 30C250.827 30 250.6 29.9966 250.429 29.9897C250.258 29.9897 250.001 29.9794 249.659 29.9589V27.612L250.061 27.6326C250.373 27.6463 250.671 27.636 250.953 27.6017C251.236 27.5674 251.474 27.4885 251.667 27.3649C251.853 27.2483 252.024 27.0047 252.18 26.634C252.344 26.2635 252.411 26.037 252.381 25.9547L247.919 14.2409H251.455L254.11 22.5167Z" fill="white"/>
<defs>
<linearGradient id="paint0_linear_1_559" x1="10.2112" y1="10.2893" x2="30.2824" y2="30.3605" gradientUnits="userSpaceOnUse">
<stop stop-color="#B579E7"/>
<stop offset="1" stop-color="#E857B0"/>
</linearGradient>
<linearGradient id="paint1_linear_1_559" x1="11.8482" y1="19.0908" x2="29.5144" y2="19.9849" gradientUnits="userSpaceOnUse">
<stop stop-color="#1DD9FF"/>
<stop offset="1" stop-color="#AA81F3"/>
</linearGradient>
<linearGradient id="paint2_linear_1_559" x1="11.4831" y1="19.9849" x2="28.91" y2="19.9849" gradientUnits="userSpaceOnUse">
<stop stop-color="#1DD9FF"/>
<stop offset="1" stop-color="#AA81F3"/>
</linearGradient>
<linearGradient id="paint3_linear_1_559" x1="3.32373" y1="23.6723" x2="9.58396" y2="29.9325" gradientUnits="userSpaceOnUse">
<stop stop-color="#BF72DC"/>
<stop offset="1" stop-color="#D067CA"/>
</linearGradient>
<linearGradient id="paint4_linear_1_559" x1="23.2936" y1="5.5153" x2="29.5539" y2="11.7755" gradientUnits="userSpaceOnUse">
<stop stop-color="#BF72DC"/>
<stop offset="1" stop-color="#D067CA"/>
</linearGradient>
<linearGradient id="paint5_linear_1_559" x1="15.7362" y1="3.93795" x2="10.7524" y2="8.92951" gradientUnits="userSpaceOnUse">
<stop stop-color="#B679E6"/>
<stop offset="1" stop-color="#B678E6"/>
</linearGradient>
<linearGradient id="paint6_linear_1_559" x1="34.6316" y1="23.2661" x2="29.6481" y2="28.2577" gradientUnits="userSpaceOnUse">
<stop stop-color="#E758B2"/>
<stop offset="1" stop-color="#E658B2"/>
</linearGradient>
<linearGradient id="paint7_linear_1_559" x1="16.6206" y1="19.985" x2="23.3698" y2="19.985" gradientUnits="userSpaceOnUse">
<stop stop-color="#C46FD6"/>
<stop offset="1" stop-color="#E15BB6"/>
</linearGradient>
</defs>
</svg>
